<?xml version="1.0" encoding="UTF-8" standalone="no"?>
<!-- Generator: Adobe Illustrator 14.0.0, SVG Export Plug-In . SVG Version: 6.00 Build 43363)  -->

<svg
   xmlns:dc="http://purl.org/dc/elements/1.1/"
   xmlns:cc="http://creativecommons.org/ns#"
   xmlns:rdf="http://www.w3.org/1999/02/22-rdf-syntax-ns#"
   xmlns:svg="http://www.w3.org/2000/svg"
   xmlns="http://www.w3.org/2000/svg"
   xmlns:sodipodi="http://sodipodi.sourceforge.net/DTD/sodipodi-0.dtd"
   xmlns:inkscape="http://www.inkscape.org/namespaces/inkscape"
   version="1.1"
   id="Layer_1"
   x="0px"
   y="0px"
   width="150"
   height="150"
   viewBox="0 0 150 150"
   enable-background="new 0 0 56.625 46.375"
   xml:space="preserve"
   inkscape:version="0.91 r"
   sodipodi:docname="Amoco_logo (copia).svg"><metadata
     id="metadata3603"><rdf:RDF><cc:Work
         rdf:about=""><dc:format>image/svg+xml</dc:format><dc:type
           rdf:resource="http://purl.org/dc/dcmitype/StillImage" /><dc:title></dc:title></cc:Work></rdf:RDF></metadata><defs
     id="defs3601" /><sodipodi:namedview
     pagecolor="#ffffff"
     bordercolor="#666666"
     borderopacity="1"
     objecttolerance="10"
     gridtolerance="10"
     guidetolerance="10"
     inkscape:pageopacity="0"
     inkscape:pageshadow="2"
     inkscape:window-width="975"
     inkscape:window-height="582"
     id="namedview3599"
     showgrid="false"
     inkscape:zoom="3.6775027"
     inkscape:cx="76.15296"
     inkscape:cy="46.549538"
     inkscape:window-x="49"
     inkscape:window-y="18"
     inkscape:window-maximized="1"
     inkscape:current-layer="Layer_1" /><g
     id="g3620"
     transform="matrix(2.769651,0,0,2.7727637,-3.3887564,10.69267)"><path
       id="path3565"
       d="m 28.425,1.185 c 0,0 3.306,2.308 5.254,5.229 0.613,0.92 1.191,2.089 0.999,3.719 -0.112,0.95 -0.933,2.316 -1.566,3.188 12.714,1.308 22.315,8.053 22.315,15.922 0,8.812 -12.055,16.018 -27.003,16.018 -14.947,0 -27.002,-7.206 -27.002,-16.018 0,-7.869 9.601,-14.614 22.315,-15.922 -0.634,-0.871 -1.455,-2.237 -1.567,-3.188 -0.192,-1.63 0.387,-2.799 1,-3.719 1.947,-2.922 5.254,-5.229 5.255,-5.229 l 0,0 z"
       inkscape:connector-curvature="0"
       style="fill:none;stroke:#000000;stroke-width:0.15336278" /><path
       id="path3567"
       d="M 52.803,33.793 C 49.806,38.976 41.009,43.398 30.867,43.939 L 31.384,33.794 52.803,33.793"
       inkscape:connector-curvature="0"
       style="fill:#0084b6" /><path
       id="path3569"
       d="m 25.534,6.057 c 2.975,-2.241 1.868,-3.409 1.868,-3.409 0,0 1.873,0.529 2.708,1.805 1.15,1.756 0.551,3.513 -0.928,4.49 -3.19,2.105 -0.757,4.22 0.224,4.044 0,0 -2.287,1.734 -5.062,-0.856 -0.581,-0.543 -1.073,-1.638 -1.029,-2.709 0.07,-1.678 1.149,-2.559 2.219,-3.365"
       inkscape:connector-curvature="0"
       style="fill:#ed1c24" /><path
       id="path3571"
       d="m 31.426,6.211 c 0,0 3.362,1.817 1.554,5.022 -0.759,1.345 -2.618,1.593 -3.377,0.91 -1.178,-1.061 -0.391,-2.541 0.718,-3.415 2.136,-1.685 1.105,-2.517 1.105,-2.517"
       inkscape:connector-curvature="0"
       style="fill:#ed1c24" /><path
       id="path3573"
       d="m 28.426,43.999 c 0.468,0 1.183,-0.059 1.183,-0.059 l 0.528,-10.146 -1.712,0 -1.712,0 0.527,10.146 c 0,0 0.715,0.059 1.183,0.059 l 0.003,0"
       inkscape:connector-curvature="0"
       style="fill:#0084b6" /><path
       id="path3575"
       d="m 3.967,33.793 c 2.997,5.183 11.795,9.605 21.936,10.146 L 25.387,33.794 3.967,33.793"
       inkscape:connector-curvature="0"
       style="fill:#0084b6" /><path
       id="path3577"
       d="m 28.425,24.534 2.08,-10e-4 c 0.03,-5.323 0.44,-5.103 1.097,-5.608 0.796,-0.613 2.997,-1.668 3.257,-2.173 0.15,-0.293 -0.117,-1.385 -0.294,-1.811 -1.9,-0.265 -4.037,-0.397 -6.14,-0.397 -2.104,0 -4.241,0.133 -6.141,0.397 -0.177,0.426 -0.444,1.518 -0.293,1.811 0.26,0.505 2.46,1.56 3.257,2.173 0.657,0.506 1.066,0.285 1.096,5.608 l 2.081,10e-4"
       inkscape:connector-curvature="0"
       style="fill:#0084b6" /><polyline
       id="polyline3579"
       points="11.404,25.85 12.737,32.534 10.271,32.534 9.968,30.974 6.653,30.972 5.662,32.535 3.07,32.535 7.541,25.852   11.404,25.85 " /><polyline
       id="polyline3581"
       points="9.192,27.003 9.687,29.451 7.647,29.451 9.192,27.003 "
       style="fill:#ffffff" /><polyline
       id="polyline3583"
       points="19.898,32.537 23.129,27.641 21.96,32.537 24.383,32.537 25.942,25.845 22.137,25.847 19.264,30.188   18.465,25.853 14.581,25.855 13.132,32.539 15.303,32.539 16.339,27.649 17.302,32.537 19.898,32.537 " /><path
       id="path3585"
       d="m 30.102,32.82 c 2.51,0 4.629,-1.108 4.888,-3.578 0.208,-1.977 -0.859,-3.578 -4.136,-3.578 -2.36,0 -4.612,0.939 -4.889,3.578 -0.203,1.935 0.687,3.578 4.137,3.578"
       inkscape:connector-curvature="0" /><path
       id="path3587"
       d="m 30.109,31.467 c 1.337,0 1.983,-0.789 2.243,-2.271 0.207,-1.187 0.052,-2.209 -1.491,-2.209 -1.336,0 -2.046,0.727 -2.306,2.209 -0.203,1.161 0.01,2.271 1.554,2.271"
       inkscape:connector-curvature="0"
       style="fill:#ffffff" /><path
       id="path3589"
       d="m 41.302,30.09 c -0.272,0.707 -0.249,1.251 -1.713,1.251 -1.636,0 -1.673,-1.047 -1.48,-2.208 0.247,-1.481 0.916,-2.209 2.195,-2.209 1.366,0 1.508,0.665 1.311,1.515 l 2.577,-0.002 c 0.109,-1.667 -0.702,-2.836 -3.88,-2.836 -2.653,0 -4.522,1.108 -4.779,3.578 -0.201,1.936 0.619,3.578 4.034,3.578 2.8,0 3.845,-0.957 4.363,-2.665 L 41.302,30.09"
       inkscape:connector-curvature="0" /><path
       id="path3591"
       d="m 48.628,32.774 c 2.51,0 4.629,-1.109 4.888,-3.578 0.208,-1.977 -0.859,-3.605 -4.136,-3.578 -2.413,0.02 -4.587,1.184 -4.794,3.578 -0.191,2.205 0.592,3.578 4.042,3.578"
       inkscape:connector-curvature="0" /><path
       id="path3593"
       d="m 48.635,31.421 c 1.337,0 1.983,-0.79 2.243,-2.271 0.207,-1.187 0.052,-2.209 -1.491,-2.209 -1.336,0 -2.046,0.727 -2.306,2.209 -0.203,1.16 0.01,2.271 1.554,2.271"
       inkscape:connector-curvature="0"
       style="fill:#ffffff" /><path
       id="path3595"
       d="M 3.957,24.535 24.96,24.534 c 0,0 0.035,-3.9 -0.372,-4.309 C 23.794,19.43 21.517,18.12 21.313,17.987 20.097,17.194 20.552,15.952 20.923,14.91 12.812,16.349 6.686,19.863 3.957,24.535"
       inkscape:connector-curvature="0"
       style="fill:#ed1c24" /><path
       id="path3597"
       d="M 52.877,24.535 31.874,24.534 c 0,0 -0.036,-3.9 0.372,-4.309 0.793,-0.795 3.07,-2.105 3.274,-2.238 1.216,-0.793 0.761,-2.035 0.39,-3.077 8.111,1.439 14.238,4.953 16.967,9.625"
       inkscape:connector-curvature="0"
       style="fill:#ed1c24" /></g></svg>