<?xml version="1.0" encoding="UTF-8" standalone="no"?>
<svg
   xmlns:dc="http://purl.org/dc/elements/1.1/"
   xmlns:cc="http://creativecommons.org/ns#"
   xmlns:rdf="http://www.w3.org/1999/02/22-rdf-syntax-ns#"
   xmlns:svg="http://www.w3.org/2000/svg"
   xmlns="http://www.w3.org/2000/svg"
   xmlns:sodipodi="http://sodipodi.sourceforge.net/DTD/sodipodi-0.dtd"
   xmlns:inkscape="http://www.inkscape.org/namespaces/inkscape"
   viewBox="0 0 150 150"
   height="150"
   width="150"
   xml:space="preserve"
   id="svg2"
   version="1.1"
   inkscape:version="0.91 r"
   sodipodi:docname="banco_mundial.svg"><sodipodi:namedview
     pagecolor="#ffffff"
     bordercolor="#666666"
     borderopacity="1"
     objecttolerance="10"
     gridtolerance="10"
     guidetolerance="10"
     inkscape:pageopacity="0"
     inkscape:pageshadow="2"
     inkscape:window-width="975"
     inkscape:window-height="582"
     id="namedview3436"
     showgrid="false"
     inkscape:zoom="1.9475472"
     inkscape:cx="81.729354"
     inkscape:cy="115.78667"
     inkscape:window-x="49"
     inkscape:window-y="18"
     inkscape:window-maximized="1"
     inkscape:current-layer="svg2" /><metadata
     id="metadata8"><rdf:RDF><cc:Work
         rdf:about=""><dc:format>image/svg+xml</dc:format><dc:type
           rdf:resource="http://purl.org/dc/dcmitype/StillImage" /><dc:title></dc:title></cc:Work></rdf:RDF></metadata><defs
     id="defs6"><clipPath
       id="clipPath20"
       clipPathUnits="userSpaceOnUse"><path
         id="path18"
         d="m 0,0 1840,0 0,1736.84 -1840,0 z"
         inkscape:connector-curvature="0" /></clipPath></defs><g
     id="g14"
     transform="matrix(0.13175809,0,0,-0.13171644,-39.578309,183.47888)"><g
       clip-path="url(#clipPath20)"
       id="g16"><path
         id="path24"
         style="fill:#3578b8;fill-opacity:1;fill-rule:nonzero;stroke:none"
         d="m 299.68,253.512 1138.45,0 0,1138.81 -1138.45,0 z"
         inkscape:connector-curvature="0" /><path
         id="path26"
         style="fill:#ffffff;fill-opacity:1;fill-rule:nonzero;stroke:none"
         d="m 871.27,1320.92 c 275.19,0 498.26,-223.05 498.26,-498.205 0,-275.195 -223.07,-498.274 -498.26,-498.274 -275.192,0 -498.243,223.079 -498.243,498.274 0,275.155 223.051,498.205 498.243,498.205"
         inkscape:connector-curvature="0" /><path
         id="path28"
         style="fill:#3578b8;fill-opacity:1;fill-rule:nonzero;stroke:none"
         d="m 872.461,370.488 c -250.488,0 -453.59,202.41 -453.59,452.117 0,249.695 203.102,452.125 453.59,452.125 250.549,0 453.619,-202.43 453.619,-452.125 0,-249.707 -203.07,-452.117 -453.619,-452.117 z M 756.098,1210.23 c 0,0 -100.782,-23.72 -151.176,-85.95 26.687,-20.76 59.277,-38.54 74.105,-47.46 17.797,41.52 68.196,118.62 77.071,133.41 z M 722.008,1062 c 35.597,-17.76 83.051,-29.63 126.019,-32.6 l 0,195.66 -35.589,-2.93 c -26.68,-32.64 -78.575,-130.48 -90.43,-160.13 z m -251.992,-217.156 157.117,0 c 5.941,80.047 26.683,148.992 44.515,193.446 -26.714,8.92 -100.847,53.36 -100.847,53.36 C 484.844,1011.6 470.016,890.059 470.016,844.844 Z m 195.66,1.472 183.828,0 0,150.461 c -62.246,2.977 -115.641,20.773 -142.32,29.653 C 683.469,970.105 668.676,884.863 665.676,846.316 Z M 570.801,549.129 c 26.679,20.742 74.133,44.453 100.847,53.371 -26.714,53.359 -47.492,168.973 -47.492,201.59 l -157.113,0 C 458.16,685.512 547.09,569.871 570.801,549.129 Z M 710.18,617.32 c 26.683,14.828 109.664,32.59 139.324,35.571 l 0,151.199 -183.828,0 C 662.73,753.672 698.328,649.91 710.18,617.32 Z m 50.355,-183.832 c -17.762,14.821 -68.18,109.703 -80.004,139.352 -14.855,-5.949 -65.254,-35.57 -77.074,-47.41 59.273,-47.461 118.551,-77.121 157.078,-91.942 z m 59.309,-5.898 c 0,0 23.711,0 29.66,0 l 0,189.73 C 805.059,614.352 754.633,596.551 724.98,584.699 736.863,540.219 805.059,442.41 819.844,427.59 Z m 245.366,647.77 c 14.83,8.91 47.42,26.67 74.11,47.44 -50.39,62.26 -151.215,85.97 -151.215,85.97 8.907,-14.84 59.305,-91.91 77.105,-133.41 z m -133.44,145.25 -35.559,2.98 0,-195.66 c 42.969,2.98 90.422,14.79 125.999,32.6 -11.86,29.65 -63.733,127.46 -90.44,160.08 z m 241.67,-130.43 c 0,0 -74.17,-44.45 -100.86,-53.36 17.81,-44.476 38.54,-113.422 44.49,-193.472 l 157.12,0 c 0,45.234 -14.8,166.752 -100.75,246.832 z m -136.41,-65.26 c -26.68,-8.84 -80.057,-24.42 -142.296,-27.393 l 0,-152.683 183.806,0 c -2.97,38.535 -17.8,123.777 -41.51,180.076 z m 240.13,-222.295 -157.12,0 c 0,-32.656 -20.77,-148.273 -47.46,-201.625 26.69,-8.879 69.71,-32.629 96.38,-53.359 23.72,20.769 117.08,136.371 108.2,254.984 z m -198.62,0 -183.806,0 0,-148.984 c 29.621,-2.981 105.966,-21.493 139.316,-37.821 11.86,32.602 47.45,136.375 44.49,186.805 z m 62.24,-278.703 c -11.85,11.848 -62.24,41.508 -77.07,47.43 -11.85,-29.633 -62.25,-124.512 -80.05,-139.332 38.55,14.82 97.84,44.441 157.12,91.902 z m -121.55,59.269 c -29.66,11.86 -80.05,29.649 -124.496,32.629 l 0,-189.75 c 5.911,0 29.621,0 29.621,0 14.825,14.828 83.015,112.668 94.875,157.121"
         inkscape:connector-curvature="0" /></g></g></svg>