<?xml version="1.0" encoding="UTF-8" standalone="no"?>
<!-- Created with Inkscape (http://www.inkscape.org/) -->

<svg
   xmlns:dc="http://purl.org/dc/elements/1.1/"
   xmlns:cc="http://creativecommons.org/ns#"
   xmlns:rdf="http://www.w3.org/1999/02/22-rdf-syntax-ns#"
   xmlns:svg="http://www.w3.org/2000/svg"
   xmlns="http://www.w3.org/2000/svg"
   xmlns:sodipodi="http://sodipodi.sourceforge.net/DTD/sodipodi-0.dtd"
   xmlns:inkscape="http://www.inkscape.org/namespaces/inkscape"
   version="1.1"
   width="150"
   height="150"
   id="svg3210"
   inkscape:version="0.91 r"
   sodipodi:docname="bid.svg">
  <sodipodi:namedview
     pagecolor="#ffffff"
     bordercolor="#666666"
     borderopacity="1"
     objecttolerance="10"
     gridtolerance="10"
     guidetolerance="10"
     inkscape:pageopacity="0"
     inkscape:pageshadow="2"
     inkscape:window-width="975"
     inkscape:window-height="582"
     id="namedview3760"
     showgrid="false"
     inkscape:zoom="0.45555556"
     inkscape:cx="470.30488"
     inkscape:cy="225.63034"
     inkscape:window-x="49"
     inkscape:window-y="18"
     inkscape:window-maximized="1"
     inkscape:current-layer="svg3210"
     inkscape:showpageshadow="true"
     showborder="true"
     borderlayer="true" />
  <defs
     id="defs3212" />
  <metadata
     id="metadata3215">
    <rdf:RDF>
      <cc:Work
         rdf:about="">
        <dc:format>image/svg+xml</dc:format>
        <dc:type
           rdf:resource="http://purl.org/dc/dcmitype/StillImage" />
        <dc:title></dc:title>
      </cc:Work>
    </rdf:RDF>
  </metadata>
  <g
     id="g4591"
     transform="matrix(0.375,0,0,0.37409889,-72.896349,-75.22495)"
     inkscape:export-xdpi="90.000008"
     inkscape:export-ydpi="90.000008">
    <g
       transform="matrix(0.80502255,0,0,0.78469269,103.6485,182.06851)"
       id="g4057">
      <path
         d="m 360.97748,28.741823 13.2405,0.92958 13.1442,1.23396 13.1437,1.38615 13.145,1.69876 13.0445,2.00313 13.0487,2.31573 13.0444,2.46793 12.8535,2.62422 12.949,3.08491 12.7537,3.2412 12.7538,3.54559 12.6583,3.70599 12.6541,4.01038 12.4631,4.31887 12.463,4.47516 12.3634,4.62736 1.2667,275.704067 -0.6811,10.3406 -1.167,10.48867 -1.5615,10.33649 -2.1388,10.33648 -2.5333,10.1843 -3.0192,10.028 -3.4054,9.8758 -3.9911,9.8717 -2.7285,7.25158 -3.2102,7.09939 -3.5051,6.78679 -3.9952,6.78679 -4.3814,6.48241 -4.7676,6.16981 -5.0624,5.86543 -5.4529,5.55283 -5.7436,5.24434 -3.0192,2.62422 -6.2336,4.62736 -3.2102,2.31573 -3.2144,2.15944 -3.3099,2.00724 -3.4055,2.00313 -3.5051,1.85094 -7.0102,3.39751 -3.6048,1.54245 -3.6006,1.38616 -3.7003,1.39026 -3.7003,1.23396 -5.158,2.46792 -10.5153,4.31887 -5.3574,2.00724 -5.4528,1.85095 -5.3532,1.85094 -5.5484,1.54245 -5.4528,1.54245 -5.5484,1.23397 -5.6489,1.23396 -5.5492,1.08177 -5.6472,0.92547 -5.6468,0.77328 -5.7444,0.61698 -5.6472,0.46068 -5.744,0.30849 -5.6472,0.30849 -5.7444,0 -11.3912,-0.30849 -5.7443,-0.30849 -11.2936,-1.23396 -5.6468,-0.76917 -5.6472,-0.92547 -5.6468,-1.08177 -5.5497,-1.08177 -5.5496,-1.38616 -5.5496,-1.54245 -5.452,-1.54245 -5.4525,-1.69875 -5.3548,-2.00725 -58.41654,-32.55191 -6.03634,-6.16981 -5.7444,-6.6346 -5.45202,-6.6346 -5.16048,-7.09939 -4.8677,-7.09528 -4.47898,-7.40788 -4.18661,-7.71226 -3.89425,-7.71227 -3.50469,-7.86856 -3.11597,-8.17705 -2.8232,-8.17705 -2.43405,-8.33336 -2.14211,-8.32924 -1.65496,-8.48554 -1.363,-8.64185 -0.97387,-8.48554 0,-300.083037 8.17845,-3.0849 8.17844,-2.93272 8.27563,-2.77641 8.37323,-2.62012 8.27521,-2.62422 8.37322,-2.46793 8.47041,-2.31573 8.37322,-2.15943 7.69172,-2.15944 7.6913,-2.00724 7.69131,-1.85094 7.78931,-1.69464 15.57742,-3.08902 7.7889,-1.38615 7.8865,-1.23396 7.7889,-1.08178 15.7721,-1.85094 7.9837,-0.76917 15.7726,-0.92958 7.9836,-0.46068 7.8865,-0.1563 z"
         id="path3022"
         style="fill:#ffff00;stroke:none"
         inkscape:connector-curvature="0" />
      <path
         d="m 330.30828,42.475813 6.6206,-0.77328 6.6207,-0.46068 6.6207,-0.30849 6.6202,0 6.6207,0.30849 6.6206,0.46068 6.6207,0.92547 6.5231,0.92547 21.8089,2.46792 10.9049,1.54657 10.806,1.69464 10.8061,1.85094 10.8101,2.00725 21.4169,4.62735 10.615,2.62423 10.6109,2.77641 10.6108,2.93272 10.5153,3.0849 20.8355,6.78679 10.3201,3.70189 10.2247,3.705987 1.2666,266.44525 -0.5856,9.8758 -1.0714,9.71951 -1.5574,9.87581 -1.9477,9.5632 -2.4337,9.56732 -2.824,9.41101 -3.3099,9.41102 -3.6006,9.10252 -0.3904,0.92547 -2.5333,6.4783 -2.8241,6.48241 -3.2102,6.16981 -3.6048,6.01762 -3.991,5.86132 -4.2817,5.55694 -4.5766,5.40064 -4.8673,5.08803 -5.2576,4.63147 -5.4529,4.47106 -5.648,4.16668 -5.9388,3.70188 -6.2294,3.5497 -6.3292,3.0849 -3.2144,1.39026 -6.6198,2.46793 -3.3099,1.08177 -0.976,0.30849 -0.7766,0.46068 -9.7345,4.31887 -4.967,2.00724 -4.967,1.85094 -5.0624,1.85095 -5.158,1.54245 -5.0625,1.54245 -5.1621,1.39026 -5.2577,1.23397 -5.1597,1.08177 -5.2572,1.07766 -5.2577,0.77328 -5.3548,0.76917 -5.2577,0.61698 -5.3544,0.46479 -10.7101,0.61698 -10.7097,0 -5.2572,-0.1563 -5.3549,-0.46068 -5.3552,-0.30849 -5.3549,-0.61698 -10.5149,-1.54245 -10.5149,-2.15943 -5.1601,-1.23396 -10.3201,-2.78053 -5.1605,-1.69464 -4.9653,-1.69876 -55.88528,-31.16576 -5.45203,-5.70912 -5.25766,-6.16981 -4.86811,-6.16981 -4.77052,-6.48241 -4.38139,-6.6346 -4.08902,-6.78679 -3.79706,-6.9431 -3.50511,-7.09528 -3.21274,-7.40788 -2.92078,-7.40377 -2.53166,-7.40788 -2.23928,-7.71226 -1.94733,-7.71638 -1.55736,-7.71226 -1.26583,-7.86856 -0.87627,-7.86856 0,-290.363537 14.21437,-4.93584 14.31239,-4.62736 9.15191,-2.93272 9.2495,-2.46792 100.96296,-20.05599 z"
         id="path3024"
         style="fill:#00ffff;stroke:none"
         inkscape:connector-curvature="0" />
      <path
         d="m 215.31658,66.529843 4.77924,-1.53012 9.24908,-2.46792 95.30528,-18.93308 0,3.50445 -9.5551,8.71999 -5.175,8.37449 0,8.72411 5.175,4.18313 7.1664,0 7.1663,-4.18313 2.388,0 5.1762,6.62637 2.3884,2.093627 3.5832,-0.69514 0.3979,-5.236107 -1.5927,-7.32562 2.7871,-6.28086 -2.7871,-8.72411 4.7776,-4.18724 7.9625,0 4.7775,4.18724 4.7772,4.53686 7.5642,-4.53686 3.1845,1.04887 4.3798,5.58162 2.3883,3.13837 6.3703,3.14249 3.5832,4.53687 0,6.27675 2.3879,0 7.1668,4.536867 4.7772,4.53686 0.3978,4.88238 -4.3789,1.744 -2.7866,-0.34551 0,-6.28087 -5.1763,1.04476 -3.1841,2.09362 -1.5926,5.58573 2.3888,2.09362 7.5642,0 -4.3793,3.83762 -4.7776,1.04476 -5.972,-0.69925 -4.7771,4.88649 -5.1755,15.00086 -2.3888,17.44822 -2.7866,6.62638 -9.5548,10.81773 -3.981,4.88649 -0.7965,4.18313 0,7.67935 -1.5927,2.78876 -5.1754,0.69924 -0.7957,-3.14249 -1.5927,-3.488 -0.7965,-7.32562 -5.1755,-4.18724 -5.1754,0 -7.1664,4.18724 -5.5737,2.78876 -9.5543,0 -6.7681,-0.34551 -5.1755,3.13837 -1.5922,6.28087 -1.1944,5.93124 1.9905,10.11849 3.1849,7.32562 7.5643,2.09362 5.175,-2.09362 3.9814,-2.09362 5.5737,0.69924 2.7867,3.13838 4.3789,6.98011 5.1762,1.04475 3.9811,2.09362 0,4.18725 -1.5927,7.32973 0,6.976 2.3884,3.83762 4.7776,0.34962 7.9625,-5.23611 3.1853,-0.34551 4.7767,1.39438 4.4591,2.93271 1.9112,-0.83909 2.7866,-4.18725 17.5173,-6.63048 3.981,-1.39438 3.9815,-0.34962 2.3883,1.04886 -1.1944,2.78876 1.1944,2.79286 1.5927,-3.48799 5.9716,-1.744 7.1638,0.34551 19.5107,4.53686 5.1746,4.18725 5.1746,4.18724 12.3427,4.88649 6.3706,3.83762 3.5799,5.58162 0,4.88237 -2.388,5.23611 -5.1746,6.28087 6.7694,-3.83762 5.9719,-2.44325 3.5799,0 3.584,1.744 2.7867,5.93125 2.3879,1.744 3.1853,1.04475 9.1573,0.34962 9.556,1.04887 5.1746,1.04475 8.7587,5.93125 5.1746,7.32973 3.9827,3.83762 1.196,2.43913 0.7932,2.09362 -5.5733,16.04973 -1.9892,3.83762 -8.36,9.77298 -3.9827,3.13837 -14.3319,10.46811 -0.7973,2.44325 -0.7933,4.18313 -1.9934,2.09773 -9.1573,6.62638 -11.1466,5.23199 -1.9892,1.39849 -1.5906,3.13838 -1.9935,4.18724 -0.7973,1.39438 -10.7479,13.96022 -1.5906,1.39438 -10.3534,5.232 -1.9892,1.04886 -3.1854,3.488 -1.9892,3.488 0,3.488 -0.7974,3.14249 -1.9893,1.744 -3.9827,1.744 -6.3707,1.74399 -9.5518,4.18725 -12.7409,7.67524 -7.5646,6.28087 -7.9621,7.32561 -8.3608,13.96022 -3.1845,9.41925 0,13.25686 -5.1754,-7.67524 -2.7867,-5.232 -1.9909,-9.07373 4.7776,-6.63049 -0.3983,-5.232 0.3983,-3.13837 2.7866,-2.44325 5.1755,-4.18724 -6.7677,0 -3.1853,-2.44325 1.9909,-12.2121 1.1944,-10.11849 6.7677,-16.04973 4.7771,-9.41924 6.7685,-10.11849 3.185,-7.32562 0.7957,-9.42335 -1.194,-6.62637 -1.9905,-9.76887 -7.1664,-14.30573 -5.5733,-5.58162 -7.5642,-4.88649 -7.166,-5.58162 -4.3793,-10.81773 0.3983,-6.27675 -0.797,-4.88649 -4.7775,-2.09362 -3.1841,-3.488 -2.3892,-7.32973 1.1944,-4.53275 2.7866,-4.18725 11.1478,-11.16735 2.3884,-8.37037 -4.7772,-4.53687 -3.5831,-0.34962 -1.1944,2.09362 -5.1751,4.53687 -2.3887,0.34551 -2.3892,-0.34551 -10.7492,-5.93125 -14.7302,-13.61059 -9.1564,-2.09363 -8.3608,-1.04475 -7.9621,-7.67524 -5.972,-3.488 -7.962,-0.34962 -9.55477,-0.69925 -15.12845,-8.37448 -9.95302,-19.88735 -4.77716,-20.93211 -2.78665,-0.69924 -2.38879,0 0,4.18724 0,4.18724 5.17544,6.63049 0.39785,3.13838 -0.39785,1.39437 2.38837,6.63049 0,4.18725 -2.38837,-4.18725 -1.99094,-4.53686 -5.57329,-7.32562 -3.98103,-5.93125 -0.79654,-5.58162 -1.59225,-6.63048 0,0 -3.98146,-5.232 -7.16595,-15.00498 0,-6.28086 2.78664,-17.44411 0,-5.58162 0,-7.32973 -2.78664,-6.976 2.78664,-0.69924 2.78748,2.09362 2.78664,-1.39438 -3.98145,-8.024857 -1.59267,-7.32562 -2.63838,-4.2983 z"
         id="path3028"
         style="fill:#00ff00;stroke:none"
         inkscape:connector-curvature="0" />
      <path
         d="m 387.06978,462.12563 3.2132,0.30849 48.971,-304.2456 12.3676,2.15943 -55.2047,303.78492 1.5574,0.46068 77.693,-299.30975 11.6864,2.46792 -83.8294,297.7673 2.2393,1.23396 101.7404,-292.98364 12.0727,4.01038 -108.5546,290.51571 2.2385,0.92959 130.6566,-282.18648 12.0727,4.93585 -137.4717,279.71855 1.9478,1.85094 141.2716,-236.82604 1.167,14.19467 -137.2806,226.64175 2.2384,1.54245 132.023,-188.2244 2.7285,12.65222 -129.199,180.35584 2.143,2.15943 127.5419,-148.5731 2.0433,10.18018 -125.3035,141.78632 1.5573,2.46792 115.9593,-108.15263 -1.5573,12.50003 -110.7972,101.51803 0.8763,1.54245 102.5203,-82.38751 -11.1964,18.36135 -88.014,70.66077 1.3622,3.54969 1.0715,3.54559 0.8762,3.70188 0.6811,3.706 -5.0624,2.15943 -10.3202,3.70189 -5.1621,1.69875 -10.5154,3.08491 -5.3531,1.38615 -10.7101,2.16354 -5.4525,0.92547 -5.3548,0.76917 -5.452,0.77329 -10.9045,0.92547 -5.5496,0.30849 -5.452,0.15219 -5.4525,0 -5.5496,-0.15219 -5.452,-0.30849 -10.9049,-0.92547 -5.452,-0.61699 -5.452,-0.77328 -5.3549,-0.92547 -5.4524,-1.07766 -5.3549,-1.23807 -5.2576,-1.23397 -5.3549,-1.54245 -5.16,-1.54245 -5.2577,-1.69464 -5.1597,-1.85506 -5.1604,-2.00313 0.7791,-3.85818 0.9734,-3.70189 1.2658,-3.85819 1.4602,-3.54969 -86.45655,-73.28499 -10.80686,-18.51354 100.76851,85.16804 1.6554,-2.47204 -110.40759,-106.45387 -1.26582,-12.65223 115.95721,113.24478 1.655,-1.85094 -125.49829,-142.2511 1.94733,-10.18019 128.61386,147.18695 2.1416,-2.00724 -130.07438,-177.57943 1.16865,-15.73712 134.55303,188.68919 2.434,-1.69875 -137.86331,-228.3405 3.11556,-17.27958 140.97885,241.76189 1.8498,-0.92547 -133.48197,-281.1047 11.87834,-5.09215 127.05603,283.57674 2.3365,-1.39026 -105.24715,-290.98052 12.16987,-3.70188 99.11358,292.67515 2.2393,-0.76917 -78.27814,-298.84907 12.46225,-2.62011 71.65749,299.61824 3.2131,-0.92547 -50.0437,-303.63273 12.3646,-1.85095 41.7681,305.01889 3.6027,-0.61699 -20.1539,-307.02201 10.4177,-0.92547 20.0564,306.40503 2.9208,0.1563 2.8236,0.15219 -3.2132,-307.33461 9.8334,-0.15219 2.3369,307.9516 2.9208,0.30849 19.9588,-307.48681 13.0465,1.23396 -27.7481,307.02202 z"
         id="path3030"
         style="fill:#ffff00;stroke:none"
         inkscape:connector-curvature="0" />
    </g>
    <rect
       y="203.65851"
       x="195.9512"
       height="400"
       width="400"
       id="rect3789"
       style="fill:none;fill-opacity:1" />
  </g>
</svg>
