<?xml version="1.0" encoding="UTF-8" standalone="no"?>
<!-- Created with Inkscape (http://www.inkscape.org/) -->

<svg
   xmlns:dc="http://purl.org/dc/elements/1.1/"
   xmlns:cc="http://creativecommons.org/ns#"
   xmlns:rdf="http://www.w3.org/1999/02/22-rdf-syntax-ns#"
   xmlns:svg="http://www.w3.org/2000/svg"
   xmlns="http://www.w3.org/2000/svg"
   xmlns:sodipodi="http://sodipodi.sourceforge.net/DTD/sodipodi-0.dtd"
   xmlns:inkscape="http://www.inkscape.org/namespaces/inkscape"
   id="svg3355"
   version="1.1"
   inkscape:version="0.91 r13725"
   xml:space="preserve"
   width="150"
   height="150"
   viewBox="0 0 150 150"
   sodipodi:docname="ccm.svg"><metadata
     id="metadata3361"><rdf:RDF><cc:Work
         rdf:about=""><dc:format>image/svg+xml</dc:format><dc:type
           rdf:resource="http://purl.org/dc/dcmitype/StillImage" /><dc:title></dc:title></cc:Work></rdf:RDF></metadata><defs
     id="defs3359" /><sodipodi:namedview
     pagecolor="#ffffff"
     bordercolor="#666666"
     borderopacity="1"
     objecttolerance="10"
     gridtolerance="10"
     guidetolerance="10"
     inkscape:pageopacity="0"
     inkscape:pageshadow="2"
     inkscape:window-width="975"
     inkscape:window-height="582"
     id="namedview3357"
     showgrid="false"
     inkscape:zoom="1.8717576"
     inkscape:cx="120.475"
     inkscape:cy="120.475"
     inkscape:window-x="49"
     inkscape:window-y="18"
     inkscape:window-maximized="1"
     inkscape:current-layer="g3363" /><g
     id="g3363"
     inkscape:groupmode="layer"
     inkscape:label="ink_ext_XXXXXX"
     transform="matrix(1.25,0,0,-1.25,0,150)"><g
       id="g3365"
       transform="scale(0.06225487,0.06225487)"><path
         d="m 0,0 1927.56,0 0,1927.56 L 0,1927.56 0,0 Z"
         style="fill:#ffffff;fill-opacity:1;fill-rule:evenodd;stroke:none"
         id="path3367"
         inkscape:connector-curvature="0" /><path
         d="m 950.66,1174.86 -285.336,0 0,-422.157 596.916,0 0,422.157 -311.58,0 0,0 z m 150.63,-343.911 c -38.18,-20.613 -85.27,-29.75 -128.841,-29.75 -7.265,0 -14.527,0.231 -21.789,0.699 -33.031,2.344 -65.828,9.606 -95.113,23.43 -39.356,18.274 -69.813,54.113 -86.211,93.707 -7.496,18.035 -21.316,34.438 -39.356,43.106 18.04,8.664 33.032,24.129 39.594,42.869 13.348,39.36 43.106,73.33 80.586,91.6 31.16,15 65.828,23.43 100.5,24.37 1.875,0 3.75,0 5.621,0 26.004,0 54.349,-4.69 78.489,-13.36 8.89,-3.05 19.2,-7.26 27.4,-12.89 3.05,-2.1 6.79,-3.74 10.54,-3.74 7.03,0 13.59,4.45 15.93,10.78 l 79.42,0 0,-127.45 -97.69,-0.234 0,0 c -5.85,30.224 -27.87,55.754 -56.93,64.894 -11.01,3.28 -23.889,5.15 -35.838,5.15 -8.903,0 -18.274,-1.17 -26.942,-3.27 -0.933,-0.24 -1.871,-0.24 -2.812,-0.47 -19.207,-4.69 -36.778,-17.81 -45.68,-35.61 -6.563,-12.889 -9.84,-28.819 -9.84,-43.342 0,-13.122 2.813,-27.18 7.731,-39.36 8.668,-16.863 24.363,-30.922 42.636,-36.777 2.578,-0.703 5.153,-1.641 7.965,-2.106 7.965,-1.875 16.633,-3.05 24.832,-3.05 20.149,0 40.998,6.093 57.398,17.339 15.7,10.774 28.11,27.879 35.38,45.211 l 0,0 102.84,-24.132 0,0 c -12.42,-35.141 -36.55,-69.809 -69.82,-87.614 l 0,0"
         style="fill:#ed1c24;fill-opacity:1;fill-rule:evenodd;stroke:none"
         id="path3369"
         inkscape:connector-curvature="0" /><path
         d="m 313.684,1174.86 -285.3363,0 0,-422.157 597.1483,0 0,422.157 -311.812,0 0,0 z M 464.789,830.949 c -38.187,-20.613 -85.273,-29.75 -128.848,-29.75 -7.496,0 -14.757,0.231 -22.257,0.699 -32.797,2.344 -65.594,9.606 -94.879,23.43 -39.356,18.274 -69.809,54.113 -86.207,93.707 -7.496,18.035 -21.555,34.438 -39.3597,43.106 17.8047,8.664 33.0347,24.129 39.5937,42.869 13.356,39.36 43.102,73.33 80.586,91.6 31.16,15 65.832,23.43 100.266,24.37 1.875,0 3.75,0 5.625,0 26.238,0 54.586,-4.69 78.714,-13.36 8.903,-3.05 19.446,-7.26 27.645,-12.89 2.809,-2.1 6.555,-3.74 10.539,-3.74 7.031,0 13.59,4.45 15.93,10.78 l 79.183,0 0,-127.45 -97.691,-0.234 0,0 c -5.856,30.224 -27.875,55.754 -56.926,64.894 -10.777,3.28 -23.894,5.15 -35.605,5.15 -9.141,0 -18.508,-1.17 -27.414,-3.27 -0.934,-0.24 -1.871,-0.24 -2.813,-0.47 -19.207,-4.69 -36.543,-17.81 -45.68,-35.61 -6.324,-12.889 -9.601,-28.819 -9.601,-43.342 0,-13.122 2.808,-27.18 7.73,-39.36 8.664,-16.863 24.364,-30.922 42.633,-36.777 2.344,-0.703 5.156,-1.641 7.731,-2.106 8.203,-1.875 16.871,-3.05 25.066,-3.05 20.383,0 41,6.093 57.633,17.339 15.465,10.774 28.109,27.879 35.137,45.211 l 0,0 102.843,-24.132 0,0 C 522.184,883.422 497.82,848.754 464.789,830.949 l 0,0"
         style="fill:#ed1c24;fill-opacity:1;fill-rule:evenodd;stroke:none"
         id="path3371"
         inkscape:connector-curvature="0" /><path
         d="m 1604.74,1174.86 -302.91,0 0,-422.157 597.38,0 0,422.157 -294.47,0 0,0 z m 250.43,-149.7 -25.53,0 0,-134.004 25.53,0 0,-81.058 -167.97,0 0,81.058 25.53,0 0,106.828 -79.64,-187.886 -89.03,0 -73.33,187.886 0,-106.828 19.45,0 0,-81.058 -135.64,0 0,81.058 36.55,0 0,134.004 -36.55,0 0,76.61 194.67,0 55.53,-129.09 6.32,-14.289 57.87,143.379 186.24,0 0,-76.61"
         style="fill:#2b4ea2;fill-opacity:1;fill-rule:evenodd;stroke:none"
         id="path3373"
         inkscape:connector-curvature="0" /></g></g></svg>