<?xml version="1.0" encoding="UTF-8" standalone="no"?>
<!-- Created with Inkscape (http://www.inkscape.org/) -->

<svg
   xmlns:dc="http://purl.org/dc/elements/1.1/"
   xmlns:cc="http://creativecommons.org/ns#"
   xmlns:rdf="http://www.w3.org/1999/02/22-rdf-syntax-ns#"
   xmlns:svg="http://www.w3.org/2000/svg"
   xmlns="http://www.w3.org/2000/svg"
   xmlns:sodipodi="http://sodipodi.sourceforge.net/DTD/sodipodi-0.dtd"
   xmlns:inkscape="http://www.inkscape.org/namespaces/inkscape"
   id="svg3366"
   version="1.1"
   inkscape:version="0.91 r"
   xml:space="preserve"
   width="150"
   height="150"
   viewBox="0 0 150 150"
   sodipodi:docname="fontur.svg"><metadata
     id="metadata3372"><rdf:RDF><cc:Work
         rdf:about=""><dc:format>image/svg+xml</dc:format><dc:type
           rdf:resource="http://purl.org/dc/dcmitype/StillImage" /><dc:title></dc:title></cc:Work></rdf:RDF></metadata><defs
     id="defs3370"><clipPath
       clipPathUnits="userSpaceOnUse"
       id="clipPath3388"><path
         d="M 0,600 800,600 800,0 0,0 0,600 Z"
         id="path3390"
         inkscape:connector-curvature="0" /></clipPath></defs><sodipodi:namedview
     pagecolor="#ffffff"
     bordercolor="#666666"
     borderopacity="1"
     objecttolerance="10"
     gridtolerance="10"
     guidetolerance="10"
     inkscape:pageopacity="0"
     inkscape:pageshadow="2"
     inkscape:window-width="975"
     inkscape:window-height="582"
     id="namedview3368"
     showgrid="false"
     inkscape:zoom="3.0066667"
     inkscape:cx="-58.037694"
     inkscape:cy="75"
     inkscape:window-x="49"
     inkscape:window-y="18"
     inkscape:window-maximized="1"
     inkscape:current-layer="g3374" /><g
     id="g3374"
     inkscape:groupmode="layer"
     inkscape:label="fontur"
     transform="matrix(1.25,0,0,-1.25,0,150)"><g
       id="g3582"
       transform="matrix(0.27079906,0,0,0.27079906,-48.092268,-21.457967)"><path
         inkscape:connector-curvature="0"
         id="path3376"
         style="fill:#ffffff;fill-opacity:1;fill-rule:nonzero;stroke:none"
         d="m 615.378,183.023 -432.039,0 0,332.824 432.039,0 0,-332.824 z" /><path
         inkscape:connector-curvature="0"
         id="path3378"
         style="fill:#000000;fill-opacity:1;fill-rule:nonzero;stroke:none"
         d="m 188.887,188.57 420.944,0 0,321.73 -420.944,0 0,-321.73 z m 432.038,-11.093 -443.133,0 0,343.918 443.133,0 0,-343.918 z" /><g
         transform="translate(179.0996,160.25)"
         id="g3380"><path
           inkscape:connector-curvature="0"
           id="path3382"
           style="fill:#000000;fill-opacity:1;fill-rule:nonzero;stroke:none"
           d="m 0,0 55.973,0 0,-13.784 -39.686,0 0,-18.048 34.797,0 0,-13.669 -34.797,0 0,-32.897 L 0,-78.398 0,0 Z" /></g><g
         id="g3384"><g
           clip-path="url(#clipPath3388)"
           id="g3386"><g
             transform="translate(296.1533,100.7793)"
             id="g3392"><path
               inkscape:connector-curvature="0"
               id="path3394"
               style="fill:#000000;fill-opacity:1;fill-rule:nonzero;stroke:none"
               d="m 0,0 c 3.823,4.772 5.734,11.607 5.734,20.457 0,8.78 -1.911,15.615 -5.734,20.434 -3.823,4.772 -8.966,7.205 -15.464,7.205 -6.487,0 -11.7,-2.409 -15.557,-7.205 -3.881,-4.773 -5.804,-11.608 -5.804,-20.434 0,-8.85 1.923,-15.685 5.804,-20.457 3.857,-4.818 9.07,-7.205 15.557,-7.205 6.498,0 11.641,2.387 15.464,7.205 m 10.275,-11.954 c -5.931,-6.093 -14.538,-9.151 -25.739,-9.151 -11.225,0 -19.808,3.058 -25.728,9.151 -7.958,7.483 -11.943,18.302 -11.943,32.411 0,14.387 3.985,25.16 11.943,32.365 5.92,6.093 14.503,9.174 25.728,9.174 11.201,0 19.808,-3.081 25.739,-9.174 7.9,-7.205 11.862,-17.978 11.862,-32.365 0,-14.109 -3.962,-24.928 -11.862,-32.411" /></g><g
             transform="translate(330.7539,160.3662)"
             id="g3396"><path
               inkscape:connector-curvature="0"
               id="path3398"
               style="fill:#000000;fill-opacity:1;fill-rule:nonzero;stroke:none"
               d="m 0,0 17.19,0 31.184,-54.745 0,54.745 15.302,0 0,-78.515 -16.426,0 -31.948,55.718 0,-55.718 L 0,-78.515 0,0 Z" /></g><g
             transform="translate(466.7578,160.3662)"
             id="g3400"><path
               inkscape:connector-curvature="0"
               id="path3402"
               style="fill:#000000;fill-opacity:1;fill-rule:nonzero;stroke:none"
               d="m 0,0 0,-13.9 -23.479,0 0,-64.615 -16.507,0 0,64.615 -23.608,0 0,13.9 L 0,0 Z" /></g><g
             transform="translate(476.5586,160.3662)"
             id="g3404"><path
               inkscape:connector-curvature="0"
               id="path3406"
               style="fill:#000000;fill-opacity:1;fill-rule:nonzero;stroke:none"
               d="m 0,0 16.691,0 0,-48.212 c 0,-5.397 0.626,-9.336 1.901,-11.815 1.992,-4.402 6.312,-6.603 12.962,-6.603 6.602,0 10.912,2.201 12.892,6.603 1.298,2.479 1.9,6.418 1.9,11.815 l 0,48.212 16.658,0 0,-48.258 c 0,-8.341 -1.252,-14.827 -3.869,-19.507 C 54.339,-76.29 45.13,-80.554 31.554,-80.554 17.967,-80.554 8.769,-76.29 3.881,-67.765 1.32,-63.085 0,-56.599 0,-48.258 L 0,0 Z" /></g><g
             transform="translate(571.6602,146.7441)"
             id="g3408"><path
               inkscape:connector-curvature="0"
               id="path3410"
               style="fill:#000000;fill-opacity:1;fill-rule:nonzero;stroke:none"
               d="m 0,0 0,-21.106 17.666,0 c 3.486,0 6.116,0.44 7.877,1.274 3.093,1.506 4.656,4.472 4.656,8.85 0,4.773 -1.494,7.97 -4.494,9.591 C 24.002,-0.464 21.488,0 18.105,0 L 0,0 Z m 33.906,11.606 c 2.873,-1.251 5.364,-3.057 7.344,-5.491 1.656,-1.992 2.988,-4.17 3.95,-6.602 0.986,-2.409 1.472,-5.166 1.472,-8.247 0,-3.754 -0.962,-7.391 -2.826,-11.005 -1.877,-3.615 -4.993,-6.163 -9.326,-7.646 3.615,-1.459 6.186,-3.498 7.68,-6.209 1.518,-2.664 2.271,-6.787 2.271,-12.278 l 0,-5.282 c 0,-3.569 0.174,-6 0.451,-7.275 0.44,-2.039 1.437,-3.545 3.023,-4.471 l 0,-1.993 -18.117,0 c -0.486,1.761 -0.856,3.151 -1.088,4.194 -0.406,2.224 -0.637,4.47 -0.672,6.764 l -0.116,7.322 c -0.069,5.027 -0.927,8.34 -2.583,10.008 -1.656,1.667 -4.762,2.501 -9.348,2.501 l -16.021,0 0,-30.789 -16.055,0 0,78.515 37.567,0 c 5.398,-0.116 9.509,-0.788 12.394,-2.016" /></g><g
             transform="translate(483.1152,251.1133)"
             id="g3412"><path
               inkscape:connector-curvature="0"
               id="path3414"
               style="fill:#f07122;fill-opacity:1;fill-rule:nonzero;stroke:none"
               d="m 0,0 c 0,-8.688 -7.055,-15.708 -15.72,-15.708 l -150.252,0 c -8.688,0 -15.742,7.02 -15.742,15.708 l 0,226.832 c 0,8.677 7.054,15.696 15.742,15.696 l 150.252,0 C -7.055,242.528 0,235.509 0,226.832 L 0,0 Z" /></g><g
             transform="translate(483.1152,251.1133)"
             id="g3416"><path
               inkscape:connector-curvature="0"
               id="path3418"
               style="fill:none;stroke:#000000;stroke-width:13.65588093;stroke-linecap:butt;stroke-linejoin:miter;stroke-miterlimit:4;stroke-dasharray:none;stroke-opacity:1"
               d="m 0,0 c 0,-8.688 -7.055,-15.708 -15.72,-15.708 l -150.252,0 c -8.688,0 -15.742,7.02 -15.742,15.708 l 0,226.832 c 0,8.677 7.054,15.696 15.742,15.696 l 150.252,0 C -7.055,242.528 0,235.509 0,226.832 L 0,0 Z" /></g><path
             inkscape:connector-curvature="0"
             id="path3420"
             style="fill:#ffffff;fill-opacity:1;fill-rule:nonzero;stroke:none"
             d="m 474.624,364.31 -164.721,0 0,92.982 164.721,0 0,-92.982 z" /><path
             inkscape:connector-curvature="0"
             id="path3422"
             style="fill:#ffffff;fill-opacity:1;fill-rule:nonzero;stroke:none"
             d="m 436.432,464.068 -88.349,0 0,20.967 88.349,0 0,-20.967 z" /><g
             transform="translate(340.519,375.8813)"
             id="g3424"><path
               inkscape:connector-curvature="0"
               id="path3426"
               style="fill:#000000;fill-opacity:1;fill-rule:nonzero;stroke:none"
               d="m 0,0 0,31.833 c 0,3.162 -2.572,5.698 -5.711,5.698 l -9.997,0 c -3.139,0 -5.676,-2.536 -5.676,-5.698 L -21.384,0 0,0 Z" /></g><g
             transform="translate(339.5806,427.0928)"
             id="g3428"><path
               inkscape:connector-curvature="0"
               id="path3430"
               style="fill:#000000;fill-opacity:1;fill-rule:nonzero;stroke:none"
               d="m 0,0 c 0,-5.386 -4.367,-9.753 -9.776,-9.753 -5.364,0 -9.754,4.367 -9.754,9.753 0,5.421 4.39,9.789 9.754,9.789 C -4.367,9.789 0,5.421 0,0" /></g><g
             transform="translate(432.5742,428.5757)"
             id="g3432"><path
               inkscape:connector-curvature="0"
               id="path3434"
               style="fill:#000000;fill-opacity:1;fill-rule:nonzero;stroke:none"
               d="m 0,0 c 0,-5.386 -4.378,-9.777 -9.799,-9.777 -5.387,0 -9.742,4.391 -9.742,9.777 0,5.41 4.355,9.777 9.742,9.777 C -4.378,9.777 0,5.41 0,0" /></g><g
             transform="translate(430.4668,402.3271)"
             id="g3436"><path
               inkscape:connector-curvature="0"
               id="path3438"
               style="fill:#000000;fill-opacity:1;fill-rule:nonzero;stroke:none"
               d="m 0,0 c 0,-4.24 -3.464,-7.68 -7.691,-7.68 -4.194,0 -7.658,3.44 -7.658,7.68 0,4.228 3.464,7.691 7.658,7.691 C -3.464,7.691 0,4.228 0,0" /></g><g
             transform="translate(463.3418,428.5757)"
             id="g3440"><path
               inkscape:connector-curvature="0"
               id="path3442"
               style="fill:#000000;fill-opacity:1;fill-rule:nonzero;stroke:none"
               d="m 0,0 c 0,-5.386 -4.355,-9.777 -9.777,-9.777 -5.375,0 -9.766,4.391 -9.766,9.777 0,5.41 4.391,9.777 9.766,9.777 C -4.355,9.777 0,5.41 0,0" /></g><g
             transform="translate(433.4668,367.9233)"
             id="g3444"><path
               inkscape:connector-curvature="0"
               id="path3446"
               style="fill:#000000;fill-opacity:1;fill-rule:nonzero;stroke:none"
               d="m 0,0 0,16.217 c 0,3.162 -2.561,5.7 -5.688,5.7 l -9.973,0 c -3.163,0 -5.711,-2.538 -5.711,-5.7 L -21.372,0 0,0 Z" /></g><g
             transform="translate(345.7314,235.4053)"
             id="g3448"><path
               inkscape:connector-curvature="0"
               id="path3450"
               style="fill:#f6eb1a;fill-opacity:1;fill-rule:nonzero;stroke:none"
               d="m 0,0 0,85.048 -3.382,0 0,68.402 c 0,0 1.216,6.533 -5.85,6.533 l -34.821,0 -3.081,7.668 -28.368,0 -4.321,-7.668 -34.207,0 c 0,0 -6.765,0.58 -6.765,-4.946 l 0,-69.989 -5.572,0 0,-85.048 L 0,0 Z" /></g><g
             transform="translate(345.7314,235.4053)"
             id="g3452"><path
               inkscape:connector-curvature="0"
               id="path3454"
               style="fill:none;stroke:#ffffff;stroke-width:34.13970566;stroke-linecap:butt;stroke-linejoin:miter;stroke-miterlimit:4;stroke-dasharray:none;stroke-opacity:1"
               d="m 0,0 0,85.048 -3.382,0 0,68.402 c 0,0 1.216,6.533 -5.85,6.533 l -34.821,0 -3.081,7.668 -28.368,0 -4.321,-7.668 -34.207,0 c 0,0 -6.765,0.58 -6.765,-4.946 l 0,-69.989 -5.572,0 0,-85.048 L 0,0 Z" /></g><g
             transform="translate(574.8574,419.3086)"
             id="g3456"><path
               inkscape:connector-curvature="0"
               id="path3458"
               style="fill:#2a9081;fill-opacity:1;fill-rule:nonzero;stroke:none"
               d="m 0,0 c -1.436,6.985 -6.579,9.823 -10.946,9.823 l -33.361,0 -4.738,9.279 -36.13,0 -5.235,-9.279 -35.447,0 c 0,0 -10.356,-1.39 -11.097,-12.371 -0.023,-0.221 -4.332,-21.87 -4.332,-181.355 l 145.735,0 C 4.449,-183.903 1.9,-9.29 0,0" /></g><g
             transform="translate(574.8574,419.3086)"
             id="g3460"><path
               inkscape:connector-curvature="0"
               id="path3462"
               style="fill:none;stroke:#ffffff;stroke-width:34.13970566;stroke-linecap:butt;stroke-linejoin:miter;stroke-miterlimit:4;stroke-dasharray:none;stroke-opacity:1"
               d="m 0,0 c -1.436,6.985 -6.579,9.823 -10.946,9.823 l -33.361,0 -4.738,9.279 -36.13,0 -5.235,-9.279 -35.447,0 c 0,0 -10.356,-1.39 -11.097,-12.371 -0.023,-0.221 -4.332,-21.87 -4.332,-181.355 l 145.735,0 C 4.449,-183.903 1.9,-9.29 0,0 Z" /></g><g
             transform="translate(345.7314,235.4053)"
             id="g3464"><path
               inkscape:connector-curvature="0"
               id="path3466"
               style="fill:#f6eb1a;fill-opacity:1;fill-rule:nonzero;stroke:none"
               d="m 0,0 0,85.048 -3.382,0 0,68.402 c 0,0 1.216,6.533 -5.85,6.533 l -34.821,0 -3.081,7.668 -28.368,0 -4.321,-7.668 -34.207,0 c 0,0 -6.765,0.58 -6.765,-4.946 l 0,-69.989 -5.572,0 0,-85.048 L 0,0 Z" /></g><g
             transform="translate(345.7314,235.4053)"
             id="g3468"><path
               inkscape:connector-curvature="0"
               id="path3470"
               style="fill:none;stroke:#000000;stroke-width:13.65588093;stroke-linecap:butt;stroke-linejoin:miter;stroke-miterlimit:4;stroke-dasharray:none;stroke-opacity:1"
               d="m 0,0 0,85.048 -3.382,0 0,68.402 c 0,0 1.216,6.533 -5.85,6.533 l -34.821,0 -3.081,7.668 -28.368,0 -4.321,-7.668 -34.207,0 c 0,0 -6.765,0.58 -6.765,-4.946 l 0,-69.989 -5.572,0 0,-85.048 L 0,0 Z" /></g><g
             transform="translate(219.3647,229.7295)"
             id="g3472"><path
               inkscape:connector-curvature="0"
               id="path3474"
               style="fill:#000000;fill-opacity:1;fill-rule:nonzero;stroke:none"
               d="m 0,0 359.942,0.255 0,-7.506 -9.719,0 0,-16.982 -14.908,0 0,17.074 -95.682,0 0,-17.074 -14.746,0 0,16.959 -106.733,0 0,-16.959 -16.82,0 0,16.982 -76.869,0 0,-16.982 -14.955,0 0,16.982 -9.51,0 0,6 L 0,0 Z" /></g><g
             transform="translate(574.8574,419.3086)"
             id="g3476"><path
               inkscape:connector-curvature="0"
               id="path3478"
               style="fill:#2a9081;fill-opacity:1;fill-rule:nonzero;stroke:none"
               d="m 0,0 c -1.436,6.985 -6.579,9.823 -10.946,9.823 l -33.361,0 -4.738,9.279 -36.13,0 -5.235,-9.279 -35.447,0 c 0,0 -9.036,0.186 -11.097,-12.371 -0.034,-0.221 -4.332,-21.87 -4.332,-181.355 l 145.735,0 C 4.449,-183.903 1.9,-9.29 0,0" /></g><g
             transform="translate(574.8574,419.3086)"
             id="g3480"><path
               inkscape:connector-curvature="0"
               id="path3482"
               style="fill:none;stroke:#000000;stroke-width:13.65588093;stroke-linecap:butt;stroke-linejoin:miter;stroke-miterlimit:4;stroke-dasharray:none;stroke-opacity:1"
               d="m 0,0 c -1.436,6.985 -6.579,9.823 -10.946,9.823 l -33.361,0 -4.738,9.279 -36.13,0 -5.235,-9.279 -35.447,0 c 0,0 -9.036,0.186 -11.097,-12.371 -0.034,-0.221 -4.332,-21.87 -4.332,-181.355 l 145.735,0 C 4.449,-183.903 1.9,-9.29 0,0 Z" /></g><g
             transform="translate(445.1084,346.5166)"
             id="g3484"><path
               inkscape:connector-curvature="0"
               id="path3486"
               style="fill:#ffffff;fill-opacity:1;fill-rule:nonzero;stroke:none"
               d="m 0,0 122.694,0 0,70.174 -121.048,0 L 0,0 Z" /></g><g
             transform="translate(445.1084,346.5166)"
             id="g3488"><path
               inkscape:connector-curvature="0"
               id="path3490"
               style="fill:none;stroke:#000000;stroke-width:6.82794046;stroke-linecap:butt;stroke-linejoin:miter;stroke-miterlimit:4;stroke-dasharray:none;stroke-opacity:1"
               d="m 0,0 122.694,0 0,70.174 -121.048,0 L 0,0 Z" /></g><g
             transform="translate(475.2725,347.0029)"
             id="g3492"><path
               inkscape:connector-curvature="0"
               id="path3494"
               style="fill:#000000;fill-opacity:1;fill-rule:nonzero;stroke:none"
               d="m 0,0 0,28.925 c 0,3.139 -2.536,5.664 -5.699,5.664 l -9.962,0 c -3.139,0 -5.699,-2.525 -5.699,-5.664 L -21.36,0 0,0 Z" /></g><g
             transform="translate(474.3691,395.3076)"
             id="g3496"><path
               inkscape:connector-curvature="0"
               id="path3498"
               style="fill:#000000;fill-opacity:1;fill-rule:nonzero;stroke:none"
               d="m 0,0 c 0,-5.398 -4.391,-9.777 -9.8,-9.777 -5.375,0 -9.754,4.379 -9.754,9.777 0,5.409 4.379,9.776 9.754,9.776 C -4.391,9.776 0,5.409 0,0" /></g><g
             transform="translate(503.166,347.0029)"
             id="g3500"><path
               inkscape:connector-curvature="0"
               id="path3502"
               style="fill:#000000;fill-opacity:1;fill-rule:nonzero;stroke:none"
               d="m 0,0 0,28.925 c 0,3.139 -2.525,5.664 -5.676,5.664 l -9.985,0 c -3.14,0 -5.676,-2.525 -5.676,-5.664 L -21.337,0 0,0 Z" /></g><g
             transform="translate(502.2627,395.3076)"
             id="g3504"><path
               inkscape:connector-curvature="0"
               id="path3506"
               style="fill:#000000;fill-opacity:1;fill-rule:nonzero;stroke:none"
               d="m 0,0 c 0,-5.398 -4.39,-9.777 -9.765,-9.777 -5.41,0 -9.777,4.379 -9.777,9.777 0,5.409 4.367,9.776 9.777,9.776 C -4.39,9.776 0,5.409 0,0" /></g><g
             transform="translate(531.0713,347.0029)"
             id="g3508"><path
               inkscape:connector-curvature="0"
               id="path3510"
               style="fill:#000000;fill-opacity:1;fill-rule:nonzero;stroke:none"
               d="m 0,0 0,28.925 c 0,3.139 -2.525,5.664 -5.688,5.664 l -9.973,0 c -3.151,0 -5.688,-2.525 -5.688,-5.664 L -21.349,0 0,0 Z" /></g><g
             transform="translate(530.1797,395.3076)"
             id="g3512"><path
               inkscape:connector-curvature="0"
               id="path3514"
               style="fill:#000000;fill-opacity:1;fill-rule:nonzero;stroke:none"
               d="m 0,0 c 0,-5.398 -4.379,-9.777 -9.754,-9.777 -5.421,0 -9.8,4.379 -9.8,9.777 0,5.409 4.379,9.776 9.8,9.776 C -4.379,9.776 0,5.409 0,0" /></g><g
             transform="translate(558.9766,347.0029)"
             id="g3516"><path
               inkscape:connector-curvature="0"
               id="path3518"
               style="fill:#000000;fill-opacity:1;fill-rule:nonzero;stroke:none"
               d="m 0,0 0,28.925 c 0,3.139 -2.537,5.664 -5.699,5.664 l -9.986,0 c -3.128,0 -5.675,-2.525 -5.675,-5.664 L -21.36,0 0,0 Z" /></g><g
             transform="translate(558.0732,395.3076)"
             id="g3520"><path
               inkscape:connector-curvature="0"
               id="path3522"
               style="fill:#000000;fill-opacity:1;fill-rule:nonzero;stroke:none"
               d="m 0,0 c 0,-5.398 -4.367,-9.777 -9.776,-9.777 -5.399,0 -9.778,4.379 -9.778,9.777 0,5.409 4.379,9.776 9.778,9.776 C -4.367,9.776 0,5.409 0,0" /></g><path
             inkscape:connector-curvature="0"
             id="path3524"
             style="fill:#ffffff;fill-opacity:1;fill-rule:nonzero;stroke:#000000;stroke-width:6.82794046;stroke-linecap:butt;stroke-linejoin:miter;stroke-miterlimit:4;stroke-dasharray:none;stroke-opacity:1"
             d="m 230.81,388.855 106.327,0 0,-68.402 -106.327,0 0,68.402 z" /><g
             transform="translate(262.271,329.3262)"
             id="g3526"><path
               inkscape:connector-curvature="0"
               id="path3528"
               style="fill:#000000;fill-opacity:1;fill-rule:nonzero;stroke:none"
               d="m 0,0 0,12.302 c 0,3.128 -2.548,5.653 -5.676,5.653 l -10.009,0 c -3.127,0 -5.687,-2.525 -5.687,-5.653 L -21.372,0 0,0 Z" /></g><g
             transform="translate(261.437,361.0195)"
             id="g3530"><path
               inkscape:connector-curvature="0"
               id="path3532"
               style="fill:#000000;fill-opacity:1;fill-rule:nonzero;stroke:none"
               d="m 0,0 c 0,-5.421 -4.333,-9.776 -9.73,-9.776 -5.387,0 -9.789,4.355 -9.789,9.776 0,5.398 4.402,9.753 9.789,9.753 C -4.333,9.753 0,5.398 0,0" /></g><g
             transform="translate(294.1724,329.3262)"
             id="g3534"><path
               inkscape:connector-curvature="0"
               id="path3536"
               style="fill:#000000;fill-opacity:1;fill-rule:nonzero;stroke:none"
               d="m 0,0 0,12.302 c 0,3.128 -2.537,5.653 -5.676,5.653 l -10.032,0 c -3.104,0 -5.664,-2.525 -5.664,-5.653 L -21.372,0 0,0 Z" /></g><g
             transform="translate(293.3618,361.0195)"
             id="g3538"><path
               inkscape:connector-curvature="0"
               id="path3540"
               style="fill:#000000;fill-opacity:1;fill-rule:nonzero;stroke:none"
               d="m 0,0 c 0,-5.421 -4.355,-9.776 -9.777,-9.776 -5.386,0 -9.765,4.355 -9.765,9.776 0,5.398 4.379,9.753 9.765,9.753 C -4.355,9.753 0,5.398 0,0" /></g><g
             transform="translate(326.9775,329.3262)"
             id="g3542"><path
               inkscape:connector-curvature="0"
               id="path3544"
               style="fill:#000000;fill-opacity:1;fill-rule:nonzero;stroke:none"
               d="m 0,0 0,12.302 c 0,3.128 -2.537,5.653 -5.676,5.653 l -9.985,0 c -3.151,0 -5.665,-2.525 -5.665,-5.653 L -21.326,0 0,0 Z" /></g><g
             transform="translate(326.1899,361.0195)"
             id="g3546"><path
               inkscape:connector-curvature="0"
               id="path3548"
               style="fill:#000000;fill-opacity:1;fill-rule:nonzero;stroke:none"
               d="m 0,0 c 0,-5.421 -4.367,-9.776 -9.753,-9.776 -5.398,0 -9.777,4.355 -9.777,9.776 0,5.398 4.379,9.753 9.777,9.753 C -4.367,9.753 0,5.398 0,0" /></g><g
             transform="translate(371.3203,375.8813)"
             id="g3550"><path
               inkscape:connector-curvature="0"
               id="path3552"
               style="fill:#000000;fill-opacity:1;fill-rule:nonzero;stroke:none"
               d="m 0,0 0,31.833 c 0,3.162 -2.56,5.698 -5.699,5.698 l -9.986,0 c -3.15,0 -5.675,-2.536 -5.675,-5.698 L -21.36,0 0,0 Z" /></g><g
             transform="translate(370.4399,427.0928)"
             id="g3554"><path
               inkscape:connector-curvature="0"
               id="path3556"
               style="fill:#000000;fill-opacity:1;fill-rule:nonzero;stroke:none"
               d="m 0,0 c 0,-5.386 -4.391,-9.753 -9.789,-9.753 -5.409,0 -9.776,4.367 -9.776,9.753 0,5.421 4.367,9.789 9.776,9.789 C -4.391,9.789 0,5.421 0,0" /></g><g
             transform="translate(402.9668,375.8813)"
             id="g3558"><path
               inkscape:connector-curvature="0"
               id="path3560"
               style="fill:#000000;fill-opacity:1;fill-rule:nonzero;stroke:none"
               d="m 0,0 0,33.315 c 0,3.139 -2.561,5.687 -5.699,5.687 l -9.997,0 c -3.162,0 -5.687,-2.548 -5.687,-5.687 L -21.383,0 0,0 Z" /></g><g
             transform="translate(402.04,428.5757)"
             id="g3562"><path
               inkscape:connector-curvature="0"
               id="path3564"
               style="fill:#000000;fill-opacity:1;fill-rule:nonzero;stroke:none"
               d="m 0,0 c 0,-5.386 -4.378,-9.777 -9.776,-9.777 -5.387,0 -9.789,4.391 -9.789,9.777 0,5.41 4.402,9.777 9.789,9.777 C -4.378,9.777 0,5.41 0,0" /></g><g
             transform="translate(466.8281,261.168)"
             id="g3566"><path
               inkscape:connector-curvature="0"
               id="path3568"
               style="fill:none;stroke:#000000;stroke-width:6.61006737;stroke-linecap:butt;stroke-linejoin:miter;stroke-miterlimit:4;stroke-dasharray:none;stroke-opacity:1"
               d="m 0,0 c 0,-5.166 -4.205,-9.359 -9.359,-9.359 -5.178,0 -9.383,4.193 -9.383,9.359 0,5.166 4.205,9.336 9.383,9.336 C -4.205,9.336 0,5.166 0,0 Z" /></g><g
             transform="translate(565.7764,261.168)"
             id="g3570"><path
               inkscape:connector-curvature="0"
               id="path3572"
               style="fill:none;stroke:#000000;stroke-width:6.61006737;stroke-linecap:butt;stroke-linejoin:miter;stroke-miterlimit:4;stroke-dasharray:none;stroke-opacity:1"
               d="m 0,0 c 0,-5.166 -4.171,-9.359 -9.372,-9.359 -5.154,0 -9.359,4.193 -9.359,9.359 0,5.166 4.205,9.336 9.359,9.336 C -4.171,9.336 0,5.166 0,0 Z" /></g><g
             transform="translate(335.0283,259.5693)"
             id="g3574"><path
               inkscape:connector-curvature="0"
               id="path3576"
               style="fill:none;stroke:#000000;stroke-width:6.61006737;stroke-linecap:butt;stroke-linejoin:miter;stroke-miterlimit:4;stroke-dasharray:none;stroke-opacity:1"
               d="m 0,0 c 0,-5.189 -4.205,-9.383 -9.36,-9.383 -5.166,0 -9.336,4.194 -9.336,9.383 0,5.166 4.17,9.359 9.336,9.359 C -4.205,9.359 0,5.166 0,0 Z" /></g><g
             transform="translate(248.9497,259.5693)"
             id="g3578"><path
               inkscape:connector-curvature="0"
               id="path3580"
               style="fill:none;stroke:#000000;stroke-width:6.61006737;stroke-linecap:butt;stroke-linejoin:miter;stroke-miterlimit:4;stroke-dasharray:none;stroke-opacity:1"
               d="m 0,0 c 0,-5.189 -4.17,-9.383 -9.36,-9.383 -5.166,0 -9.359,4.194 -9.359,9.383 0,5.166 4.193,9.359 9.359,9.359 C -4.17,9.359 0,5.166 0,0 Z" /></g></g></g></g></g></svg>