<?xml version="1.0" encoding="UTF-8" standalone="no"?>
<svg
   xmlns:dc="http://purl.org/dc/elements/1.1/"
   xmlns:cc="http://creativecommons.org/ns#"
   xmlns:rdf="http://www.w3.org/1999/02/22-rdf-syntax-ns#"
   xmlns:svg="http://www.w3.org/2000/svg"
   xmlns="http://www.w3.org/2000/svg"
   xmlns:sodipodi="http://sodipodi.sourceforge.net/DTD/sodipodi-0.dtd"
   xmlns:inkscape="http://www.inkscape.org/namespaces/inkscape"
   version="1.1"
   width="150"
   height="150"
   id="svg3742"
   inkscape:version="0.91 r"
   viewBox="0 0 150 150"
   sodipodi:docname="gobierno-peru.svg">
  <metadata
     id="metadata3760">
    <rdf:RDF>
      <cc:Work
         rdf:about="">
        <dc:format>image/svg+xml</dc:format>
        <dc:type
           rdf:resource="http://purl.org/dc/dcmitype/StillImage" />
        <dc:title></dc:title>
      </cc:Work>
    </rdf:RDF>
  </metadata>
  <defs
     id="defs3758" />
  <sodipodi:namedview
     pagecolor="#ffffff"
     bordercolor="#666666"
     borderopacity="1"
     objecttolerance="10"
     gridtolerance="10"
     guidetolerance="10"
     inkscape:pageopacity="0"
     inkscape:pageshadow="2"
     inkscape:window-width="975"
     inkscape:window-height="582"
     id="namedview3756"
     showgrid="false"
     inkscape:zoom="1.357645"
     inkscape:cx="143.13131"
     inkscape:cy="130.21407"
     inkscape:window-x="49"
     inkscape:window-y="18"
     inkscape:window-maximized="1"
     inkscape:current-layer="svg3742" />
  <g
     id="g3762"
     transform="matrix(1.1868944,0,0,1.1859358,-5.4285957,-690.75672)">
    <g
       id="g3770">
      <path
         sodipodi:nodetypes="ccsccsccscsccsccccsccscccscscccccscscccsscsccccscccscccccsssccccccccscccscccsccsccscccccscccssccsccscccssscccscccccccc"
         d="m 63.579024,690.46688 -0.7563,3.1069 c -0.083,0.3462 -0.126,0.7206 -0.126,1.1159 0,0.2274 0.043,0.4724 0.126,0.7383 l -5.9465,0 c 0.252,-0.3953 0.4412,-0.7489 0.5672,-1.0567 0.126,-0.3078 0.262,-0.7521 0.4047,-1.333 l 2.391,-9.7575 c 0.083,-0.3325 0.1261,-0.7034 0.1261,-1.1057 0,-0.2274 -0.043,-0.4724 -0.1294,-0.7382 l 10.4273,0 c 0.6598,0 1.1574,0.0419 1.4857,0.1294 0.3318,0.0842 0.6336,0.2415 0.9054,0.4759 0.5638,0.4968 0.8458,1.1406 0.8458,1.9278 0,0.2099 -0.053,0.5318 -0.156,0.9619 l -0.6133,2.4807 c -0.2456,1.1127 -0.6835,1.9243 -1.3102,2.4281 -0.3315,0.2624 -0.6764,0.4302 -1.0347,0.5074 -0.3616,0.0804 -0.9619,0.1188 -1.8041,0.1188 z m 0.5738,-2.3055 2.3811,0 c 0.5571,0 0.9354,-0.0771 1.1376,-0.2344 0.1989,-0.1576 0.365,-0.5109 0.4943,-1.0567 l 0.494,-2.0117 c 0.04,-0.1573 0.06,-0.2973 0.06,-0.4199 0,-0.2659 -0.073,-0.4478 -0.2189,-0.5493 -0.146,-0.0978 -0.4147,-0.1468 -0.8092,-0.1468 l -2.4608,0 -1.0779,4.4188 z m 20.7546,5.052 -0.8557,2.2146 -8.5002,0 c -0.985,0 -1.7213,-0.2274 -2.2055,-0.6858 -0.5705,-0.5352 -0.8556,-1.1684 -0.8556,-1.9067 0,-0.252 0.036,-0.5282 0.1059,-0.8222 l 1.1177,-4.5376 c 0.3683,-1.564 1.403,-2.3442 3.1012,-2.3372 l 6.0925,0 c 0.7029,0 1.2469,0.049 1.6216,0.1435 0.3747,0.0945 0.6932,0.2658 0.9519,0.5108 0.5371,0.5003 0.8058,1.1371 0.8058,1.9171 0,0.343 -0.043,0.6789 -0.126,1.0146 l -0.62,2.5611 -8.0162,0 -0.2354,0.9551 c -0.056,0.245 -0.086,0.4337 -0.086,0.5634 0,0.1224 0.04,0.2412 0.116,0.3498 0.08,0.1085 0.1724,0.1784 0.2818,0.2027 0.083,0.0282 0.3783,0.0526 0.8856,0.0737 l 4.7028,0 c 0.743,0 1.3166,-0.0737 1.718,-0.2169 z m -6.8884,-3.9255 3.237,0 0.2817,-1.1684 c 0.043,-0.1855 0.066,-0.336 0.066,-0.4619 0,-0.3465 -0.2289,-0.5214 -0.6898,-0.5214 l -1.5057,0 c -0.3683,0 -0.6203,0.0595 -0.753,0.1784 -0.1326,0.1191 -0.252,0.3885 -0.3549,0.8049 l -0.2818,1.1684 z m 14.7886,-4.1494 c -0.013,0.245 -0.027,0.5458 -0.04,0.9026 -0.01,0.252 -0.03,0.5352 -0.066,0.8468 0.3349,-0.6822 0.6932,-1.1441 1.0712,-1.3855 0.3814,-0.2415 0.9288,-0.3639 1.6484,-0.3639 l 2.6995,0 -0.8256,3.3692 c -0.3482,-0.3325 -0.8923,-0.5109 -1.6319,-0.5317 l -1.6715,0 c -0.4211,0 -0.7262,0.0663 -0.9187,0.1957 -0.1889,0.1297 -0.3282,0.3603 -0.4111,0.6963 l -1.1575,4.7161 c -0.083,0.3394 -0.126,0.7139 -0.126,1.1162 0,0.2168 0.043,0.4618 0.126,0.7277 l -5.6149,0 c 0.2521,-0.3953 0.4412,-0.7489 0.5672,-1.0567 0.126,-0.3078 0.262,-0.7521 0.4045,-1.333 l 1.4859,-6.0456 c 0.083,-0.3533 0.126,-0.7242 0.126,-1.1054 0,-0.2274 -0.046,-0.4759 -0.136,-0.7488 l 4.4708,0 z m 18.997096,0 -2.0695,8.4353 c -0.083,0.3533 -0.126,0.7277 -0.126,1.1159 0,0.2274 0.046,0.4724 0.136,0.7383 l -4.4013,0 -0.05,-0.8187 c -0.2523,0.5458 -0.7232,0.8187 -1.4097,0.8187 l -3.635,0 c -0.825596,0 -1.452496,-0.1541 -1.873696,-0.4619 -0.3218,-0.238 -0.5805,-0.5387 -0.7727,-0.9026 -0.1891,-0.3603 -0.2854,-0.7312 -0.2854,-1.1056 0,-0.238 0.053,-0.5702 0.1561,-0.9936 l 1.2236,-4.9716 c 0.083,-0.3533 0.1263,-0.7242 0.1263,-1.1054 0,-0.2274 -0.046,-0.4759 -0.1361,-0.7488 l 5.236696,0 -1.7942,7.3191 c -0.04,0.1575 -0.06,0.2834 -0.06,0.3779 0,0.3953 0.2554,0.5948 0.7664,0.5948 l 1.3198,0 c 0.3249,0 0.5605,-0.0596 0.7099,-0.1784 0.1491,-0.1191 0.2617,-0.3466 0.3416,-0.6823 l 1.3696,-5.5769 c 0.09,-0.3674 0.136,-0.7383 0.136,-1.1054 0,-0.2206 -0.046,-0.4689 -0.136,-0.7488 l 5.2269,0 z m -2.8091,-4.3384 -2.5836,3.3519 -2.6898,0 1.99,-3.3519 z"
         style="fill:#0d0b02;fill-rule:evenodd"
         id="path3744"
         inkscape:connector-curvature="0" />
      <path
         sodipodi:nodetypes="ccsccccssccsccccscccscccssccsssccccscccccscscccsccsccccscccscccccsssccccccscccccsccc"
         d="m 46.858524,681.54918 -1.5162,6.1723 c -0.042,0.176 -0.064,0.3666 -0.064,0.5674 0,0.1121 0.024,0.2366 0.069,0.3755 l -2.5502,0 0,-0.4429 c -0.108,0.1744 -0.226,0.2916 -0.3508,0.3522 -0.125,0.0604 -0.3105,0.0907 -0.5533,0.0907 l -1.3745,0 c -0.2951,0 -0.5279,-0.0284 -0.6932,-0.0836 -0.167,-0.0553 -0.3239,-0.1565 -0.4724,-0.3024 -0.2344,-0.2331 -0.3509,-0.5195 -0.3509,-0.8596 0,-0.1456 0.037,-0.3663 0.1132,-0.6616 l 0.5092,-2.0749 c 0.125,-0.4802 0.3223,-0.8075 0.5887,-0.9854 0.2109,-0.1603 0.5515,-0.2475 1.0222,-0.2653 l 1.7792,0 c 0.2379,0 0.415,0.0357 0.533,0.1085 0.1199,0.0731 0.2161,0.2082 0.2918,0.4021 l 0.3611,-1.4555 c 0.042,-0.1759 0.064,-0.3646 0.064,-0.562 0,-0.1121 -0.024,-0.2366 -0.069,-0.3755 z m -4.9502,6.0992 0.5584,0 c 0.1904,0 0.3236,-0.0301 0.3996,-0.0888 0.076,-0.0587 0.1365,-0.1852 0.184,-0.3809 l 0.484,-1.9804 c 0.042,-0.1708 0.064,-0.3129 0.064,-0.4269 0,-0.2152 -0.1517,-0.3238 -0.4553,-0.3238 l -0.5735,0 c -0.2007,0 -0.3355,0.0374 -0.4063,0.114 -0.071,0.0763 -0.1435,0.2685 -0.2161,0.5745 l -0.4486,1.8238 c -0.013,0.0588 -0.029,0.1192 -0.045,0.1779 -0.025,0.0907 -0.039,0.1638 -0.039,0.2188 0,0.1069 0.037,0.1832 0.1112,0.226 0.074,0.0444 0.2007,0.0658 0.3829,0.0658 z m 10.7322,-0.1102 -0.4353,1.1262 -4.3227,0 c -0.501,0 -0.8754,-0.1156 -1.1218,-0.3487 -0.29,-0.2723 -0.4352,-0.5942 -0.4352,-0.9697 0,-0.1281 0.019,-0.2686 0.054,-0.418 l 0.5685,-2.3079 c 0.187,-0.7952 0.7134,-1.192 1.577,-1.1885 l 3.0983,0 c 0.3575,0 0.6342,0.0249 0.8246,0.0731 0.1907,0.0479 0.3526,0.1351 0.4843,0.2596 0.273,0.2545 0.4098,0.5783 0.4098,0.9752 0,0.1743 -0.022,0.3451 -0.064,0.516 l -0.3154,1.3024 -4.0766,0 -0.1199,0.4857 c -0.028,0.1245 -0.044,0.2206 -0.044,0.2864 0,0.0623 0.02,0.1227 0.059,0.1779 0.04,0.0552 0.088,0.0907 0.1432,0.1031 0.042,0.0144 0.1923,0.0268 0.4504,0.0374 l 2.3916,0 c 0.3778,0 0.6696,-0.0374 0.8739,-0.1102 z m -3.5034,-1.9963 1.6464,0 0.1432,-0.5943 c 0.022,-0.0944 0.034,-0.1708 0.034,-0.235 0,-0.1759 -0.1165,-0.265 -0.3508,-0.265 l -0.7658,0 c -0.1873,0 -0.3154,0.0303 -0.3829,0.0907 -0.067,0.0606 -0.128,0.1976 -0.1804,0.4093 l -0.1435,0.5943 z m 8.317,-3.9927 -1.5128,6.1774 c -0.042,0.1728 -0.064,0.3615 -0.064,0.5623 0,0.1156 0.022,0.2404 0.064,0.3755 l -2.8556,0 c 0.1283,-0.2011 0.2243,-0.3806 0.2885,-0.5374 0.064,-0.1564 0.1332,-0.3825 0.2058,-0.6779 l 1.2159,-4.9624 c 0.042,-0.1689 0.064,-0.3576 0.064,-0.562 0,-0.1159 -0.022,-0.2404 -0.066,-0.3755 l 2.6597,0 z"
         style="fill:#0d0b02;fill-rule:evenodd"
         id="path3746"
         inkscape:connector-curvature="0" />
      <path
         sodipodi:nodetypes="cccccsccccsscccsccccccccsscccssscccsccccscccscccccssccscccscccscsscccscssccccccssccscccsscccccccsccccsccccssscccscccccccccscccccsccccscscccsccsccccscccscccccsssccccccccscccscccscccccsccccccsscsccscccscscsscccscccccscccsscccscccccssccscccsccscsscccscssccc"
         d="m 29.272924,674.33468 5.7863,0 c -0.1804,0.2807 -0.3144,0.5271 -0.4001,0.7369 -0.085,0.2098 -0.1781,0.5195 -0.2774,0.9294 l -0.6916,2.8082 c -0.058,0.2415 -0.088,0.5 -0.088,0.771 0,0.1584 0.032,0.3292 0.095,0.5147 l -2.9349,0 0.014,-0.9075 c -0.1317,0.356 -0.2821,0.5978 -0.4579,0.722 -0.1734,0.1246 -0.4462,0.1855 -0.8163,0.1855 l -2.9118,0 c -0.4671,0 -0.8256,-0.0244 -1.0753,-0.0755 -0.2497,-0.049 -0.4601,-0.1392 -0.6267,-0.2686 -0.2127,-0.1657 -0.3839,-0.3804 -0.5112,-0.6416 -0.1293,-0.2634 -0.1943,-0.5293 -0.1943,-0.8003 0,-0.2244 0.053,-0.5585 0.162,-1.0025 l 1.1933,-4.8454 c 0.1134,-0.4708 0.2613,-0.8442 0.4463,-1.1149 0.1873,-0.2707 0.4396,-0.4903 0.7609,-0.6562 0.3054,-0.1635 0.5828,-0.2586 0.8302,-0.2902 0.2454,-0.032 0.8582,-0.0515 1.8388,-0.0612 l 6.0568,0 -0.1619,1.8591 c -0.3559,-0.1684 -0.8879,-0.2513 -1.5911,-0.2513 l -3.5524,0 c -0.3793,0 -0.6428,0.0512 -0.7909,0.1514 -0.1501,0.0999 -0.2636,0.3072 -0.3398,0.6196 l -1.2072,4.9183 c -0.04,0.1635 -0.06,0.2856 -0.06,0.366 0,0.3246 0.2127,0.4854 0.6385,0.4854 l 1.1769,0 c 0.2731,0 0.4581,-0.0536 0.5574,-0.1608 0.1,-0.1074 0.1989,-0.3709 0.2985,-0.7905 l 0.3932,-1.5932 -0.8882,0 c -0.4024,0 -0.7702,0.056 -1.1054,0.1708 l 0.4348,-1.7786 z m 9.2948,-1.4149 4.1259,0 c 0.3167,0 0.5528,0.0171 0.7075,0.0512 0.1573,0.0317 0.3193,0.0999 0.4927,0.205 0.2613,0.1586 0.4671,0.3806 0.6152,0.6659 0.1504,0.2854 0.2243,0.6002 0.2243,0.9443 0,0.2366 -0.039,0.5098 -0.1155,0.8198 l -0.6431,2.6225 c -0.095,0.388 -0.1989,0.6806 -0.3075,0.8807 -0.1111,0.2 -0.273,0.3855 -0.4858,0.5563 -0.2035,0.1684 -0.4393,0.2805 -0.7075,0.3392 -0.2685,0.0609 -0.6755,0.0902 -1.2165,0.0902 l -4.1051,0 c -0.5297,0 -0.8859,-0.0195 -1.0686,-0.0609 -0.1825,-0.039 -0.3675,-0.1367 -0.5525,-0.2905 -0.4279,-0.3658 -0.6432,-0.8466 -0.6432,-1.4419 0,-0.173 0.03,-0.3755 0.088,-0.6072 l 0.7655,-3.1451 c 0.155,-0.6145 0.437,-1.039 0.8464,-1.2759 0.4116,-0.2366 1.0707,-0.3536 1.9797,-0.3536 z m 0.407,2.0297 -0.7124,2.93 c -0.049,0.2394 -0.074,0.3758 -0.074,0.4148 0,0.144 0.051,0.2466 0.1526,0.31 0.1017,0.0658 0.2659,0.0974 0.4902,0.0974 l 0.9899,0 c 0.2984,0 0.4996,-0.0365 0.6036,-0.1096 0.1042,-0.0758 0.1873,-0.2415 0.2499,-0.4979 l 0.6845,-2.7811 c 0.053,-0.2196 0.081,-0.388 0.081,-0.5074 0,-0.1757 -0.053,-0.3026 -0.1617,-0.3782 -0.1088,-0.0755 -0.2846,-0.1148 -0.5297,-0.1148 l -0.8394,0 c -0.317,0 -0.5343,0.0417 -0.6547,0.1221 -0.1178,0.0804 -0.2127,0.2513 -0.2797,0.5147 z m 11.411,-4.611 -0.7263,2.952 c 0.1319,-0.156 0.2569,-0.2586 0.3793,-0.3024 0.1227,-0.0463 0.3262,-0.0683 0.6105,-0.0683 l 1.952,0 c 0.3654,0 0.6521,0.0317 0.8602,0.0926 0.2082,0.061 0.4165,0.1806 0.6247,0.3587 0.4278,0.3612 0.6428,0.8125 0.6428,1.3491 0,0.3197 -0.039,0.6318 -0.1157,0.937 l -0.629,2.5713 c -0.1596,0.6538 -0.4093,1.127 -0.7494,1.4224 -0.3421,0.2951 -0.8071,0.444 -1.3991,0.444 l -2.4953,0 c -0.3839,0 -0.6593,-0.0463 -0.8259,-0.1392 -0.1663,-0.0926 -0.2866,-0.2683 -0.3582,-0.5244 l -0.1643,0.6636 -3.5962,0 c 0.1758,-0.2756 0.3075,-0.522 0.3955,-0.7369 0.088,-0.2147 0.1827,-0.5244 0.282,-0.9294 l 1.6676,-6.8044 c 0.058,-0.2367 0.088,-0.4952 0.088,-0.7708 0,-0.1586 -0.03,-0.3295 -0.09,-0.5149 l 3.6473,0 z m -1.3022,8.3632 0.7263,0 c 0.2127,0 0.3562,-0.01 0.4324,-0.0292 0.079,-0.0195 0.1458,-0.0609 0.2035,-0.1267 0.1181,-0.1343 0.2266,-0.4001 0.3262,-0.7954 l 0.6175,-2.5226 c 0.062,-0.2661 0.095,-0.4221 0.095,-0.4635 0,-0.3002 -0.229,-0.4516 -0.6868,-0.4516 l -0.7979,0 c -0.2543,0 -0.4255,0.0417 -0.5158,0.1246 -0.09,0.0828 -0.1712,0.2756 -0.2428,0.5758 l -0.7121,2.9033 c -0.044,0.2049 -0.067,0.3292 -0.067,0.3779 0,0.271 0.2082,0.4074 0.6221,0.4074 z m 11.3902,-8.3632 -0.4601,1.9005 -3.335,0 0.4671,-1.9005 z m -0.6313,2.5813 -1.4431,5.8821 c -0.058,0.2415 -0.088,0.5049 -0.088,0.7856 0,0.1535 0.03,0.3219 0.088,0.5074 l -3.9154,0 c 0.1804,-0.2756 0.3146,-0.522 0.4001,-0.7369 0.086,-0.2147 0.1781,-0.5244 0.2774,-0.9294 l 1.0363,-4.2158 c 0.058,-0.2463 0.088,-0.5051 0.088,-0.771 0,-0.1586 -0.032,-0.3316 -0.095,-0.522 z m 8.6332,5.6309 -0.5967,1.5442 -5.9275,0 c -0.6867,0 -1.2003,-0.1587 -1.538,-0.4781 -0.3978,-0.3733 -0.5967,-0.8149 -0.5967,-1.3298 0,-0.1754 0.026,-0.3682 0.074,-0.5731 l 0.7794,-3.1646 c 0.2566,-1.0904 0.9783,-1.6343 2.1624,-1.6295 l 4.2483,0 c 0.4904,0 0.8698,0.0342 1.131,0.0999 0.2613,0.0658 0.4832,0.1855 0.6637,0.3563 0.3746,0.349 0.562,0.793 0.562,1.3369 0,0.239 -0.03,0.4735 -0.088,0.7076 l -0.4327,1.7857 -5.5897,0 -0.1643,0.666 c -0.039,0.1709 -0.06,0.3027 -0.06,0.3929 0,0.0855 0.028,0.1683 0.081,0.2439 0.056,0.0758 0.1204,0.1245 0.1966,0.1416 0.058,0.0195 0.2638,0.0365 0.6177,0.0511 l 3.2793,0 c 0.5181,0 0.9182,-0.0511 1.198,-0.151 z m -4.8035,-2.7373 2.2571,0 0.1966,-0.8149 c 0.03,-0.1294 0.047,-0.2342 0.047,-0.3222 0,-0.2415 -0.1597,-0.3636 -0.4812,-0.3636 l -1.0499,0 c -0.2566,0 -0.4324,0.0417 -0.5251,0.1246 -0.092,0.0828 -0.1758,0.2707 -0.2474,0.5612 l -0.1966,0.8149 z m 10.3124,-2.8936 c -0.01,0.1709 -0.018,0.3807 -0.028,0.6295 0,0.1757 -0.021,0.373 -0.046,0.5904 0.2335,-0.4759 0.4832,-0.7978 0.747,-0.9662 0.2659,-0.1684 0.6475,-0.2537 1.1495,-0.2537 l 1.8824,0 -0.5759,2.3494 c -0.2428,-0.2317 -0.6221,-0.3563 -1.1379,-0.3709 l -1.1654,0 c -0.2938,0 -0.5066,0.0463 -0.6408,0.1367 -0.1316,0.0902 -0.2289,0.2513 -0.2866,0.4854 l -0.8072,3.2888 c -0.058,0.2366 -0.088,0.4976 -0.088,0.7783 0,0.1511 0.03,0.3219 0.088,0.5074 l -3.9154,0 c 0.1758,-0.2756 0.3077,-0.522 0.3954,-0.7369 0.088,-0.2147 0.1828,-0.5244 0.2821,-0.9294 l 1.0363,-4.2158 c 0.058,-0.2463 0.088,-0.5051 0.088,-0.771 0,-0.1586 -0.032,-0.3316 -0.095,-0.522 l 3.1174,0 z m 7.514,0 -0.1617,0.6636 c 0.1386,-0.2805 0.2774,-0.461 0.4163,-0.5417 0.1362,-0.0804 0.377,-0.1219 0.7214,-0.1219 l 2.2365,0 c 0.6267,0 1.1077,0.1904 1.4431,0.5707 0.312,0.3636 0.4671,0.7906 0.4671,1.2811 0,0.3146 -0.053,0.6952 -0.162,1.1417 l -0.7121,2.8959 c -0.058,0.2366 -0.088,0.4952 -0.088,0.771 0,0.1584 0.03,0.3292 0.088,0.5147 l -3.9178,0 c 0.1827,-0.2756 0.3146,-0.522 0.4001,-0.7369 0.085,-0.2147 0.178102,-0.5244 0.2774,-0.9294 l 0.7794,-3.1789 c 0.077,-0.3246 0.1157,-0.5125 0.1157,-0.5661 0,-0.1805 -0.1,-0.2975 -0.2984,-0.3489 -0.049,-0.0147 -0.1663,-0.022 -0.3514,-0.022 l -0.8001,0 c -0.2662,0 -0.4535,0.0466 -0.5598,0.1367 -0.1065,0.0902 -0.1919,0.2732 -0.2589,0.5491 l -0.9367,3.8107 c -0.058,0.2366 -0.088,0.4976 -0.088,0.7783 0,0.1511 0.03,0.3219 0.088,0.5074 l -3.9155,0 c 0.1758,-0.2756 0.3077,-0.522 0.3955,-0.7369 0.088,-0.2147 0.1827,-0.5244 0.282,-0.9294 l 1.0363,-4.2158 c 0.058,-0.2463 0.088,-0.5051 0.088,-0.771 0,-0.1586 -0.032,-0.3316 -0.095,-0.522 l 3.5105,0 z m 9.2901,0 4.126,0 c 0.3166,0 0.5527,0.0171 0.7075,0.0512 0.1573,0.0317 0.3192,0.0999 0.4927,0.205 0.2613,0.1586 0.4671,0.3806 0.6152,0.6659 0.1504,0.2854 0.2243,0.6002 0.2243,0.9443 0,0.2366 -0.039,0.5098 -0.1155,0.8198 l -0.6431,2.6225 c -0.095,0.388 -0.1989,0.6806 -0.3075,0.8807 -0.1111,0.2 -0.273,0.3855 -0.4858,0.5563 -0.2035,0.1684 -0.4393,0.2805 -0.7075,0.3392 -0.2685,0.0609 -0.6755,0.0902 -1.2165,0.0902 l -4.1051,0 c -0.5297,0 -0.8859,-0.0195 -1.0686,-0.0609 -0.1825,-0.039 -0.3675,-0.1367 -0.5526,-0.2905 -0.4278,-0.3658 -0.6431,-0.8466 -0.6431,-1.4419 0,-0.173 0.03,-0.3755 0.088,-0.6072 l 0.7656,-3.1451 c 0.155,-0.6145 0.437,-1.039 0.8464,-1.2759 0.4116,-0.2366 1.0706,-0.3536 1.9796,-0.3536 z m 0.4071,2.0297 -0.7125,2.93 c -0.049,0.2394 -0.074,0.3758 -0.074,0.4148 0,0.144 0.051,0.2466 0.1527,0.31 0.1017,0.0658 0.2659,0.0974 0.4902,0.0974 l 0.9898,0 c 0.2985,0 0.4997,-0.0365 0.6036,-0.1096 0.1042,-0.0758 0.1874,-0.2415 0.25,-0.4979 l 0.6845,-2.7811 c 0.053,-0.2196 0.081,-0.388 0.081,-0.5074 0,-0.1757 -0.053,-0.3026 -0.1617,-0.3782 -0.1088,-0.0755 -0.2846,-0.1148 -0.5297,-0.1148 l -0.8394,0 c -0.317,0 -0.5343,0.0417 -0.6547,0.1221 -0.1178,0.0804 -0.2128,0.2513 -0.2797,0.5147 z"
         style="fill:#0d0b02;fill-rule:evenodd"
         id="path3748"
         inkscape:connector-curvature="0" />
      <path
         sodipodi:nodetypes="cccccccccccccccccccccccccccccccccccccccccccccccccccccccccccccccccccccccccccccccccccccccccccccccccccccccccccccccccccccccccccccccccccccccccccc"
         d="m 62.954624,601.20948 c 1.1296,-0.2494 2.2876,-0.4167 3.4677,-0.496 l 0,-11.6153 c -2.1603,0.0998 -4.2713,0.4048 -6.3165,0.8961 z m -6.2268,2.3417 c 1.0267,-0.5609 2.0956,-1.0479 3.1997,-1.4541 l -2.8508,-11.2235 c -2.0347,0.695 -3.9903,1.5783 -5.8479,2.6305 z m -5.3887,3.9861 c 0.8464,-0.8229 1.7476,-1.584 2.6963,-2.2768 l -5.5063,-10.0613 c -1.7691,1.2252 -3.4296,2.6113 -4.962,4.1392 z m -4.1865,5.3053 c 0.6083,-1.0193 1.2824,-1.991 2.0149,-2.9092 l -7.7876,-8.2153 c -1.391,1.6523 -2.6476,3.4339 -3.7486,5.3257 z m -2.7051,6.2354 c 0.3303,-1.1424 0.7342,-2.2518 1.2047,-3.3222 l -9.547,-5.8147 c -0.9236,1.9548 -1.6912,4.0056 -2.2833,6.1336 z m -1.0505,6.7139 c 0.036,-1.1835 0.1485,-2.3471 0.3302,-3.4861 l -10.6551,-3.0121 c -0.398,2.109 -0.6293,4.2803 -0.6752,6.4984 z m 0.6276,6.7167 c -0.2458,-1.109 -0.4235,-2.2448 -0.5287,-3.4025 l -11.031,0 c 0.1369,2.1909 0.4533,4.3319 0.934,6.4058 z m 48.4656,-3.4025 c -0.1051,1.1577 -0.2831,2.2933 -0.5289,3.4019 l 10.622296,3.0024 c 0.481,-2.0735 0.7988,-4.2134 0.9357,-6.4043 z m -0.2284,-6.8011 c 0.1819,1.1392 0.2933,2.3031 0.3288,3.4869 l 10.999796,0 c -0.046,-2.2184 -0.2758,-4.3898 -0.6741,-6.4987 z m -1.9256,-6.5503 c 0.4705,1.0706 0.8736,2.1801 1.2041,3.3227 l 10.625096,-3.0033 c -0.5927,-2.1279 -1.36,-4.1785 -2.284096,-6.133 z m -3.517,-5.8218 c 0.7331,0.9181 1.4066,1.8898 2.0152,2.9092 l 9.5216,-5.7991 c -1.1019,-1.8916 -2.3576,-3.6732 -3.7491,-5.3252 z m -4.8685,-4.6721 c 0.9491,0.6928 1.8496,1.4542 2.6961,2.2768 l 7.7723,-8.1992 c -1.5321,-1.5279 -3.1921,-2.9146 -4.9615,-4.1394 z m -5.8921,-3.1626 c 1.1041,0.4059 2.1722,0.8938 3.1992,1.4547 l 5.5001,-10.0496 c -1.8576,-1.0525 -3.8132,-1.9361 -5.8479,-2.6306 z m -6.4944,-1.3847 c 1.18,0.0793 2.3377,0.2472 3.4673,0.4969 l 2.8486,-11.2144 c -2.0452,-0.491 -4.1556,-0.798 -6.3159,-0.8978 z m -4.4527,10.6361 c 0.6463,-0.1428 1.3085,-0.2384 1.9834,-0.2837 l 0,-6.6433 c -1.2356,0.0573 -2.4429,0.2316 -3.6124,0.5128 z m -3.5611,1.3391 c 0.5873,-0.3209 1.1984,-0.5992 1.83,-0.8317 l -1.6305,-6.4187 c -1.1636,0.3974 -2.2822,0.9025 -3.3446,1.5043 z m -3.0819,2.2799 c 0.4839,-0.4705 0.9995,-0.9059 1.5421,-1.3022 l -3.1493,-5.7543 c -1.0117,0.7007 -1.9616,1.4935 -2.8378,2.3675 z m -2.3944,3.0342 c 0.3478,-0.5831 0.7333,-1.1389 1.1523,-1.6639 l -4.4538,-4.6984 c -0.7957,0.945 -1.5143,1.9638 -2.1441,3.0458 z m -1.5471,3.5663 c 0.189,-0.6534 0.4198,-1.2881 0.6888,-1.9001 l -5.4601,-3.3256 c -0.5281,1.118 -0.9672,2.2907 -1.3059,3.5079 z m -0.6007,3.8398 c 0.02,-0.6769 0.085,-1.3425 0.1888,-1.9939 l -6.0939,-1.7226 c -0.2277,1.2061 -0.36,2.448 -0.3864,3.7165 z m 0.3589,3.8412 c -0.1406,-0.6341 -0.2424,-1.2838 -0.3025,-1.9457 l -6.3091,0 c 0.079,1.2529 0.2594,2.4775 0.5344,3.6635 z m 27.7185,-1.9457 c -0.06,0.6619 -0.1618,1.3116 -0.3024,1.9457 l 6.0752,1.717 c 0.275,-1.186 0.4569,-2.4098 0.5352,-3.6627 z m -0.1306,-3.89 c 0.1043,0.6517 0.1678,1.3173 0.1882,1.9945 l 6.2909,-3e-4 c -0.026,-1.2685 -0.1576,-2.5103 -0.3855,-3.7165 z m -1.1013,-3.7462 c 0.2693,0.6123 0.4998,1.2469 0.6888,1.9003 l 6.0767,-1.7175 c -0.3391,-1.2169 -0.7779,-2.3899 -1.3062,-3.5076 z m -2.0115,-3.3296 c 0.4193,0.525 0.8045,1.0809 1.1526,1.6639 l 5.4456,-3.3168 c -0.6301,-1.0817 -1.3484,-2.1007 -2.1441,-3.0455 z m -2.7841,-2.6722 c 0.5428,0.3963 1.0576,0.8317 1.5417,1.3022 l 4.4453,-4.6893 c -0.8765,-0.8737 -1.8258,-1.6668 -2.8378,-2.3675 z m -3.3699,-1.8085 c 0.6313,0.2321 1.2422,0.5111 1.8295,0.8317 l 3.1456,-5.7476 c -1.0621,-0.6018 -2.1807,-1.1072 -3.3446,-1.5043 z m -3.7145,-0.792 c 0.6749,0.0453 1.3371,0.1411 1.9831,0.284 l 1.6291,-6.4137 c -1.1696,-0.2809 -2.3766,-0.4563 -3.6122,-0.5136 z"
         style="fill:#f8a600;fill-rule:evenodd"
         id="path3750"
         inkscape:connector-curvature="0" />
      <path
         sodipodi:nodetypes="csccccccccccccccccccccccccccccccccc"
         d="m 80.382924,661.89158 c -3.8625,1.52 -8.0374,2.3525 -12.3894,2.3525 -6.8802,0 -13.3174,-2.0798 -18.7784,-5.6704 l 31.1678,-14.8788 z m 16.412,-13.1397 c -3.5549,5.1293 -8.3069,9.2824 -13.8149,11.9928 l 0,-17.1977 z m -40.0756,3.3081 -9.9528,4.7511 c -3.5158,-2.7612 -6.5366,-6.1877 -8.8934,-10.099 l 18.8462,-7.5254 z m 15.5761,-7.4356 -12.9787,6.1957 0,-11.8004 z m -5.7646,-5.3762 -7.7658,-3.3537 -0.4549,-0.1961 -0.466,0.1859 -21.269,8.4929 c -0.8946,-1.7498 -1.6616,-3.5818 -2.2875,-5.4828 l 32.2432,-11.8131 z m 35.179396,-0.3849 c -0.8813,2.6835 -2.043496,5.2302 -3.448296,7.6022 l -16.1884,-6.099 -0.4796,-0.1803 -0.4663,0.2219 -5.6571,2.7006 -6.3423,-2.7388 0,-13.487 z"
         style="fill:#d8d100;fill-rule:evenodd"
         id="path3752"
         inkscape:connector-curvature="0" />
      <path
         sodipodi:nodetypes="sssss"
         d="m 67.993624,704.76828 c 34.475496,0 62.593896,-0.6228 62.593896,-1.3866 0,-0.7637 -28.1184,-1.3862 -62.593896,-1.3862 -34.4755,0 -62.5939004,0.6225 -62.5939004,1.3862 0,0.7638 28.1184004,1.3866 62.5939004,1.3866 z"
         style="fill:#d8d100;fill-rule:evenodd;stroke:#ffffff;stroke-width:1.19292152;stroke-linecap:butt;stroke-linejoin:round;stroke-dasharray:none"
         id="path3754"
         inkscape:connector-curvature="0" />
    </g>
  </g>
</svg>
