<?xml version="1.0" encoding="UTF-8" standalone="no"?>
<!-- Created with Inkscape (http://www.inkscape.org/) -->

<svg
   xmlns:dc="http://purl.org/dc/elements/1.1/"
   xmlns:cc="http://creativecommons.org/ns#"
   xmlns:rdf="http://www.w3.org/1999/02/22-rdf-syntax-ns#"
   xmlns:svg="http://www.w3.org/2000/svg"
   xmlns="http://www.w3.org/2000/svg"
   xmlns:sodipodi="http://sodipodi.sourceforge.net/DTD/sodipodi-0.dtd"
   xmlns:inkscape="http://www.inkscape.org/namespaces/inkscape"
   id="svg3366"
   version="1.1"
   inkscape:version="0.91 r"
   xml:space="preserve"
   width="150"
   height="150"
   viewBox="0 0 150 150"
   sodipodi:docname="intec.svg"><metadata
     id="metadata3372"><rdf:RDF><cc:Work
         rdf:about=""><dc:format>image/svg+xml</dc:format><dc:type
           rdf:resource="http://purl.org/dc/dcmitype/StillImage" /><dc:title></dc:title></cc:Work></rdf:RDF></metadata><defs
     id="defs3370" /><sodipodi:namedview
     pagecolor="#ffffff"
     bordercolor="#666666"
     borderopacity="1"
     objecttolerance="10"
     gridtolerance="10"
     guidetolerance="10"
     inkscape:pageopacity="0"
     inkscape:pageshadow="2"
     inkscape:window-width="975"
     inkscape:window-height="582"
     id="namedview3368"
     showgrid="false"
     inkscape:zoom="2"
     inkscape:cx="-273.26379"
     inkscape:cy="68.272812"
     inkscape:window-x="49"
     inkscape:window-y="18"
     inkscape:window-maximized="1"
     inkscape:current-layer="g3374" /><g
     id="g3374"
     inkscape:groupmode="layer"
     inkscape:label="ink_ext_XXXXXX"
     transform="matrix(1.25,0,0,-1.25,0,150)"><g
       id="g3376"
       transform="matrix(0.07738727,0,0,0.07738727,0.05807769,35.20139)" /><path
       d="M 0.57737414,43.532861 C -2.8182973,54.329004 21.152379,71.4805 54.112469,81.844048 87.073726,92.209454 116.54357,91.860902 119.93623,81.067777 123.33198,70.266526 99.36592,53.115881 66.405513,42.753525 33.441555,32.391794 3.9745562,32.744271 0.57737414,43.532861 Z m 6.87356526,2.2019 c 2.8379696,-9.026506 26.3667176,-9.674322 52.5393246,-1.444356 26.180353,8.23269 45.098446,22.2216 42.262206,31.256873 -2.842439,9.033184 -26.363686,9.679445 -52.543259,1.445285 C 23.527859,68.762891 4.6178379,54.769415 7.4509394,45.734761"
       style="fill:#231f20;fill-opacity:1;fill-rule:nonzero;stroke:none"
       id="path3378"
       inkscape:connector-curvature="0"
       sodipodi:nodetypes="ccccccsccc" /><path
       d="m 28.10609,43.717816 5.497514,1.711652 2.27418,13.367413 5.497514,1.71614 -2.280216,-13.364704 5.500842,1.711574 2.279597,13.367413 c 0.198034,1.124514 -2.097582,1.26327 -5.140527,0.313805 L 30.741204,59.111847 28.10609,43.717816"
       style="fill:#231f20;fill-opacity:1;fill-rule:nonzero;stroke:none"
       id="path3380"
       inkscape:connector-curvature="0"
       sodipodi:nodetypes="cccccccccc" /><path
       d="m 29.445818,62.538401 -7.431887,-2.340424 -0.449155,-2.525611 7.42732,2.340346 0.453722,2.525689"
       style="fill:#231f20;fill-opacity:1;fill-rule:nonzero;stroke:none"
       id="path3382"
       inkscape:connector-curvature="0"
       sodipodi:nodetypes="ccccc" /><path
       d="m 26.669008,43.268351 2.33609,15.230744 -7.436143,-2.33462 -2.271085,-15.20748 7.371138,2.311356"
       style="fill:#231f20;fill-opacity:1;fill-rule:nonzero;stroke:none"
       id="path3384"
       inkscape:connector-curvature="0"
       sodipodi:nodetypes="ccccc" /><path
       d="m 46.295735,49.441147 7.395592,2.324404 2.44923,16.177809 7.435832,2.337637 0.452796,2.765125 -7.431888,-2.340346 0.607335,3.868435 -7.430416,-2.337328 -0.604317,-3.842742 -6.759546,-2.122114 -0.574059,-2.804437 6.876865,2.164135 -2.417424,-16.190578"
       style="fill:#231f20;fill-opacity:1;fill-rule:nonzero;stroke:none"
       id="path3386"
       inkscape:connector-curvature="0"
       sodipodi:nodetypes="ccccccccccccc" /><path
       d="m 78.277115,59.338901 7.452394,2.344912 c 2.781299,1.347312 4.79182,2.943425 4.97368,4.109961 l 0.177991,1.857604 -5.536286,-1.739434 -0.294845,-1.993264 -5.533964,-1.746089 1.663826,10.721774 5.532416,1.740595 -0.286333,-1.990633 5.527773,1.739124 0.171026,1.162357 c 0.242222,1.638985 -3.303662,1.808308 -7.864094,0.374477 -4.562754,-1.434373 -8.497672,-3.956657 -8.740668,-5.599047 l -1.432284,-9.752034 c -0.166302,-1.163827 1.551076,-1.581254 4.189368,-1.230303"
       style="fill:#231f20;fill-opacity:1;fill-rule:nonzero;stroke:none"
       id="path3388"
       inkscape:connector-curvature="0"
       sodipodi:nodetypes="cccccccccccccccc" /><path
       d="m 62.798882,67.2088 5.488689,1.740594 -0.732393,-4.75746 -5.493643,-1.746398 z M 58.973628,53.428139 67.9076,56.235517 c 2.370607,1.264817 4.055018,2.694393 4.216758,3.759938 l 0.408988,1.932592 -5.500532,-1.736106 -0.312025,-2.018105 -5.492019,-1.740285 0.521745,3.998755 10.980788,3.484826 0.924159,5.934675 c 0.258783,1.658023 -3.247244,1.845764 -7.771694,0.408682 -4.526225,-1.43654 -8.452469,-3.973681 -8.710942,-5.633251 l -1.529559,-9.856275 c -0.159341,-1.049913 1.176518,-1.510909 3.330361,-1.342824"
       style="fill:#231f20;fill-opacity:1;fill-rule:evenodd;stroke:none"
       id="path3390"
       inkscape:connector-curvature="0"
       sodipodi:nodetypes="ccccccccccccccccccc" /></g></svg>