<?xml version="1.0" encoding="UTF-8" standalone="no"?>
<!-- Generator: Adobe Illustrator 15.0.0, SVG Export Plug-In . SVG Version: 6.00 Build 0)  -->

<svg
   xmlns:dc="http://purl.org/dc/elements/1.1/"
   xmlns:cc="http://creativecommons.org/ns#"
   xmlns:rdf="http://www.w3.org/1999/02/22-rdf-syntax-ns#"
   xmlns:svg="http://www.w3.org/2000/svg"
   xmlns="http://www.w3.org/2000/svg"
   xmlns:sodipodi="http://sodipodi.sourceforge.net/DTD/sodipodi-0.dtd"
   xmlns:inkscape="http://www.inkscape.org/namespaces/inkscape"
   version="1.1"
   id="Layer_1"
   x="0px"
   y="0px"
   width="150"
   height="150"
   viewBox="0 0 150 150"
   enable-background="new 0 0 300 300"
   xml:space="preserve"
   inkscape:version="0.91 r"
   sodipodi:docname="Occidental_Logo.svg"><metadata
     id="metadata5791"><rdf:RDF><cc:Work
         rdf:about=""><dc:format>image/svg+xml</dc:format><dc:type
           rdf:resource="http://purl.org/dc/dcmitype/StillImage" /><dc:title></dc:title></cc:Work></rdf:RDF></metadata><defs
     id="defs5789" /><sodipodi:namedview
     pagecolor="#ffffff"
     bordercolor="#666666"
     borderopacity="1"
     objecttolerance="10"
     gridtolerance="10"
     guidetolerance="10"
     inkscape:pageopacity="0"
     inkscape:pageshadow="2"
     inkscape:window-width="975"
     inkscape:window-height="582"
     id="namedview5787"
     showgrid="false"
     inkscape:zoom="1.5033333"
     inkscape:cx="150"
     inkscape:cy="150"
     inkscape:window-x="49"
     inkscape:window-y="18"
     inkscape:window-maximized="1"
     inkscape:current-layer="Layer_1" /><g
     id="g5793"
     transform="matrix(0.59933934,0,0,0.59933934,-13.107942,-13.846866)"><g
       id="XMLID_1_"><g
         id="g5756"><polygon
           id="polygon5758"
           points="185.046,175.119 158.296,175.119 148.578,162.157 138.572,175.119 112.098,175.119 131.821,148.92 112.098,122.313 137.469,122.313 148.919,138.44 159.531,123.129 185.046,123.129 165.466,148.92 "
           style="fill:#ed1c2e" /></g><g
         id="g5760" /></g><g
       id="g5762"><g
         id="XMLID_2_"><g
           id="g5765"><path
             id="path5767"
             d="m 79.424,160.675 c 3.673,-0.188 2.945,-4.964 2.945,-4.964 0,0 -0.188,-8.273 0,-13.237 0.177,-4.964 -4.236,-3.861 -4.236,-3.861 0,0 -17.098,0 -20.408,0 -3.309,0 -2.934,3.497 -2.934,3.497 l 0,13.602 c -0.927,3.86 2.934,4.964 2.934,4.964 0,0 18.025,0.186 21.699,-10e-4 z m 23.904,-27.059 c -0.188,11.406 0,32.365 0,32.365 0,0 2.935,9.741 -9.564,10.017 -12.498,0.275 -50.379,0 -50.379,0 0,0 -11.208,-1.743 -11.208,-10.017 l 0,-8.273 0,-24.091 c 0,0 0.916,-10.557 12.134,-10.424 11.208,0.132 50.004,0 50.004,0 0,0 9.19,-0.972 9.013,10.423 z"
             inkscape:connector-curvature="0"
             style="fill:#ed1c2e" /></g><g
           id="g5769" /></g></g><g
       id="XMLID_3_"><g
         id="g5772"><polygon
           id="polygon5774"
           points="192,122 216,122 228.62,138.62 240,122 265,122 239.38,154.88 239.44,175.12 217,175 217.25,154.38 "
           style="fill:#ed1c2e" /></g><g
         id="g5776" /></g><g
       id="XMLID_4_"><g
         id="g5779"><path
           id="path5781"
           d="m 258.92,103.84 c -21.97,0 -43.95,0 -65.92,0 C 177.73,77.79 144.48,55.68 106.43,58.57 74.1,61.02 52.02,81.45 36.54,103.84 55.47,65.11 85.82,32.24 138.2,28.39 199.51,23.88 240.9,60.7 258.92,103.84 Z"
           inkscape:connector-curvature="0"
           style="fill:#005bac" /><path
           id="path5783"
           d="m 189.61,239.63 c 32.34,-2.26 54.54,-22.56 70.149,-44.86 -19.149,38.62 -49.7,71.311 -102.1,74.86 -61.33,4.15 -102.51,-32.91 -120.28,-76.16 21.97,0.13 43.95,0.261 65.92,0.391 15.121,26.129 48.241,48.439 86.311,45.769 z"
           inkscape:connector-curvature="0"
           style="fill:#005bac" /></g><g
         id="g5785" /></g></g></svg>