<?xml version="1.0" encoding="UTF-8" standalone="no"?>
<!-- Generator: Adobe Illustrator 12.0.0, SVG Export Plug-In . SVG Version: 6.00 Build 51448)  -->

<svg
   xmlns:dc="http://purl.org/dc/elements/1.1/"
   xmlns:cc="http://creativecommons.org/ns#"
   xmlns:rdf="http://www.w3.org/1999/02/22-rdf-syntax-ns#"
   xmlns:svg="http://www.w3.org/2000/svg"
   xmlns="http://www.w3.org/2000/svg"
   xmlns:sodipodi="http://sodipodi.sourceforge.net/DTD/sodipodi-0.dtd"
   xmlns:inkscape="http://www.inkscape.org/namespaces/inkscape"
   version="1.1"
   id="Layer_1"
   width="150"
   height="150"
   viewBox="0 0 150 150"
   overflow="visible"
   enable-background="new 0 0 182.03 50.617"
   xml:space="preserve"
   inkscape:version="0.91 r"
   sodipodi:docname="pdvsa.svg"
   style="overflow:visible"><metadata
     id="metadata3517"><rdf:RDF><cc:Work
         rdf:about=""><dc:format>image/svg+xml</dc:format><dc:type
           rdf:resource="http://purl.org/dc/dcmitype/StillImage" /><dc:title></dc:title></cc:Work></rdf:RDF></metadata><defs
     id="defs3515" /><sodipodi:namedview
     pagecolor="#ffffff"
     bordercolor="#666666"
     borderopacity="1"
     objecttolerance="10"
     gridtolerance="10"
     guidetolerance="10"
     inkscape:pageopacity="0"
     inkscape:pageshadow="2"
     inkscape:window-width="975"
     inkscape:window-height="582"
     id="namedview3513"
     showgrid="false"
     inkscape:zoom="2"
     inkscape:cx="72.901676"
     inkscape:cy="85.3085"
     inkscape:window-x="49"
     inkscape:window-y="18"
     inkscape:window-maximized="1"
     inkscape:current-layer="Layer_1" /><path
     style="clip-rule:evenodd;fill:#ed1c24;fill-rule:evenodd"
     inkscape:connector-curvature="0"
     id="path3511"
     d="M 108.49616,80.934928 80.021121,54.050407 109.26266,27.636598 c 1.0289,1.547192 2.1631,2.708269 3.31973,4.383505 0.77168,1.417371 1.52697,2.48001 2.42637,4.027203 l 0,0.710972 -18.771319,17.646797 18.387189,17.532388 c 0,0.128044 -8.7e-4,0.21626 0.12863,0.472347 -0.51445,1.031461 -1.01769,1.798645 -1.65987,2.959929 -1.15663,1.548971 -2.28997,2.827725 -3.4466,4.501183 -0.38673,0.387687 -0.76391,0.678096 -1.15063,1.064006 z M 39.798374,80.344903 C 38.769469,78.927532 37.635265,77.743802 36.478636,76.198388 35.964183,75.294969 35.334088,74.506912 34.690135,73.47545 34.43291,72.829897 34.181719,72.353122 33.796766,71.579527 L 52.439456,53.766019 33.923635,35.929628 c 0.514452,-1.031461 1.017691,-1.919735 1.65987,-3.079241 1.156629,-1.675236 2.289977,-2.934894 3.446607,-4.738174 0.386725,-0.387687 0.765679,-0.67973 1.150631,-1.065639 L 68.784407,54.050407 39.925242,80.462581 Z M 116.2845,68.619598 101.21705,54.168085 l 15.19608,-14.09521 0.38237,0 c 0.51445,1.933102 1.01769,3.386365 1.65987,5.447511 0.25722,1.805058 0.50927,3.279197 0.7665,5.21052 0,1.805058 -8.6e-4,3.279054 0.12687,5.212156 -0.25723,2.317232 -0.50842,4.062684 -0.89337,6.511516 -0.51445,2.062923 -1.01769,3.621434 -1.65987,5.686135 -0.12773,0.128045 -0.25464,0.337206 -0.38237,0.593293 0,0.0035 8.7e-4,0.01364 -0.12863,-0.114407 z M 32.008267,67.789314 c -1.516746,-5.703271 -2.553238,-8.984063 -2.553238,-14.92386 0.448815,-4.509977 0.796909,-7.469797 2.042237,-11.844617 0.129501,-0.515731 0.380643,-0.895846 0.63787,-1.53962 0,0 0.126,0.01057 0.2555,-0.119314 L 47.586718,53.931095 32.135136,67.908627 Z m 24.006426,-50.93006 c -0.129499,-0.128043 -0.254631,-0.333793 -0.38413,-0.591659 0,0 -8.69e-4,-0.107169 0.128631,-0.23699 4.009177,-1.46183 7.467988,-2.220748 11.619083,-3.316232 l 6.768106,6.277796 c 0.127726,0 0.253774,-0.01032 0.511001,0.117674 2.313259,-2.190967 4.579941,-3.839328 6.894974,-6.160117 0.643953,0 1.273192,0.108802 1.915369,0.238625 1.928309,0.515731 3.945573,1.013524 6.001608,1.657298 1.28613,0.515731 2.545513,0.895846 3.959369,1.539621 0,0 -8.7e-4,0.107169 0.12863,0.23699 L 74.786014,33.796715 Z M 74.275014,54.079826 42.98948,24.202688 c 1.15663,-1.159504 2.41774,-2.039048 3.703869,-3.198553 0.386726,-0.257866 0.763048,-0.453106 1.277501,-0.710971 0.129499,-0.128044 0.25463,-0.216116 0.384131,-0.473981 0.899403,-0.515731 1.780702,-0.895846 2.680106,-1.539621 0.257226,-0.129822 0.635274,-0.226624 1.022,-0.354668 l 21.962427,20.727673 c 0.257227,0 0.509274,0.01057 0.7665,-0.119314 L 97.003941,18.400509 c 0.257226,0 0.508418,0.10553 0.893369,0.235357 1.54336,1.159504 3.05301,2.039048 4.72587,3.198552 0.51445,0.515732 1.01769,0.906212 1.65987,1.421944 0.12772,0 0.25463,-0.01032 0.38413,0.117674 0.38495,0.515732 0.88992,0.904434 1.40437,1.421944 -0.1295,0 -0.25554,0.107169 -0.51276,0.23699 0,0.129822 8.5e-4,0.22648 -0.12687,0.356303 z M 55.630563,91.890423 c 0,0 -8.69e-4,0.107169 0.128631,0.23699 3.492952,1.851296 6.88435,2.663565 11.619083,3.316232 l 7.136379,-6.571989 7.037702,6.336633 c 0.643953,0 1.273192,-0.107169 1.915369,-0.23699 1.928309,-0.517509 3.945573,-1.013236 6.001608,-1.660568 1.28613,-0.513952 2.545513,-0.892433 3.959369,-1.537986 0,0 -8.7e-4,-0.107169 0.12863,-0.236991 L 74.786014,74.362938 Z M 74.275014,54.079826 42.98948,83.95533 c 2.776267,2.781389 5.015675,3.753644 8.043845,5.921492 0.257225,0.1316 0.635274,0.228115 1.021999,0.357936 L 74.017752,69.503817 c 0.257226,0 0.509274,-0.01069 0.7665,0.120942 l 22.217927,20.132745 c 0.257226,0 0.508417,-0.107169 0.89337,-0.23699 1.543351,-1.159506 3.053011,-2.039048 4.725871,-3.198554 0.51445,-0.513952 1.01769,-0.902799 1.65987,-1.420307 0.12772,0 0.25463,0.01032 0.38413,-0.117675 0.38495,-0.517509 0.88991,-0.906355 1.40437,-1.420309 -0.1295,0 -0.25554,-0.107169 -0.51277,-0.23699 0,-0.128044 8.6e-4,-0.228115 -0.12687,-0.357937 z m -62.409541,70.339864 2.964637,0 c 1.923795,0 3.214827,-0.21376 3.863379,-0.64248 0.65341,-0.42873 0.980115,-1.18901 0.980115,-2.28087 0,-1.10278 -0.315774,-1.87278 -0.938821,-2.30151 -0.621833,-0.42872 -1.928654,-0.64855 -3.903459,-0.64855 l -2.964636,0 0,5.87341 z M 2.64,140.24363 l 0,-28.74033 11.818467,0 c 2.612427,0 4.689251,0.15303 6.214685,0.45908 1.525434,0.30606 2.806749,0.80037 3.831802,1.47443 1.326253,0.89874 2.317299,2.01124 2.964637,3.33871 0.65341,1.32625 0.980115,2.90269 0.980115,4.71961 0,3.20997 -0.949752,5.67544 -2.848043,7.37819 -1.89829,1.71004 -4.644314,2.56628 -8.216209,2.56628 l -5.521195,0 0,8.80282 -9.224259,0 z m 38.70545,-7.27738 2.475186,0 c 2.301511,0 3.903459,-0.51496 4.791271,-1.54001 0.887812,-1.02748 1.337183,-2.86748 1.337183,-5.52241 0,-2.58692 -0.459087,-4.42449 -1.367546,-5.50055 -0.908459,-1.08214 -2.459397,-1.6226 -4.643099,-1.6226 l -2.592995,0 z m -9.225473,7.27738 0,-28.74033 11.155341,0 c 2.832254,0 4.945514,0.12752 6.327635,0.38257 1.389408,0.25505 2.599067,0.67892 3.622905,1.26067 1.990594,1.16836 3.485665,2.81646 4.485212,4.93458 1.000762,2.11812 1.506002,4.73055 1.506002,7.82271 0,3.25247 -0.624262,5.99243 -1.86307,8.20528 -1.24488,2.21528 -3.077587,3.86945 -5.49569,4.94551 -0.933964,0.42994 -2.112046,0.73478 -3.519671,0.91332 -1.40884,0.18218 -3.673915,0.27569 -6.777007,0.27569 z m 28.662607,-28.74033 9.440443,0 4.837422,18.55904 5.189632,-18.55904 9.072444,0 -9.674844,28.74033 -9.190252,0 z m 30.302206,19.7857 8.9765,0 c 0.24533,1.04084 0.69349,1.79627 1.34082,2.24443 0.64856,0.45544 1.61774,0.68377 2.90513,0.68377 1.08213,0 1.93351,-0.18704 2.54563,-0.55504 0.61819,-0.36799 0.9291,-0.88295 0.9291,-1.53029 0,-1.04084 -1.29467,-1.88857 -3.88281,-2.53834 -0.51981,-0.12631 -0.91817,-0.22954 -1.18901,-0.29391 -2.11812,-0.54046 -3.80751,-1.04084 -5.062109,-1.49021 -1.255811,-0.45059 -2.169128,-0.87324 -2.741165,-1.26189 -1.101568,-0.79065 -1.933512,-1.74526 -2.484903,-2.84683 -0.551391,-1.10156 -0.831944,-2.3683 -0.831944,-3.78079 0,-2.84804 1.071204,-5.09247 3.213613,-6.71628 2.144837,-1.62259 5.103398,-2.43875 8.858688,-2.43875 3.69578,0 6.60455,0.78094 8.72145,2.33187 2.11812,1.55094 3.31685,3.7808 3.59254,6.67985 l -8.76153,0 c -0.1421,-0.84288 -0.52102,-1.47564 -1.12221,-1.88858 -0.6024,-0.419 -1.47078,-0.6279 -2.58328,-0.6279 -0.98862,0 -1.72461,0.16274 -2.20313,0.48945 -0.48095,0.32792 -0.72021,0.82223 -0.72021,1.48535 0,0.94976 1.26067,1.74527 3.78079,2.37803 0.21983,0.0619 0.39229,0.11173 0.50524,0.13845 0.36314,0.0862 0.91939,0.22469 1.65782,0.40808 3.34356,0.84773 5.53212,1.61774 6.55717,2.30151 1.2716,0.84652 2.20435,1.81085 2.78611,2.88812 0.58661,1.08214 0.88417,2.35738 0.88417,3.82573 0,3.17354 -1.1125,5.61472 -3.32778,7.31261 -2.21407,1.70518 -5.39853,2.55656 -9.53275,2.55656 -3.8063,0 -6.832872,-0.85138 -9.056653,-2.55292 -2.229854,-1.70153 -3.48445,-4.10628 -3.755287,-7.20208 z m 38.85848,-0.8781 5.79325,0 -2.86748,-9.95175 z m -11.86341,9.83273 10.10843,-28.74033 9.34328,0 10.10843,28.74033 -9.15382,0 -1.0712,-3.80751 -9.15017,0 -1.1125,3.80751 z"
     sodipodi:nodetypes="cccccccccccccccccccccccccccccccccccccccccccccccccccccccccccccccccccccccccccccccccccccccccccccccccccccccccccccccscscccccssccscsccccsscscscccccssccscccsccccccccccccccscsccccsscsccccscccccccscscccc" /></svg>