<?xml version="1.0" encoding="UTF-8" standalone="no"?>
<svg
   xmlns:dc="http://purl.org/dc/elements/1.1/"
   xmlns:cc="http://creativecommons.org/ns#"
   xmlns:rdf="http://www.w3.org/1999/02/22-rdf-syntax-ns#"
   xmlns:svg="http://www.w3.org/2000/svg"
   xmlns="http://www.w3.org/2000/svg"
   xmlns:sodipodi="http://sodipodi.sourceforge.net/DTD/sodipodi-0.dtd"
   xmlns:inkscape="http://www.inkscape.org/namespaces/inkscape"
   version="1.1"
   id="svg3429"
   viewBox="0 0 149.99999 149.99999"
   height="150"
   width="150"
   inkscape:version="0.91 r"
   sodipodi:docname="petroperu.svg">
  <sodipodi:namedview
     pagecolor="#ffffff"
     bordercolor="#666666"
     borderopacity="1"
     objecttolerance="10"
     gridtolerance="10"
     guidetolerance="10"
     inkscape:pageopacity="0"
     inkscape:pageshadow="2"
     inkscape:window-width="975"
     inkscape:window-height="582"
     id="namedview3516"
     showgrid="false"
     units="px"
     inkscape:zoom="3.0066667"
     inkscape:cx="75"
     inkscape:cy="75"
     inkscape:window-x="49"
     inkscape:window-y="18"
     inkscape:window-maximized="1"
     inkscape:current-layer="svg3429" />
  <defs
     id="defs3431" />
  <metadata
     id="metadata3434">
    <rdf:RDF>
      <cc:Work
         rdf:about="">
        <dc:format>image/svg+xml</dc:format>
        <dc:type
           rdf:resource="http://purl.org/dc/dcmitype/StillImage" />
        <dc:title></dc:title>
      </cc:Work>
    </rdf:RDF>
  </metadata>
  <g
     transform="matrix(0.10730136,0,0,0.10730136,-3.5816516,30.582437)"
     id="layer1">
    <path
       id="path3375"
       style="fill:#344d42;fill-opacity:1;fill-rule:nonzero;stroke:none"
       d="m 101.17469,864.96653 42.30167,0 c 7.71212,-0.0678 12.44698,-0.20278 14.20048,-0.40596 1.7494,-0.20819 3.39612,-0.76508 4.9443,-1.65508 1.97937,-1.16583 3.54806,-2.94062 4.70201,-5.30873 1.15394,-2.37332 2.25451,-6.06342 3.3181,-11.0807 1.0595,-5.02247 1.43319,-8.69695 1.11288,-11.03384 -0.32032,-2.33166 -1.40445,-4.02317 -3.24418,-5.05369 -1.35927,-0.75469 -7.17005,-1.23351 -17.42824,-1.44169 l -42.29756,0 z m -48.555962,69.59128 29.752019,-140.72833 76.057593,0 c 15.0793,0 24.70507,0.37473 28.88555,1.13981 10.61545,1.84766 17.11203,6.34446 19.48562,13.44879 2.37359,7.11475 1.6303,19.80888 -2.23397,38.09798 -3.67948,17.38873 -7.85585,29.5936 -12.54144,36.59385 -3.17026,4.74663 -6.96883,8.35865 -11.3957,10.82566 -4.43098,2.48262 -10.13909,4.20014 -17.11614,5.1578 -4.97304,0.68701 -14.04853,1.03573 -27.23059,1.03573 l -42.539853,0 -7.28093,34.42871 z"
       inkscape:connector-curvature="0" />
    <path
       id="path3379"
       style="fill:#344d42;fill-opacity:1;fill-rule:nonzero;stroke:none"
       d="m 514.53766,863.62997 47.58684,0 c 8.34043,-0.20817 13.3299,-0.39014 14.96431,-0.56729 1.63851,-0.17197 3.12098,-0.70784 4.4474,-1.59784 1.71243,-1.17104 3.10866,-2.90418 4.19279,-5.20984 1.08413,-2.29525 2.11899,-5.78756 3.10867,-10.46133 0.97326,-4.60611 1.36338,-8.04117 1.16626,-10.3104 -0.20138,-2.26922 -1.03485,-3.9191 -2.49678,-4.9444 -1.04717,-0.69223 -2.38592,-1.1034 -4.00801,-1.24392 -1.62619,-0.13533 -6.33642,-0.23941 -14.12656,-0.30729 l -47.50879,0 z m -48.83928,70.92887 29.75612,-140.72832 81.7534,0 c 19.18174,0.0729 30.62672,0.32768 34.33084,0.77029 3.69587,0.44759 7.02221,2.04541 9.96658,4.79868 3.54807,3.22687 5.5069,7.68726 5.88063,13.3499 0.37366,5.66786 -0.72279,14.58342 -3.29349,26.75186 -2.16827,10.24274 -4.25851,17.76865 -6.28304,22.57774 -2.0204,4.8143 -4.7143,8.66053 -8.08989,11.5491 -3.64252,3.09677 -8.59093,5.22546 -14.85342,6.3913 6.95239,0.69222 11.50246,3.26332 13.6543,7.73931 1.22376,2.67519 1.67137,5.92288 1.35517,9.73789 -0.31604,3.82021 -1.76172,11.80411 -4.33653,23.96738 l -2.76782,13.09487 -33.35347,0 1.59334,-7.52071 c 1.65495,-7.83819 2.60355,-13.42276 2.84995,-16.75895 0.2464,-3.33096 -0.0657,-5.89165 -0.9363,-7.68205 -0.90344,-1.64466 -2.40233,-2.69079 -4.50079,-3.1384 -2.10666,-0.44759 -6.65262,-0.67139 -13.6502,-0.67139 l -47.66897,0 -7.56018,35.7715 z"
       inkscape:connector-curvature="0" />
    <path
       id="path3383"
       style="fill:#344d42;fill-opacity:1;fill-rule:nonzero;stroke:none"
       d="m 712.67097,828.37166 c -17.94973,0 -28.865,0.57771 -32.74981,1.74874 -4.4679,1.37924 -7.85581,4.44997 -10.15963,9.22784 -2.31606,4.77787 -4.973,14.28153 -7.98311,28.50583 -1.8151,8.59285 -2.77604,14.81241 -2.89102,18.66385 -0.15605,7.14597 3.07577,11.23682 9.69148,12.26734 4.87035,0.82753 14.57418,1.24389 29.10726,1.24389 13.60917,0 22.73395,-0.31768 27.36615,-0.93682 4.6322,-0.61415 8.25418,-1.99339 10.87417,-4.11687 2.36127,-1.93092 4.28725,-4.75705 5.78614,-8.50959 1.4989,-3.74214 3.14562,-9.87842 4.9484,-18.40361 2.13542,-10.10222 3.43309,-17.52925 3.89713,-22.26547 0.45993,-4.74664 0.23424,-8.31702 -0.66526,-10.72677 -1.15395,-3.0239 -3.71233,-4.89236 -7.67517,-5.62101 -3.97103,-0.71824 -13.81857,-1.07735 -29.54673,-1.07735 m 7.65467,-36.60427 c 23.96999,0 40.29767,0.75988 48.97894,2.26923 12.49626,2.20156 18.7916,9.99811 18.89017,23.40527 0.0575,9.21222 -2.22986,24.77411 -6.86617,46.70127 -4.64862,22.00001 -8.9523,37.60353 -12.90281,46.81055 -5.76561,13.39674 -15.35854,21.20371 -28.78698,23.40006 -9.32189,1.51455 -25.85905,2.26924 -49.61135,2.26924 -24.18767,0 -40.62212,-0.75469 -49.30746,-2.26924 -12.49215,-2.19635 -18.79162,-10.00332 -18.88197,-23.40006 -0.0657,-9.20702 2.29147,-25.08639 7.05918,-47.63289 4.52953,-21.44312 8.76751,-36.73957 12.70977,-45.87893 5.76154,-13.40716 15.35447,-21.20371 28.77881,-23.40527 9.2726,-1.50935 25.91649,-2.26923 49.93987,-2.26923"
       inkscape:connector-curvature="0" />
    <path
       id="path3387"
       style="fill:#d74137;fill-opacity:1;fill-rule:nonzero;stroke:none"
       d="m 829.40525,864.97693 42.30171,0 c 7.71622,-0.0729 12.44698,-0.20817 14.20049,-0.41636 1.75349,-0.20277 3.40022,-0.75467 4.94429,-1.64467 1.98346,-1.17105 3.54807,-2.94062 4.70201,-5.30874 1.15394,-2.37852 2.25861,-6.0686 3.3181,-11.0911 1.06359,-5.01206 1.4373,-8.69174 1.11698,-11.02863 -0.32425,-2.33687 -1.40444,-4.01798 -3.24829,-5.05371 -1.35927,-0.74947 -7.16595,-1.2335 -17.42823,-1.44169 l -42.2976,0 z m -48.55185,69.59128 29.75203,-140.72832 76.05762,0 c 15.07928,0 24.70506,0.37473 28.88553,1.1294 10.61547,1.85806 17.10794,6.34446 19.4856,13.45401 2.36948,7.11994 1.62623,19.81406 -2.23804,38.09276 -3.67948,17.39393 -7.85585,29.5936 -12.53733,36.60427 -3.17026,4.74142 -6.97294,8.34823 -11.3998,10.82565 -4.42688,2.47221 -10.13499,4.18973 -17.11614,5.1578 -4.97305,0.68181 -14.04444,1.02532 -27.2265,1.02532 l -42.54396,0 -7.27682,34.43911 z"
       inkscape:connector-curvature="0" />
    <path
       id="path3391"
       style="fill:#d74137;fill-opacity:1;fill-rule:nonzero;stroke:none"
       d="m 955.07629,793.83989 122.99981,0 -6.9976,33.08591 -89.64634,0 -4.29543,20.31371 85.09207,0 -6.5377,30.93119 -85.09205,0 -4.77181,22.57775 90.29516,0 -7.1496,33.81976 -123.64856,0 z"
       inkscape:connector-curvature="0" />
    <path
       id="path3395"
       style="fill:#d74137;fill-opacity:1;fill-rule:nonzero;stroke:none"
       d="m 1108.3866,863.63464 47.5867,0 c 8.3405,-0.20277 13.33,-0.39555 14.9643,-0.56732 1.6386,-0.17153 3.117,-0.70262 4.4434,-1.59781 1.7165,-1.17104 3.1086,-2.90418 4.1968,-5.20986 1.0842,-2.29523 2.1191,-5.78755 3.1046,-10.46652 0.9732,-4.60612 1.3634,-8.04118 1.1663,-10.3052 -0.1971,-2.26922 -1.0307,-3.91388 -2.4927,-4.94961 -1.0472,-0.68181 -2.3859,-1.09818 -4.0121,-1.2387 -1.6262,-0.13533 -6.3323,-0.23942 -14.1265,-0.30729 l -47.5089,0 z m -48.8394,70.93408 29.7561,-140.72834 81.7535,0 c 19.1817,0.0678 30.6267,0.32269 34.3266,0.76509 3.7001,0.4528 7.0223,2.05063 9.9667,4.79347 3.548,3.23209 5.5069,7.68725 5.8847,13.35512 0.3695,5.67305 -0.7269,14.5886 -3.2976,26.75706 -2.1682,10.23753 -4.2585,17.76345 -6.2789,22.57774 -2.0245,4.8091 -4.7184,8.66052 -8.0941,11.54911 -3.6383,3.09154 -8.5867,5.22546 -14.8534,6.38609 6.9565,0.68702 11.5066,3.2685 13.6544,7.7341 1.2237,2.6804 1.6755,5.93329 1.3592,9.74309 -0.316,3.815 -1.7658,11.80412 -4.3365,23.97258 l -2.7679,13.09489 -33.3534,0 1.5933,-7.52592 c 1.6509,-7.83299 2.6037,-13.42278 2.85,-16.75896 0.2422,-3.32576 -0.066,-5.89164 -0.9404,-7.67685 -0.8994,-1.64985 -2.3982,-2.696 -4.5008,-3.13839 -2.1026,-0.44759 -6.6485,-0.6766 -13.646,-0.6766 l -47.6691,0 -7.5601,35.77672 z"
       inkscape:connector-curvature="0" />
    <path
       id="path3419"
       style="fill:#d74137;fill-opacity:1;fill-rule:nonzero;stroke:none"
       d="m 664.65377,1016.7958 c 0,0 -7.86817,2.1651 -9.79825,6.3965 -2.57071,5.6314 9.79825,3.1384 13.73233,2.7637 1.58103,-0.1562 234.58721,-31.7171 309.53193,-33.01827 74.94482,-1.30115 227.91422,-6.5058 274.11302,-3.03951 50.6462,4.34068 117.8089,8.57205 117.8089,8.57205 0,0 13.0876,1.62383 19.7608,-6.83369 6.6731,-8.45755 20.7915,-27.97495 10.5251,-29.5988 0,0 -192.2445,-11.60115 -297.6434,-2.93023 -119.09034,3.47672 -365.47982,35.56854 -438.03043,57.68825"
       inkscape:connector-curvature="0" />
    <path
       id="path3423"
       style="fill:#d74137;fill-opacity:1;fill-rule:nonzero;stroke:none"
       d="m 1389.3651,763.61078 -33.8134,0 -20.0933,94.87023 c -0.8583,4.05441 -2.0944,9.23824 -3.7001,15.56187 -1.581,6.19353 -2.891,10.55501 -3.9464,13.10009 -1.0554,2.53986 -2.39,4.70499 -4.0162,6.49019 -2.4393,2.54508 -6.0161,4.24699 -10.7222,5.10054 -4.7103,0.86397 -12.9234,1.29075 -24.6312,1.29075 -14.4304,0 -23.8303,-0.85356 -28.2161,-2.57629 -4.3817,-1.71753 -6.4268,-5.32435 -6.127,-10.82044 0.1767,-3.92431 1.7494,-13.30308 4.7307,-28.14671 l 13.6667,-64.64166 -33.8422,0 -13.6667,64.64166 c -3.3837,16.4935 -5.4534,27.00688 -6.2214,31.54533 -0.7678,4.54365 -1.3674,9.58696 -1.7822,15.15592 -1.0718,14.57299 3.9464,23.64468 15.071,27.22028 5.0306,1.577 11.1165,2.6804 18.2578,3.29974 7.1331,0.61415 17.3996,0.93163 30.7951,0.93163 17.8389,0 30.7869,-0.5569 38.8275,-1.65507 8.0407,-1.1034 14.5372,-3.23209 19.4898,-6.3913 8.7018,-5.4961 14.9765,-14.15663 18.8368,-25.97637 2.2216,-6.943 5.9011,-21.65653 11.0343,-44.13016 z"
       inkscape:connector-curvature="0" />
    <path
       id="path3427"
       style="fill:#344d42;fill-opacity:1;fill-rule:nonzero;stroke:none"
       d="m 408.67758,793.82948 0,-0.0167 -160.84165,0 0,0.0167 -20.99273,0 -29.75202,140.72833 123.6485,0 7.14952,-33.80936 -90.29502,0 4.77181,-22.58295 85.09202,0 6.53765,-30.92599 -85.08792,0 3.6918,-17.47719 142.52226,0 -22.15489,104.79549 35.54641,0 22.16721,-104.84753 49.38138,0 7.5807,-35.8808 z"
       inkscape:connector-curvature="0" />
    <path
       id="path3399"
       style="fill:#344d42;fill-opacity:1;fill-rule:nonzero;stroke:none"
       d="m 846.65223,490.962 -196.15649,0 c -5.39686,0 -9.79423,-10.56699 -9.79423,-23.59961 0,-13.00745 4.39737,-23.57443 9.79423,-23.57443 l 196.15649,0 c 5.43939,0 9.83851,10.56698 9.83851,23.57443 0,13.03262 -4.39912,23.59961 -9.83851,23.59961 m 7.73416,-122.30029 -217.19156,-0.20128 c -47.29684,-2.51595 -64.54978,5.35897 -80.52786,41.56349 l -13.23632,139.08166 198.87621,100.68829 4.52486,0 200.68312,-101.59402 -12.7061,-138.17593 c -15.9576,-36.00324 -33.23093,-43.87816 -80.42235,-41.36221 m 133.60405,-78.09506 c -13.7038,10.91922 -26.4523,36.4561 -23.3297,65.69143 3.017,28.40507 16.0426,175.13522 16.0426,175.13522 l 180.94326,-91.58055 42.0054,-303.09638 -215.66156,153.64901 0,0.20127 z M 281.74695,71.653927 l 930.95655,0 8.5635,-61.867196 -947.4462,0 7.92615,61.867196 z m 900.70015,28.304421 -157.6766,0 c 10.9637,10.516672 19.5902,26.341982 23.2226,45.412882 3.5492,18.56771 1.6489,36.65737 -4.0573,51.52664 l 138.5113,-96.939522 z m -933.80369,-286.717558 19.95051,155.661771 958.32498,0 21.5874,-155.661771 -999.86289,0 z m 223.52326,286.717558 -156.76374,0 L 452.704,196.0676 c -5.46144,-14.69314 -7.24624,-32.4809 -3.76165,-50.69637 3.63417,-19.0709 12.23853,-34.89621 23.22432,-45.412882 M 505.2906,287.06948 289.6714,133.52111 l 39.3299,307.02126 181.26122,91.80699 c 0,0 16.00018,-170.95874 17.04046,-180.7961 2.99674,-28.30442 -8.81685,-52.96073 -22.01238,-64.48378 M 880.13822,99.958348 859.80533,325.46286 996.08644,230.43547 c -21.9273,-3.74877 -41.7521,-26.49294 -47.8288,-58.39519 -5.4598,-28.55602 1.6998,-56.15597 16.5101,-72.081932 l -84.62952,0 z M 501.59355,230.28452 637.04695,325.9409 618.90162,99.958348 l -86.73213,0 c 14.80863,15.925962 21.94778,43.525912 16.50843,72.081932 -6.03427,31.55001 -25.47485,54.16839 -47.08437,58.24424 m 192.16202,110.80239 111.29415,0 c 13.79046,-2.26435 25.15699,-13.30938 26.58145,-27.27288 l 19.12275,-213.855682 -202.46792,0 c 0,0 19.25021,209.628882 19.29269,210.157222 1.84939,20.45467 12.45101,29.6882 26.17688,30.97134"
       inkscape:connector-curvature="0" />
    <path
       id="path3403"
       style="fill:#344d42;fill-opacity:1;fill-rule:nonzero;stroke:none"
       d="m 291.77066,461.86998 c 0,36.0787 -24.66746,65.26372 -55.11592,65.26372 -30.42635,0 -55.1159,-29.18502 -55.1159,-65.26372 0,-36.02839 24.68955,-65.26372 55.1159,-65.26372 30.44846,0 55.11592,29.23533 55.11592,65.26372"
       inkscape:connector-curvature="0" />
    <path
       id="path3407"
       style="fill:#344d42;fill-opacity:1;fill-rule:nonzero;stroke:none"
       d="m 235.3323,384.03416 c 18.27282,0 34.44129,9.83736 45.53245,25.00853 l -52.82117,-421.270509 -101.69034,0 54.77595,436.743599 c 9.77382,-23.87636 30.27847,-40.48162 54.20311,-40.48162"
       inkscape:connector-curvature="0" />
    <path
       id="path3411"
       style="fill:#344d42;fill-opacity:1;fill-rule:nonzero;stroke:none"
       d="m 1255.2102,384.03416 c 24.9446,0 46.34,17.93872 55.5614,43.50076 l 55.1379,-439.762739 -101.6903,0 -52.4388,418.226219 c 11.0063,-13.46033 26.3469,-21.96424 43.4298,-21.96424"
       inkscape:connector-curvature="0" />
    <path
       id="path3415"
       style="fill:#344d42;fill-opacity:1;fill-rule:nonzero;stroke:none"
       d="m 1310.3211,461.86998 c 0,36.0787 -24.6692,65.26372 -55.1159,65.26372 -30.4264,0 -55.1159,-29.18502 -55.1159,-65.26372 0,-36.02839 24.6895,-65.26372 55.1159,-65.26372 30.4467,0 55.1159,29.23533 55.1159,65.26372"
       inkscape:connector-curvature="0" />
  </g>
</svg>
