<?xml version="1.0" encoding="UTF-8" standalone="no"?>
<svg
   xmlns:dc="http://purl.org/dc/elements/1.1/"
   xmlns:cc="http://creativecommons.org/ns#"
   xmlns:rdf="http://www.w3.org/1999/02/22-rdf-syntax-ns#"
   xmlns:svg="http://www.w3.org/2000/svg"
   xmlns="http://www.w3.org/2000/svg"
   xmlns:sodipodi="http://sodipodi.sourceforge.net/DTD/sodipodi-0.dtd"
   xmlns:inkscape="http://www.inkscape.org/namespaces/inkscape"
   viewBox="0 0 150 150"
   height="150"
   width="150"
   xml:space="preserve"
   id="svg2"
   version="1.1"
   inkscape:version="0.91 r"
   sodipodi:docname="petrobras.svg"><sodipodi:namedview
     pagecolor="#ffffff"
     bordercolor="#666666"
     borderopacity="1"
     objecttolerance="10"
     gridtolerance="10"
     guidetolerance="10"
     inkscape:pageopacity="0"
     inkscape:pageshadow="2"
     inkscape:window-width="975"
     inkscape:window-height="582"
     id="namedview3445"
     showgrid="false"
     inkscape:zoom="1.4142136"
     inkscape:cx="89.09774"
     inkscape:cy="104.80546"
     inkscape:window-x="49"
     inkscape:window-y="18"
     inkscape:window-maximized="1"
     inkscape:current-layer="svg2" /><metadata
     id="metadata8"><rdf:RDF><cc:Work
         rdf:about=""><dc:format>image/svg+xml</dc:format><dc:type
           rdf:resource="http://purl.org/dc/dcmitype/StillImage" /><dc:title></dc:title></cc:Work></rdf:RDF></metadata><defs
     id="defs6" /><g
     transform="matrix(0.80176339,0,0,-0.80176339,-254.67041,189.53557)"
     id="g10"><g
       transform="scale(0.1,0.1)"
       id="g12"><path
         id="path18"
         style="fill:#008a5b;fill-opacity:1;fill-rule:evenodd;stroke:none"
         d="m 3817.5987,1711.2605 106.3768,0 c 21.079,0 40.2712,-12.2916 40.2712,-32.571 0,-27.3385 -24.0361,-46.4725 -57.3567,-46.4725 l -113.8629,0 24.5716,79.0435"
         inkscape:connector-curvature="0"
         sodipodi:nodetypes="cssscc" /><path
         id="path20"
         style="fill:#008a5b;fill-opacity:1;fill-rule:evenodd;stroke:none"
         d="m 4340.8756,1710.7651 100.4939,0 c 47.5757,0 49.554,-29.382 49.554,-37.7415 0,-19.5209 -18.9763,-57.8971 -76.8121,-57.8971 l -102.3932,0 c 0,0 28.6098,93.2855 29.1574,95.6386"
         inkscape:connector-curvature="0"
         sodipodi:nodetypes="cssscc" /><path
         id="path22"
         style="fill:#008a5b;fill-opacity:1;fill-rule:evenodd;stroke:none"
         d="m 3767.2936,1550.1549 91.9794,0 c 45.0315,0 47.5913,-11.0841 53.7941,-20.5891 6.1617,-9.4431 3.3213,-29.382 -0.9497,-36.2399 -5.3728,-8.6381 -14.4804,-35.373 -72.0466,-35.373 l -102.1537,0 c 0,0 29.3371,92.0781 29.3765,92.202"
         inkscape:connector-curvature="0"
         sodipodi:nodetypes="csccscc" /><path
         id="path24"
         style="fill:#008a5b;fill-opacity:1;fill-rule:evenodd;stroke:none"
         d="m 4739.3093,1796.7439 0,-733.0299 -1276.1001,0 0,733.0299 245.5454,0 -136.0339,-426.7047 278.4844,0 c 120.6347,0 141.6686,25.5428 166.1461,44.1659 32.7114,24.8617 50.2504,84.0591 35.5587,125.2372 -10.3933,29.1189 -40.7656,46.7357 -44.0869,47.5871 37.6908,15.8675 59.6273,50.6522 62.3343,55.7608 13.9832,26.3787 24.8249,74.1517 -9.9519,112.5742 -28.9144,31.9518 -85.0938,40.7448 -125.8543,41.3795 l 298.169,0 -136.5215,-427.5717 138.1813,0 50.4779,162.1119 78.9339,0 c 57.2859,0 52.1377,-32.3852 53.558,-46.3177 l 4.4831,-119.2308 128.3338,0.047 c 0,0 -5.7836,133.798 -6.2627,143.6127 -1.7283,34.3357 -26.8645,49.8473 -48.2534,49.8473 41.101,10.0623 76.7778,43.8871 91.0485,65.5909 16.4609,25.0164 28.8494,64.8168 12.5596,104.3386 -23.5963,57.3708 -84.4779,66.8912 -127.0163,67.5724 l 266.267,0"
         inkscape:connector-curvature="0"
         sodipodi:nodetypes="ccccccsccccccccccsccccccccc" /><path
         id="path26"
         style="fill:#fab215;fill-opacity:1;fill-rule:evenodd;stroke:none"
         d="m 3463.2092,1936.8888 1276.0932,0 0,280.2824 -1276.0932,0 z"
         inkscape:connector-curvature="0"
         sodipodi:nodetypes="ccccc" /><path
         id="path28"
         style="fill:#008a5b;fill-opacity:1;fill-rule:evenodd;stroke:none"
         d="m 4631.6175,800.30014 c 0.49,0.973 0.97,2.43 0.97,3.391 4.38,14.093 4.38,25.258 -0.97,33.515 -7.76,12.633 -28.16,18.938 -65.07,18.938 l -86.91,0 -51.96,-183.559 60.21,0 17.97,63.61 18.45,0 c 11.16,0 17.96,-0.965 21.85,-3.883 6.31,-4.852 5.34,-13.113 0.97,-27.684 0,-1.445 -0.49,-2.426 -0.97,-3.398 -3.89,-14.563 -5.34,-24.766 -4.85,-28.645 l 60.7,0 1.45,5.344 c -6.8,0 -3.89,8.254 2.92,32.047 10.68,37.394 0,41.769 -17,49.043 21.85,5.344 35.93,21.851 42.24,41.281 z m -57.3,-6.312 c -2.91,-11.661 -12.62,-16.512 -28.16,-17 -1.45,-0.481 -3.4,-0.481 -5.34,-0.481 l -23.31,0 10.2,36.414 28.16,0 c 13.6,0 22.34,-5.82 18.45,-18.933"
         inkscape:connector-curvature="0"
         sodipodi:nodetypes="cccsccccscccccccccccsccsc" /><path
         id="path30"
         style="fill:#008a5b;fill-opacity:1;fill-rule:evenodd;stroke:none"
         d="m 3316.6275,856.14414 -88.3794,0 -52.4453,-183.559 60.2188,0 16.0239,56.813 30.593,0 c 3.395,0 6.797,0.484 9.711,0.484 46.617,2.914 74.297,27.199 84.488,64.106 10.688,37.879 -7.761,62.156 -60.21,62.156 z m 2.91,-62.156 c -3.883,-15.059 -14.563,-20.879 -27.188,-21.368 -0.969,0 -1.941,-0.484 -2.914,-0.484 l -25.254,0 11.653,40.785 17,0 c 13.109,0 31.566,-1.941 26.703,-18.933"
         inkscape:connector-curvature="0"
         sodipodi:nodetypes="sccccsccsccsccsc" /><path
         id="path32"
         style="fill:#008a5b;fill-opacity:1;fill-rule:evenodd;stroke:none"
         d="m 4356.7675,856.14414 -87.4,0 -52.44,-183.559 89.83,0 11.65,0 c 41.76,2.434 72.36,17.481 83.04,55.36 5.34,19.91 -0.48,36.906 -18.94,41.761 14.08,7.282 30.11,21.368 35.45,40.309 10.2,36.418 -19.9,46.129 -61.19,46.129 z m -10.19,-123.832 c -3.89,-13.113 -14.58,-16.512 -28.17,-16.996 l -2.91,0 -26.22,0 9.71,33.996 19.42,0 c 18.95,0 32.54,-0.977 28.17,-17 z m 12.14,66.527 c -2.91,-11.168 -13.11,-16.512 -25.25,-16.512 l -24.76,0 8.73,30.594 20.89,0 c 12.62,0 24.28,0 20.39,-14.082"
         inkscape:connector-curvature="0"
         sodipodi:nodetypes="scccccccscccccsccsccsc" /><path
         id="path34"
         style="fill:#008a5b;fill-opacity:1;fill-rule:evenodd;stroke:none"
         d="m 3780.8615,831.86714 6.801,24.277 -168.508,0 -13.598,-48.563 53.906,0 -38.367,-134.996 60.215,0 38.363,134.996 54.387,0 6.801,24.286"
         inkscape:connector-curvature="0"
         sodipodi:nodetypes="cccccccccc" /><path
         id="path36"
         style="fill:#008a5b;fill-opacity:1;fill-rule:evenodd;stroke:none"
         d="m 3379.7595,672.58514 152.961,0 12.141,42.731 -92.75,0 8.254,28.656 75.269,0 12.625,42.727 -75.754,0 7.286,26.222 89.347,0 12.141,43.223 -149.563,0 -51.957,-183.559"
         inkscape:connector-curvature="0"
         sodipodi:nodetypes="ccccccccccccc" /><path
         id="path38"
         style="fill:#008a5b;fill-opacity:1;fill-rule:evenodd;stroke:none"
         d="m 4130.9745,860.99914 c -9.226,0 -18.453,-1.457 -27.187,-2.914 -45.168,-10.195 -82.071,-44.187 -95.668,-92.265 -17.969,-62.637 10.683,-98.086 67.984,-98.086 9.227,0 18.453,0.968 27.684,2.91 43.7,9.711 81.57,42.734 96.62,94.695 13.6,48.071 -3.88,95.66 -69.433,95.66 z m 9.227,-95.66 c -6.797,-24.281 -18.938,-43.222 -36.414,-50.023 -4.864,-1.938 -9.715,-2.914 -15.059,-2.914 -28.648,0 -27.191,29.625 -20.883,52.937 5.348,18.934 17,40.301 35.942,48.071 4.363,1.457 8.734,2.429 14.078,2.429 26.707,0.969 29.132,-25.734 22.336,-50.5"
         inkscape:connector-curvature="0"
         sodipodi:nodetypes="sccsccsccscccc" /><path
         id="path40"
         style="fill:#008a5b;fill-opacity:1;fill-rule:evenodd;stroke:none"
         d="m 4745.7375,856.14414 -3.89,-6.305 -110.23,-171.91 -3.4,-5.344 58.76,0 13.6,24.282 60.21,0 0,-24.282 59.74,0 -13.61,183.559 z m -3.89,-121.399 -18.93,0 18.93,33.504 18.46,32.539 0.48,-66.043 -18.94,0"
         inkscape:connector-curvature="0"
         sodipodi:nodetypes="ccccccccccccccccc" /><path
         id="path42"
         style="fill:#008a5b;fill-opacity:1;fill-rule:evenodd;stroke:none"
         d="m 3912.4515,856.14414 -86.434,0 -45.156,-159.758 -6.801,-23.801 59.727,0 18.457,63.61 18.449,0 c 10.684,0 17.969,-0.965 21.852,-3.883 5.832,-4.852 4.855,-13.113 0.968,-27.684 -0.484,-1.445 -0.484,-2.426 -0.968,-3.398 -3.883,-14.563 -5.34,-24.766 -4.856,-28.645 l 60.699,0 1.457,5.344 c -6.797,0 -3.883,8.254 2.918,32.047 10.684,37.394 0,41.769 -17.484,49.043 23.308,5.832 37.879,23.308 43.703,44.672 10.199,35.461 -5.34,52.453 -66.531,52.453 z m 8.261,-62.156 c -3.398,-11.661 -12.625,-16.512 -28.167,-17 -1.458,-0.481 -3.399,-0.481 -5.34,-0.481 l -23.793,0 10.683,36.414 27.676,0 c 14.082,0 22.824,-5.82 18.941,-18.933"
         inkscape:connector-curvature="0"
         sodipodi:nodetypes="scccccscccccccccsccsccsc" /><path
         id="path44"
         style="fill:#008a5b;fill-opacity:1;fill-rule:evenodd;stroke:none"
         d="m 4969.1075,818.26514 c 5.83,0 11.18,-0.973 14.57,-2.914 3.89,-2.43 5.83,-6.313 5.34,-12.621 l 56.82,0 c 4.85,32.051 -10.69,58.269 -61.67,58.269 -46.13,0 -85.47,-19.906 -96.15,-58.761 -19.91,-69.926 90.81,-50.985 83.04,-78.668 -2.43,-8.739 -14.09,-13.594 -28.66,-13.594 -6.31,0 -12.13,1.457 -16.01,4.371 -4.37,3.406 -6.32,8.25 -5.83,14.566 l -57.79,0 c -7.77,-33.015 15.54,-61.179 64.1,-61.179 50.5,0 91.78,20.39 103.91,63.121 18.94,66.531 -91.29,49.535 -83.52,77.215 1.46,6.797 8.75,10.195 21.85,10.195"
         inkscape:connector-curvature="0"
         sodipodi:nodetypes="ccccsccscccsccc" /></g></g></svg>