<?xml version="1.0" encoding="UTF-8" standalone="no"?>
<!-- Created with Inkscape (http://www.inkscape.org/) -->

<svg
   xmlns:dc="http://purl.org/dc/elements/1.1/"
   xmlns:cc="http://creativecommons.org/ns#"
   xmlns:rdf="http://www.w3.org/1999/02/22-rdf-syntax-ns#"
   xmlns:svg="http://www.w3.org/2000/svg"
   xmlns="http://www.w3.org/2000/svg"
   xmlns:sodipodi="http://sodipodi.sourceforge.net/DTD/sodipodi-0.dtd"
   xmlns:inkscape="http://www.inkscape.org/namespaces/inkscape"
   width="150"
   height="150"
   viewBox="0 0 150.00001 150.00001"
   id="svg3974"
   version="1.1"
   inkscape:version="0.91 r"
   sodipodi:docname="queiroz-galvao.svg">
  <defs
     id="defs3976">
    <clipPath
       clipPathUnits="userSpaceOnUse"
       id="clipPath3804">
      <path
         d="m 107.956,211.527 384.245,0 0,98.446 -384.245,0 0,-98.446 z"
         id="path3806"
         inkscape:connector-curvature="0" />
    </clipPath>
    <clipPath
       clipPathUnits="userSpaceOnUse"
       id="clipPath3776">
      <path
         d="m 107.956,211.527 384.245,0 0,98.446 -384.245,0 0,-98.446 z"
         id="path3778"
         inkscape:connector-curvature="0" />
    </clipPath>
    <clipPath
       clipPathUnits="userSpaceOnUse"
       id="clipPath3788">
      <path
         d="m 0,419.528 595.276,0 L 595.276,0 0,0 0,419.528 Z"
         id="path3790"
         inkscape:connector-curvature="0" />
    </clipPath>
  </defs>
  <sodipodi:namedview
     id="base"
     pagecolor="#ffffff"
     bordercolor="#666666"
     borderopacity="1.0"
     inkscape:pageopacity="0.0"
     inkscape:pageshadow="2"
     inkscape:zoom="3.0066667"
     inkscape:cx="70.011086"
     inkscape:cy="75"
     inkscape:document-units="px"
     inkscape:current-layer="layer1"
     showgrid="false"
     units="px"
     inkscape:window-width="975"
     inkscape:window-height="582"
     inkscape:window-x="49"
     inkscape:window-y="18"
     inkscape:window-maximized="1" />
  <metadata
     id="metadata3979">
    <rdf:RDF>
      <cc:Work
         rdf:about="">
        <dc:format>image/svg+xml</dc:format>
        <dc:type
           rdf:resource="http://purl.org/dc/dcmitype/StillImage" />
        <dc:title></dc:title>
      </cc:Work>
    </rdf:RDF>
  </metadata>
  <g
     inkscape:label="Capa 1"
     inkscape:groupmode="layer"
     id="layer1"
     transform="translate(0,-902.36214)">
    <g
       id="g4026"
       transform="matrix(0.7817087,0,0,0.7817087,-70.43207,821.17028)">
      <g
         id="g3772"
         transform="matrix(1.25,0,0,-1.25,-23.664873,504.01418)">
        <g
           clip-path="url(#clipPath3776)"
           id="g3774">
          <g
             transform="translate(108.0303,211.5273)"
             id="g3780">
            <path
               inkscape:connector-curvature="0"
               id="path3782"
               style="fill:#f4731c;fill-opacity:1;fill-rule:nonzero;stroke:none"
               d="m 0,0 40.411,0.011 c 0,0 34.075,-0.354 53.95,16.421 1.902,1.648 8.55,7.247 14.469,23.284 l 13.773,44.595 c 0,0.396 2.591,9.491 -15.343,12.993 -5.516,1.071 -14.325,1.538 -25.501,0.752 C 72.188,97.304 63.015,96.301 61.296,96.051 50.665,94.364 41.604,92.223 40.29,91.755 37.732,90.821 19.465,86.997 7.558,77.042 3.207,73.39 -1.548,68.023 0.971,61.05 1.3,60.183 2.354,56.296 6.591,53.863 9.43,52.22 13.675,51.59 16.207,51.351 c 1.277,-0.118 3.496,-0.142 3.496,-0.142 l 18.757,0.004 8.656,6.31 -19.998,0.024 c 0,0 -1.477,0.056 -1.816,0.101 -13.924,1.608 -17.156,13.728 -4.818,22.009 8.186,5.513 15.861,8.624 28.538,11.487 8.473,1.901 0,0 0,0 0,0 14.171,3.726 36.21,4.76 0,0 7.491,0.322 13.773,-0.138 6.022,-0.474 8.917,-1.509 10.734,-2.471 7.169,-3.795 2.963,-10.881 2.894,-11.062 0,0 -19.988,-40.342 -26.97,-48.616 -3.72,-4.401 -7.239,-9.125 -15.927,-13.032 -8.591,-3.821 -15.131,-4.6 -32.413,-5.566 l -37.3,0.01" />
          </g>
        </g>
      </g>
      <g
         id="g3784"
         transform="matrix(1.25,0,0,-1.25,-23.664873,504.01418)">
        <g
           clip-path="url(#clipPath3788)"
           id="g3786">
          <g
             transform="translate(107.9556,232.9341)"
             id="g3792">
            <path
               inkscape:connector-curvature="0"
               id="path3794"
               style="fill:#f4731c;fill-opacity:1;fill-rule:nonzero;stroke:none"
               d="m 0,0 33.101,0.057 c 7.951,0.137 17.046,0.815 22.858,2.555 5.782,1.7 13.245,3.565 24.128,17.743 5.141,6.732 27.708,40.708 27.708,40.708 0,0 3.971,5.002 -2.577,8.399 0,0 -3.056,1.987 -9.01,2.378 0,0 -8.081,0.814 -17.714,-0.039 0,0 -12.654,-0.49 -27.355,-4.147 C 50.041,67.338 38.982,64.789 31.929,60.571 21.759,53.837 20.911,46.754 26.331,43.353 28.666,41.578 33.64,40.262 40.326,40.015 l 12.188,-0.008 6.738,4.904 -11.59,0 c 0,0 -4.969,-0.023 -8.861,1.373 -2.103,0.763 -4.093,2.367 -5.064,4.546 -0.978,2.219 0.506,4.507 1.682,5.88 0.529,0.622 2.733,2.564 4.577,3.612 3.167,1.803 8.308,4.111 14.897,5.743 4.425,1.102 10.279,2.127 15.903,2.655 8.475,0.782 16.454,0.575 18.007,0.429 1.526,-0.143 5.108,-0.318 8.01,-1.982 0,0 5.705,-2.66 1.171,-7.337 0,0 -31.289,-35.724 -37.038,-39.866 0,0 -5.23,-6.018 -14.661,-7.61 0,0 -6.478,-1.659 -15.689,-1.655 -0.726,0 -30.46,-0.105 -30.46,-0.105" />
          </g>
          <g
             transform="translate(108.0376,249.4146)"
             id="g3796">
            <path
               inkscape:connector-curvature="0"
               id="path3798"
               style="fill:#f4731c;fill-opacity:1;fill-rule:nonzero;stroke:none"
               d="m 0,0 34.107,0 c 6.189,0 14.929,-0.547 25.136,9.755 l 32.756,33.142 c 0.484,0.455 3.937,5.816 -7.382,6.582 0,0 -7.274,0.977 -17.404,-0.247 -6.236,-0.761 -12.399,-2.126 -15.077,-3.059 0,0 -10.76,-2.749 -12.115,-7.732 0,0 -2.057,-5.67 6.48,-6.789 0,0 1.485,-0.125 3.099,-0.167 0.455,-0.006 0.955,-0.038 1.387,-0.025 l 12.32,-0.004 5.221,3.65 -13.748,-0.007 c 0,0 -3.964,-0.103 -5.115,2.337 0,0 -1.046,2.189 2.853,4.735 0,0 5.016,4.101 19.949,4.665 0,0 5.232,0.103 8.325,-0.524 3.095,-0.594 3.901,-2.888 1.215,-4.671 L 40.091,8.816 0.005,8.793" />
          </g>
        </g>
      </g>
    </g>
    <g
       transform="matrix(0.56535192,0,0,-0.56535192,-130.75527,1180.7656)"
       id="g3800">
      <g
         id="g3802"
         clip-path="url(#clipPath3804)">
        <g
           id="g3808"
           transform="translate(246.0308,284.8857)">
          <path
             d="M 0,0 C -5.265,-0.797 -7.21,-6.843 -8.535,-10.936 L -8.782,-11.7 c -1.01,-3.112 -2.396,-7.375 -0.819,-9.546 0.676,-0.93 1.83,-1.406 3.441,-1.406 2.114,0 3.753,0.68 5.368,2.13 -0.332,-1.098 -3.012,-10.051 -3.012,-10.051 l 3.804,0 0,13.827 c -0.718,-1.195 -1.461,-1.762 -2.417,-1.762 -0.505,0 -0.833,0.132 -1.031,0.398 -0.621,0.854 -0.015,3.298 1.174,6.952 l 0.061,0.199 c 0.761,2.362 1.38,4.274 2.213,5.479 L 0,0 Z m 11.597,-16.661 0,-4.432 -0.007,0 c -0.649,0.887 -0.761,2.072 -0.324,3.404 l 0.331,1.028 z M 6.032,-0.336 c 0,0 -0.471,-1.44 -0.662,-2.042 C 4.82,-0.708 3.537,0.088 1.191,0.088 0.774,0.088 0.382,0.059 0,0 l 0,-5.48 c 0.628,0.92 1.379,1.438 2.41,1.438 0.505,0 0.847,-0.136 1.042,-0.403 0.652,-0.9 -0.123,-3.305 -1.107,-6.347 L 2.271,-11.02 C 1.42,-13.633 0.726,-15.521 0,-16.746 l 0,-13.827 2.857,0 8.74,28.323 0,1.914 -5.565,0 z m 27.466,-14.516 c -0.396,-1.915 -0.463,-3.523 0,-4.786 l 0,4.786 z m 0,14.516 0,-1.011 -5.338,-16.475 c -0.41,-1.266 -0.79,-2.649 -1.162,-4.223 l -0.035,-0.177 -6.68,0 c 0,0 0.371,1.144 0.576,1.79 -1.598,-1.491 -3.332,-2.22 -5.547,-2.22 -1.646,0 -2.998,0.573 -3.715,1.559 l 0,4.432 5.289,16.325 6.46,0 -4.914,-15.154 c -0.304,-0.925 -0.601,-2.061 -0.208,-2.601 0.205,-0.284 0.587,-0.417 1.177,-0.417 1.732,0 2.479,1.207 3.111,3.156 l 4.858,15.016 6.128,0 z m -21.901,-1.914 0.591,1.914 -0.591,0 0,-1.914 z m 21.901,0.903 0.332,1.011 -0.332,0 0,-1.011 z m 11.184,1.263 0,-4.209 c -1.624,-0.728 -2.373,-2.875 -2.873,-4.364 l 2.873,0 0,-3.795 -4.102,0 c -0.353,-1.143 -0.906,-2.883 -0.906,-4.185 0,-0.521 0.092,-0.975 0.311,-1.273 0.219,-0.314 0.595,-0.466 1.099,-0.466 1.359,0 2.438,0.916 3.223,2.738 l 0.048,0.131 0.327,0 0,-6.267 c -1.468,-0.58 -3.092,-0.878 -4.85,-0.878 -2.914,0 -4.818,0.673 -5.818,2.048 -0.215,0.297 -0.386,0.616 -0.516,0.966 l 0,4.786 c 0.252,1.187 0.627,2.496 1.092,3.916 1.613,5.002 3.749,9.886 10.092,10.852 m 0,-21.69 0,6.267 6.21,0 -0.132,-0.311 c -0.895,-1.978 -2.172,-3.562 -3.793,-4.709 -0.679,-0.503 -1.471,-0.923 -2.285,-1.247 m 9.024,-0.12 0,-0.328 -0.112,0 0.112,0.328 z m 0,18.099 0,-2.695 c -0.243,-1.672 -0.835,-3.619 -1.604,-5.818 l -0.045,-0.144 -7.375,0 0,3.795 2.151,0 0,0.021 c 0.329,0.985 0.701,2.136 0.701,3.037 0,0.402 -0.086,0.764 -0.284,1.027 -0.239,0.354 -0.704,0.53 -1.379,0.53 -0.444,0 -0.836,-0.089 -1.189,-0.251 l 0,4.209 c 0.725,0.111 1.516,0.172 2.369,0.172 2.985,0 4.918,-0.689 5.907,-2.118 0.373,-0.513 0.615,-1.103 0.748,-1.765 m 0,-2.695 c 0.065,0.506 0.086,0.991 0.086,1.449 0,0.437 -0.021,0.854 -0.086,1.246 l 0,-2.695 z m 12.509,-12.892 -0.919,-2.84 0.919,0 0,2.84 z m 0,19.046 0,-2.841 -6.189,-19.045 -6.32,0 0,0.328 6.982,21.558 5.527,0 z m 0,9.217 0,-5.16 -4.213,0 1.666,5.16 2.547,0 z m 0,-5.16 0,5.16 3.903,0 -1.662,-5.16 -2.241,0 z m 0,-6.898 0.922,2.841 -0.922,0 0,-2.841 z m 16.753,-7.882 c -1.386,-4.279 -2.001,-7.54 -0.55,-9.545 0.148,-0.213 0.325,-0.408 0.55,-0.586 l 0,10.131 z m 0,11.093 0,-4.18 -0.525,-1.569 -0.157,0.016 c -5.075,0.335 -6.057,-2.686 -6.699,-4.693 l -3.84,-11.83 -5.532,0 0,2.84 6.169,19.046 6.166,0 c 0,0 -0.477,-1.451 -0.744,-2.257 1.407,1.54 3.072,2.413 5.162,2.627 m 0,-4.18 1.359,4.234 -0.315,0 c -0.367,0 -0.72,-0.014 -1.044,-0.054 l 0,-4.18 z m 8.925,3.826 0,-4.944 c -0.854,-1.029 -1.532,-2.816 -2.391,-5.467 -1.221,-3.837 -1.883,-6.39 -1.277,-7.229 0.202,-0.292 0.606,-0.416 1.257,-0.416 0.966,0 1.687,0.249 2.411,1.259 l 0,-5.099 c -1.072,-0.283 -2.281,-0.436 -3.641,-0.436 -2.476,0 -4.216,0.484 -5.284,1.462 l 0,10.131 0.02,0.123 c 1.51,4.678 3.49,9.253 8.905,10.616 m 9.244,-18.662 c -0.416,-1.266 -0.962,-2.941 -0.962,-2.941 l -0.089,-0.299 1.051,0 0,3.24 z m 0,17.256 0,-8.626 -0.218,-0.722 c -1.666,-5.08 -3.646,-9.738 -9.026,-11.142 l 0,5.099 c 0.798,1.084 1.583,3.047 2.724,6.524 0.901,2.84 1.564,5.074 0.922,5.946 -0.218,0.32 -0.657,0.479 -1.318,0.479 -0.964,0 -1.711,-0.353 -2.328,-1.096 l 0,4.944 c 1.058,0.265 2.247,0.408 3.585,0.408 2.745,0 4.608,-0.59 5.659,-1.814 m 0,-8.626 c 1.142,3.677 1.558,6.508 0.199,8.37 l -0.199,0.256 0,-8.626 z m 0,-11.87 0,3.24 c 0.243,0.745 0.438,1.348 0.459,1.384 0,0 11.723,12.294 12.382,13.001 l -7.883,0 1.389,4.261 14.596,0 -1.496,-4.581 c 0,0 -11.853,-12.329 -12.529,-13.038 l 8.45,0 -1.386,-4.267 -13.982,0 z m 38.023,22.191 0,-5.43 c -0.768,-1.149 -1.519,-3.156 -2.618,-6.548 l -0.171,-0.512 c -0.498,-1.52 -1.277,-3.814 -0.574,-4.788 0.223,-0.325 0.616,-0.479 1.164,-0.479 0.877,0 1.561,0.413 2.199,1.29 l 0,-12.675 c -1.621,-0.854 -3.58,-1.285 -5.859,-1.285 l -3.758,0 1.315,4.104 0.023,0.141 1.14,0.095 1.602,0.061 0.708,0.046 c 1.555,0 2.544,0.882 3.159,2.768 0,0 0.786,2.445 1.1,3.412 -1.366,-1.316 -3.141,-2.092 -4.991,-2.092 -1.926,0 -3.244,0.494 -3.968,1.516 -1.495,2.048 -0.283,5.762 0.789,9.036 l 0.202,0.606 c 1.359,4.214 3.203,9.86 8.538,10.734 m 11.523,-15.215 -0.093,-0.275 c -0.804,-2.477 -0.759,-4.423 0.093,-5.645 l 0,5.92 z m 0,14.91 0,-2.09 c -1.803,-5.603 -6.65,-20.548 -6.65,-20.583 -0.948,-2.894 -2.573,-4.954 -4.873,-6.164 l 0,12.675 c 0.766,1.067 1.423,2.825 2.263,5.356 1.008,3.137 1.796,5.807 1.134,6.711 -0.191,0.263 -0.498,0.389 -0.967,0.389 -1.007,0 -1.709,-0.32 -2.43,-1.419 l 0,5.43 c 0.458,0.084 0.946,0.119 1.471,0.119 2.124,0 3.47,-0.942 3.907,-2.543 0.197,0.668 0.678,2.119 0.678,2.119 l 5.467,0 z m 0,-2.09 0,2.09 0.676,0 -0.676,-2.09 z m 9.021,-5.795 0,-3.96 c -1.186,-0.357 -2.084,-1.184 -2.746,-3.219 -0.11,-0.339 -0.373,-1.159 -0.373,-1.856 0,-0.329 0.045,-0.628 0.199,-0.846 0.221,-0.274 0.549,-0.406 1.055,-0.406 0.72,0 1.337,0.215 1.865,0.576 l 0,-2.678 c -1.647,-1.369 -3.405,-2.042 -5.423,-2.042 -1.666,0 -2.871,0.489 -3.575,1.455 l -0.023,0.031 0,5.92 c 1.71,4.971 5.066,6.56 9.021,7.025 m 0,7.676 0,-5.299 -5.423,0 0.136,0.312 c 0.809,1.902 2.012,3.312 3.552,4.191 0.525,0.319 1.099,0.586 1.735,0.796 m 11.525,-21.618 -0.024,-0.059 0.024,0 0,0.059 z m 0,18.554 0,-0.982 c -0.065,-0.917 -0.328,-1.881 -0.635,-2.785 l -3.449,-10.697 -0.836,-3.222 -0.215,-0.927 -6.015,0 c 0,0 0.412,1.749 0.587,2.506 -0.328,-0.327 -0.635,-0.624 -0.962,-0.894 l 0,2.678 c 1.624,1.119 2.393,3.668 2.941,5.503 0,0 0.109,0.307 0.175,0.553 l -0.4,-0.01 c -1.027,-0.037 -1.949,-0.067 -2.716,-0.295 l 0,3.96 c 1.384,0.159 2.852,0.179 4.345,0.164 0.132,0.357 0.481,1.495 0.481,1.495 0.246,0.703 0.399,1.289 0.399,1.748 0,0.263 -0.069,0.487 -0.201,0.66 -0.219,0.3 -0.659,0.449 -1.379,0.449 -1.273,0 -2.086,-0.599 -2.683,-2.005 l -0.062,-0.134 -0.9,0 0,5.299 c 1.249,0.425 2.716,0.633 4.43,0.633 3.383,0 5.511,-0.65 6.48,-1.984 0.372,-0.503 0.55,-1.088 0.615,-1.713 m 0,-0.982 c 0.02,0.333 0.02,0.665 0,0.982 l 0,-0.982 z m 15.957,-8.244 -0.546,-9.387 0.546,0 0,9.387 z m 0,21.715 0,-1.695 -9.525,-29.407 -6.432,0 0,0.059 10.381,31.033 5.576,0.01 z m 0,-1.695 0,1.695 0.266,10e-4 0.281,0.005 -0.547,-1.701 z m 17.736,-20.007 c -0.461,-0.773 -0.877,-1.666 -1.205,-2.699 -0.816,-2.492 -0.768,-4.451 0.107,-5.676 0.29,-0.386 0.657,-0.697 1.098,-0.931 l 0,9.306 z m 0,12.486 0,-2.971 -11.352,-18.915 -6.384,0 0,9.387 0.743,12.499 6.522,0 c 0,0 -1.824,-13.471 -2.082,-15.294 0.833,1.622 7.944,15.294 7.944,15.294 l 4.609,0 z m 0,-2.971 0,2.971 1.78,0 -1.78,-2.971 z m 7.896,-4.914 0,-3.96 c -1.175,-0.357 -2.082,-1.184 -2.741,-3.219 -0.167,-0.561 -0.372,-1.259 -0.372,-1.856 0,-0.333 0.068,-0.628 0.225,-0.846 0.199,-0.274 0.547,-0.406 1.045,-0.406 0.703,0 1.324,0.215 1.843,0.576 l 0,-2.675 c -1.641,-1.365 -3.399,-2.045 -5.414,-2.045 -0.99,0 -1.822,0.178 -2.482,0.524 l 0,9.306 c 1.84,3.096 4.674,4.223 7.896,4.601 m 0,7.676 0,-5.299 -5.435,0 0.147,0.312 c 0.816,1.902 2.025,3.312 3.565,4.191 0.522,0.319 1.095,0.586 1.723,0.796 m 11.639,6.093 -6.703,0 c -3.707,0 -4.734,-3.437 -4.734,-3.469 l -0.085,-0.282 9.765,0 1.693,3.485 0.064,0.266 z m -11.639,-26.155 0,2.675 c 1.629,1.119 2.393,3.665 2.944,5.498 0,0 0.089,0.312 0.177,0.558 l -0.393,-0.01 c -1.031,-0.037 -1.953,-0.067 -2.728,-0.295 l 0,3.96 c 1.387,0.162 2.858,0.179 4.352,0.164 0.111,0.357 0.484,1.495 0.484,1.495 0.218,0.707 0.394,1.289 0.394,1.748 0,0.263 -0.068,0.487 -0.198,0.66 -0.214,0.3 -0.66,0.449 -1.384,0.449 -1.274,0 -2.085,-0.599 -2.672,-2.005 l -0.074,-0.134 -0.902,0 0,5.299 c 1.277,0.425 2.728,0.633 4.438,0.633 3.402,0 5.515,-0.65 6.473,-1.987 1.079,-1.468 0.6,-3.591 0,-5.477 l -3.488,-10.697 -0.806,-3.222 -0.224,-0.927 -6.017,0 c 0,0 0.423,1.749 0.6,2.506 -0.335,-0.325 -0.641,-0.624 -0.976,-0.891 m 23.054,20.287 0,-4.94 c -0.856,-1.033 -1.536,-2.818 -2.394,-5.471 -1.228,-3.837 -1.888,-6.39 -1.267,-7.229 0.219,-0.292 0.586,-0.416 1.267,-0.416 0.945,0 1.665,0.249 2.394,1.259 l 0,-5.099 c -1.074,-0.283 -2.283,-0.436 -3.648,-0.436 -2.916,0 -4.824,0.673 -5.809,2.048 -1.475,2.026 -0.84,5.33 0.543,9.668 1.517,4.678 3.49,9.253 8.914,10.616 m 0,-21.896 0,5.099 c 0.792,1.084 1.603,3.047 2.723,6.524 0.922,2.84 1.558,5.074 0.938,5.946 -0.241,0.32 -0.671,0.479 -1.315,0.479 -0.985,0 -1.713,-0.353 -2.346,-1.092 l 0,4.94 c 1.053,0.265 2.238,0.408 3.577,0.408 2.944,0 4.853,-0.675 5.86,-2.064 1.448,-1.987 0.883,-5.067 -0.416,-9.098 -1.642,-5.08 -3.643,-9.738 -9.021,-11.142"
             style="fill:#231f20;fill-opacity:1;fill-rule:nonzero;stroke:none"
             id="path3810"
             inkscape:connector-curvature="0" />
        </g>
      </g>
    </g>
  </g>
</svg>
