<?xml version="1.0" encoding="UTF-8" standalone="no"?>
<!-- Created with Inkscape (http://www.inkscape.org/) -->

<svg
   xmlns:dc="http://purl.org/dc/elements/1.1/"
   xmlns:cc="http://creativecommons.org/ns#"
   xmlns:rdf="http://www.w3.org/1999/02/22-rdf-syntax-ns#"
   xmlns:svg="http://www.w3.org/2000/svg"
   xmlns="http://www.w3.org/2000/svg"
   xmlns:sodipodi="http://sodipodi.sourceforge.net/DTD/sodipodi-0.dtd"
   xmlns:inkscape="http://www.inkscape.org/namespaces/inkscape"
   width="150"
   height="150"
   viewBox="0 0 150.00001 150.00001"
   id="svg3734"
   version="1.1"
   inkscape:version="0.91 r"
   sodipodi:docname="repsol.svg">
  <defs
     id="defs3736" />
  <sodipodi:namedview
     id="base"
     pagecolor="#ffffff"
     bordercolor="#666666"
     borderopacity="1.0"
     inkscape:pageopacity="0.0"
     inkscape:pageshadow="2"
     inkscape:zoom="0.35"
     inkscape:cx="260.71429"
     inkscape:cy="365.83823"
     inkscape:document-units="px"
     inkscape:current-layer="layer1"
     showgrid="false"
     inkscape:window-width="975"
     inkscape:window-height="582"
     inkscape:window-x="49"
     inkscape:window-y="18"
     inkscape:window-maximized="1"
     units="px" />
  <metadata
     id="metadata3739">
    <rdf:RDF>
      <cc:Work
         rdf:about="">
        <dc:format>image/svg+xml</dc:format>
        <dc:type
           rdf:resource="http://purl.org/dc/dcmitype/StillImage" />
        <dc:title></dc:title>
      </cc:Work>
    </rdf:RDF>
  </metadata>
  <g
     inkscape:label="Capa 1"
     inkscape:groupmode="layer"
     id="layer1"
     transform="translate(0,-902.36214)">
    <g
       id="g3527"
       transform="matrix(0.16690045,0,0,0.16690045,5.5438269,872.89867)">
      <path
         sodipodi:nodetypes="cccccccccccscccccccccccccccccccccccccccccccccscccscccccccccccccccccccccccccc"
         d="m 429.80425,976.14383 5.01577,-18.46079 16.65733,0 c 23.79193,-1.14378 25.77352,-6.52392 31.54784,-28.57715 l 7.90081,-29.75887 c 9.74604,-35.16372 50.86094,-33.96198 50.86094,-33.96198 l 35.78803,0 -5.02431,18.4625 -2.45888,0 c -28.66707,-0.80372 -31.68847,20.76498 -31.68847,20.76498 -4.27854,17.48875 -8.03291,41.68083 -18.79319,53.34027 -13.91378,16.72637 -29.42562,18.19104 -43.77407,18.19104 z m -99.17776,-109.23914 -97.94149,0 -29.02121,107.72461 97.93596,0 5.21394,-19.51637 -49.00548,0 6.43358,-23.57501 48.8657,0 5.59832,-20.53316 -49.00888,0 5.90771,-22.04982 49.02721,0 z m -196.66156,16.72637 -6.93814,0 -7.5991,28.13949 17.47554,0 c 19.23809,-0.76579 18.05637,-15.46453 18.05637,-15.46453 0.34774,-13.68707 -20.99467,-12.67496 -20.99467,-12.67496 z m 63.95565,7.6025 c -4.5142,-25.59709 -32.27059,-24.32887 -32.27059,-24.32887 l -81.982205,0 -28.999852,107.72461 47.866767,0 11.9275,-44.3596 c 2.21725,0.25484 6.30062,-0.76068 9.76479,4.05524 15.49266,23.57458 24.03738,40.30436 24.03738,40.30436 l 46.16732,0 c -18.06831,-26.3616 -23.99775,-33.45784 -32.23777,-40.30436 -3.82512,-3.5494 -8.64274,-4.81592 -8.64274,-4.81592 -3.90012,-1.0121 -0.40271,-1.77278 -0.40271,-1.77278 52.77903,-1.26694 44.77211,-36.50268 44.77211,-36.50268 z m 423.10884,11.32322 c 12.63107,-15.43641 29.59182,-20.34565 37.89747,-10.96525 8.29713,9.37869 4.78566,29.49252 -7.84115,44.92552 -12.63107,15.43471 -29.59608,20.34352 -37.8932,10.96525 -8.29713,-9.37869 -4.78992,-29.49423 7.83688,-44.92552 z m -55.75739,37.02173 c -5.71892,-30.92439 22.6328,-65.14291 58.40804,-75.02744 41.60923,-8.36489 76.60888,7.60591 82.97982,39.54198 4.42769,31.17709 -19.61566,63.87425 -59.92513,73.25466 -38.15742,7.09624 -74.87872,-6.5904 -81.46273,-37.7692 z m 177.41879,-72.67382 -29.02077,107.72461 84.7739,0 5.17345,-19.51637 -35.96701,0 23.79192,-88.20824 z m -338.96138,19.26025 -5.82461,0 -8.88777,32.95158 13.58692,0 c 22.09968,-1.51965 20.23869,-17.74188 20.23869,-17.74188 0.0784,-16.2218 -19.11323,-15.2097 -19.11323,-15.2097 z m -48.48302,-19.26025 -29.0229,107.72461 47.88854,0 8.96235,-33.45784 c 43.2857,-2.28374 49.67112,-3.80381 49.67112,-3.80381 46.32074,-7.12309 36.4639,-43.84993 36.4639,-43.84993 -4.87089,-27.88125 -44.71714,-26.61303 -44.71714,-26.61303 l -69.24587,0"
         style="fill:#0f2752;fill-opacity:1;fill-rule:evenodd;stroke:none"
         id="path3726"
         inkscape:connector-curvature="0" />
      <path
         sodipodi:nodetypes="cscccc"
         d="m 223.98558,430.01332 c 57.67847,-86.12053 157.29772,-145.60247 258.17879,-145.60247 137.88065,0 225.88903,111.76195 196.58273,249.63833 l -624.075843,0 0,-104.03586 169.314323,0"
         style="fill:#f79528;fill-opacity:1;fill-rule:evenodd;stroke:none"
         id="path3728"
         inkscape:connector-curvature="0" />
      <path
         sodipodi:nodetypes="cscsc"
         d="m 640.34678,628.2461 c -56.55429,91.18618 -159.75064,155.45462 -264.30214,155.45462 -102.67388,0 -177.38,-61.74138 -196.89594,-150.32889 -0.52459,-2.38218 71.1303,-86.41884 224.10601,-85.05517 195.64903,1.74295 238.36625,77.88222 237.09207,79.92944"
         style="fill:#ee293d;fill-opacity:1;fill-rule:evenodd;stroke:none"
         id="path3730"
         inkscape:connector-curvature="0" />
      <path
         sodipodi:nodetypes="cccccccccccccccccccccccccccccscccccccc"
         d="m 803.6174,534.04918 0,96.01999 c 0,0 -15.04307,0.84377 -17.72355,0.84377 -11.42507,0.34476 -23.88141,-1.95432 -23.88141,-1.95432 0,0 -7.53433,-1.84778 -13.41945,-0.3993 -3.94614,0.96864 -12.45635,3.97001 -20.68955,4.24317 -7.40648,0.24802 -14.70642,-1.52306 -18.86138,-2.21257 -4.84532,-1.04023 -13.50467,-5.88597 -23.54049,-5.19348 -1.30402,0 -8.05849,0.88213 -14.91523,1.95603 -4.09956,0.63752 -8.19485,1.57462 -11.25887,1.97733 -9.56705,1.26012 -12.04724,0.075 -15.23058,-0.34263 -1.36794,-0.18494 -2.27138,-0.51606 -3.75011,-0.74107 -6.95476,-1.05855 -10.32134,-1.77278 -17.97925,1.36027 -2.28416,0.93369 -16.9437,1.97094 -22.72655,3.06785 -7.78575,1.4732 -14.24191,-2.41371 -19.06166,-2.8633 -7.23176,-0.67587 -10.31282,1.92961 -12.33703,2.21555 -3.07253,0.43808 -10.12531,4.726 -17.93236,5.4969 -3.78421,0.37459 -7.61956,-0.87062 -19.18525,0.095 -3.86944,0.3243 -12.82284,-0.89066 -18.60142,-2.41073 -1.99012,-0.52417 -10.31708,-2.4086 -17.44656,-3.08618 -7.36386,-0.69249 -15.61838,-2.02421 -18.79745,-3.85367 -5.58256,-3.21444 -15.19649,-3.5805 -18.40966,-3.95338 -10.02729,-1.15359 -16.15489,5.84634 -26.94329,6.62705 -7.37622,0.52927 -12.86929,-1.03555 -18.94362,-0.93583 -5.60813,0.0848 -19.34846,5.22374 -26.83421,5.09547 -12.15846,-0.20455 -23.77104,-5.09547 -30.53147,-5.67972 -3.32098,-0.28126 -6.57506,0.40143 -10.78499,0.3895 -3.76034,-0.01 -6.75532,-0.12316 -9.63652,-0.28935 -6.99481,-0.40144 -12.62808,0.67544 -19.98427,-1.94793 -4.20482,-1.49962 -18.6206,-2.10561 -23.58482,-2.10561 -7.01655,0 -17.5386,-1.84139 -25.9167,1.20345 -9.18395,3.34101 -11.58104,3.06444 -18.04317,3.52553 -4.37783,0.31152 -7.05788,0.0984 -12.3383,0.96225 -5.30343,0.86721 -9.54362,0.31492 -13.97813,0.60428 -8.7595,0.57274 -8.31971,0.78411 -22.23136,3.29626 -6.83842,1.23499 -18.97004,-1.68797 -18.97004,-1.68797 -8.10196,-30.13303 -6.5806,-66.87989 0.3145,-99.32265 l 624.1542,0"
         style="fill:#0f2752;fill-opacity:1;fill-rule:evenodd;stroke:none"
         id="path3732"
         inkscape:connector-curvature="0" />
    </g>
  </g>
</svg>
