<?xml version="1.0" encoding="UTF-8" standalone="no"?>
<!-- Created with Inkscape (http://www.inkscape.org/) -->

<svg
   xmlns:dc="http://purl.org/dc/elements/1.1/"
   xmlns:cc="http://creativecommons.org/ns#"
   xmlns:rdf="http://www.w3.org/1999/02/22-rdf-syntax-ns#"
   xmlns:svg="http://www.w3.org/2000/svg"
   xmlns="http://www.w3.org/2000/svg"
   xmlns:sodipodi="http://sodipodi.sourceforge.net/DTD/sodipodi-0.dtd"
   xmlns:inkscape="http://www.inkscape.org/namespaces/inkscape"
   width="150"
   height="150"
   viewBox="0 0 150.00001 150"
   id="svg5581"
   version="1.1"
   inkscape:version="0.91 r"
   sodipodi:docname="texaco.svg">
  <defs
     id="defs5583" />
  <sodipodi:namedview
     id="base"
     pagecolor="#ffffff"
     bordercolor="#666666"
     borderopacity="1.0"
     inkscape:pageopacity="0.0"
     inkscape:pageshadow="2"
     inkscape:zoom="3.0066667"
     inkscape:cx="75"
     inkscape:cy="75"
     inkscape:document-units="px"
     inkscape:current-layer="layer1"
     showgrid="false"
     units="px"
     inkscape:window-width="975"
     inkscape:window-height="582"
     inkscape:window-x="49"
     inkscape:window-y="18"
     inkscape:window-maximized="1" />
  <metadata
     id="metadata5586">
    <rdf:RDF>
      <cc:Work
         rdf:about="">
        <dc:format>image/svg+xml</dc:format>
        <dc:type
           rdf:resource="http://purl.org/dc/dcmitype/StillImage" />
        <dc:title></dc:title>
      </cc:Work>
    </rdf:RDF>
  </metadata>
  <g
     inkscape:label="Capa 1"
     inkscape:groupmode="layer"
     id="layer1"
     transform="translate(0,-902.36227)">
    <g
       id="g5551"
       transform="matrix(0.02159649,0,0,-0.02159649,18.252195,1049.9907)">
      <path
         d="m 3649.04,3687.41 631.4,-1821.66 c 188.89,171.43 361,361.87 496.09,546.53 135.1,184.67 233.21,363.55 309.18,541.99 75.98,178.43 129.84,356.41 165.62,539.02 52.59,268.51 65.95,545.58 39.1,821.6 -8.73,87.77 -21.77,174.87 -37.77,256.65 -17.74,89.66 -38.06,172.88 -65.04,255.3 L 3649.04,3687.41 M 135.973,4826.56 C 101.332,4694.67 70.8633,4561.61 51.8945,4463.42 32.9258,4365.23 25.4531,4301.91 20.3555,4236.39 15.2578,4170.88 12.5313,4103.17 12.5938,4035.47 11.7969,3768.1 50.9727,3500.64 130.355,3239.28 209.746,2977.92 329.352,2722.66 485.016,2490.47 640.68,2258.29 832.406,2049.19 1050.4,1872.71 l 21.77,-14.51 616.87,1828.92 -1553.067,1139.44 m 2563.047,1887.5 587.85,-1836.17 1879.66,0 c -100.21,246.14 -226.8,481.86 -365.98,684.34 -139.18,202.48 -290.94,371.72 -449.56,513.34 -158.62,141.63 -324.1,255.63 -496.1,347.04 -172,91.43 -350.52,160.27 -536.89,208.7 -186.37,48.43 -380.58,76.45 -575.43,82.75 l -43.55,0 M 151.902,4877.89 l 1901.448,0 595.11,1836.17 c -302.44,-16.68 -602.83,-77.1 -876.45,-175.67 -273.63,-98.57 -520.47,-235.31 -733.1,-397.8 C 826.289,5978.09 647.887,5789.84 502.25,5583.07 356.609,5376.31 243.746,5151.04 166.414,4914.18 l -14.512,-36.29 M 1123.75,1821.34 c 189.26,-119.37 388.81,-223.17 561.46,-294.7 172.67,-71.53 318.43,-110.79 475.61,-137.54 157.17,-26.73 325.74,-40.95 506.39,-39.62 180.65,1.31 373.37,18.18 555.05,52.29 181.68,34.12 352.31,85.49 517.83,155.68 165.52,70.21 325.92,159.24 475.32,263.89 l 14.51,14.52 -1262.78,914.45 0,1262.83 522.52,0 0,515.29 -1669.19,0 0,-515.29 522.52,0 0,-1262.83 -1219.24,-928.97"
         style="fill:#eb222c;fill-opacity:1;fill-rule:nonzero;stroke:none"
         id="path5553"
         inkscape:connector-curvature="0" />
      <path
         d="m 884.566,928.781 0,-914.4529 696.714,0 0,261.2739 -420.93,0 0,87.097 420.93,0 0,217.711 -420.93,0 0,94.36 420.93,0 0,254.011 -696.714,0 m -884.566,0 0,-261.269 239.488,0 0,-653.1839 297.563,0 0,653.1839 239.488,0 0,261.269 -776.539,0 M 4034.05,399.219 c -1.86,-20.199 -5.05,-40.321 -8.58,-55.547 -3.53,-15.211 -7.39,-25.543 -11.29,-34.172 -3.91,-8.609 -7.85,-15.52 -11.99,-21.551 -27.65,-37.57 -55.27,-42.558 -82.13,-46.98 -32.09,-4.27 -66.7,0.019 -100.67,24.5 -12.42,8.941 -24.42,20.32 -35.38,34.203 -10.95,13.879 -20.87,30.226 -29.08,48.68 -16.4,35.757 -25.32,83.98 -25.68,128.699 -0.29,21.711 1.25,41.437 3.96,59.679 2.72,18.239 6.61,35 11.39,50.051 4.78,15.047 10.42,28.391 16.59,40.047 6.17,11.672 12.87,21.672 19.85,30.231 22.38,27.089 45.5,38.992 68.44,44.3 26.47,5.782 61.17,2.539 96.24,-11.707 11.14,-4.621 21.46,-10.222 30.59,-16.363 48.27,-34.019 59.1,-71.008 57.74,-107.148 l 268.53,0 c -6.57,36.371 -16.16,72.218 -27.55,103.73 -11.4,31.5 -24.58,58.649 -38.75,82.481 -14.17,23.828 -29.33,44.347 -45.31,62.378 -15.99,18.032 -32.81,33.571 -50.53,47.219 -17.72,13.641 -36.33,25.403 -55.99,35.461 -19.65,10.082 -40.34,18.492 -62.31,25.309 -45.45,14.191 -96.6,20.929 -147.76,20.832 -44.38,0.219 -88.78,-6.5 -132.08,-20.16 -43.29,-13.672 -85.44,-34.301 -123.88,-61.563 -38.43,-27.277 -73.14,-61.199 -101.31,-99.238 -28.18,-38.051 -49.83,-80.211 -64.2,-123.301 -14.37,-43.098 -21.47,-87.109 -21.17,-138.117 0.3,-51 8,-109 23.16,-162.113 15.17,-53.098 37.81,-101.297 66.3,-143.387 28.5,-42.102 62.86,-78.082 101.59,-107.1837 76,-58.3477 176.27,-87.566425 269.9,-88.4062687 46.03,-0.6015623 88.66,5.3398487 127.87,16.5976687 39.22,11.2695 75.02,27.8516 107.38,49.6211 32.35,21.7695 61.26,48.7112 86.07,80.9882 24.82,32.27 45.54,69.863 60.75,112.68 15.2,42.832 24.9,90.883 27.82,139.25 l -268.53,0 m 838.97,298.773 c 13.53,-4.492 27.29,-11.344 40.61,-20.73 13.32,-9.403 26.18,-21.34 37.77,-35.551 11.58,-14.199 21.86,-30.652 30.21,-48.633 8.35,-17.969 14.77,-37.457 19.05,-57.828 8.41,-39.578 8.73,-85.352 -0.14,-129.051 -4.34,-21.187 -10.82,-41.129 -19.05,-59.129 -8.23,-18 -18.2,-34.07 -29.23,-47.73 -46.03,-55.141 -98.54,-68.508 -148.67,-53.52 -12.12,3.891 -24.14,9.789 -35.8,18 -11.67,8.219 -22.98,18.77 -33.45,31.86 -10.48,13.082 -20.1,28.711 -28.17,46.672 -16.74,36.418 -25.49,83.988 -25.67,129.046 -0.18,22.883 1.67,44.844 5.06,65.122 3.4,20.281 8.34,38.871 14.41,55.449 6.08,16.57 13.27,31.121 21.14,43.66 35.76,54.562 73.7,67.973 111.79,68.941 13.31,0.032 26.61,-2.101 40.14,-6.578 M 4703.8,922.789 c -44.31,-14.027 -87.07,-35.199 -126.25,-63.488 -39.18,-28.289 -74.78,-63.692 -104.12,-104.379 -29.34,-40.68 -52.42,-86.652 -67.84,-134.723 -26.91,-85.14 -31.54,-175.449 -7.94,-263.64 10.24,-38.399 25.74,-76.789 46.67,-113.411 20.93,-36.609 47.28,-71.449 77.65,-102.187 30.38,-30.75 64.78,-57.4102 100.86,-78.5704 107.3,-62.210912 222.95,-77.1914 333.55,-48.082 36.34,9.6602 72.54,24.3125 107.32,44.332 34.79,20.0313 68.17,45.4494 98.15,75.4614 29.99,30.019 56.59,64.648 78.01,101.718 21.42,37.078 37.67,76.61 48.56,116.36 10.89,39.75 16.41,79.711 15.74,123.82 -0.66,44.109 -7.52,92.371 -22.1,139.082 -14.58,46.719 -36.88,91.898 -66.04,132.707 -29.15,40.801 -65.17,77.242 -105.41,106.711 -81.54,59.828 -178.24,89.02 -270.15,89.039 -46.51,0.16 -92.35,-6.719 -136.66,-20.75 m -1612.69,-581.988 -181.44,0 94.34,254.019 87.1,-254.019 M 1973.74,14.3281 2126.14,275.602 2285.8,14.3281 l 544.31,0 50.79,137.8909 261.28,0 58.05,-137.8909 297.55,0 -362.87,914.4529 -246.75,0 -326.58,-820.109 -246.75,384.648 283.04,435.461 -333.85,0 -145.14,-239.5 -130.63,239.5 -333.85,0 297.56,-435.461 -312.07,-478.9919 333.85,0"
         style="fill:#231f20;fill-opacity:1;fill-rule:nonzero;stroke:none"
         id="path5555"
         inkscape:connector-curvature="0" />
    </g>
  </g>
</svg>
