<?xml version="1.0" encoding="UTF-8" standalone="no"?>
<!-- Generator: Adobe Illustrator 13.0.2, SVG Export Plug-In  -->

<svg
   xmlns:dc="http://purl.org/dc/elements/1.1/"
   xmlns:cc="http://creativecommons.org/ns#"
   xmlns:rdf="http://www.w3.org/1999/02/22-rdf-syntax-ns#"
   xmlns:svg="http://www.w3.org/2000/svg"
   xmlns="http://www.w3.org/2000/svg"
   xmlns:sodipodi="http://sodipodi.sourceforge.net/DTD/sodipodi-0.dtd"
   xmlns:inkscape="http://www.inkscape.org/namespaces/inkscape"
   version="1.1"
   x="0px"
   y="0px"
   width="150"
   height="150"
   viewBox="-0.821 -0.626 150 150"
   enable-background="new -0.821 -0.626 76 95"
   xml:space="preserve"
   id="svg3575"
   inkscape:version="0.91 r"
   sodipodi:docname="total-0.svg"><metadata
     id="metadata3601"><rdf:RDF><cc:Work
         rdf:about=""><dc:format>image/svg+xml</dc:format><dc:type
           rdf:resource="http://purl.org/dc/dcmitype/StillImage" /><dc:title></dc:title></cc:Work></rdf:RDF></metadata><sodipodi:namedview
     pagecolor="#ffffff"
     bordercolor="#666666"
     borderopacity="1"
     objecttolerance="10"
     gridtolerance="10"
     guidetolerance="10"
     inkscape:pageopacity="0"
     inkscape:pageshadow="2"
     inkscape:window-width="975"
     inkscape:window-height="582"
     id="namedview3599"
     showgrid="false"
     inkscape:zoom="3.0494232"
     inkscape:cx="75.820998"
     inkscape:cy="74.713415"
     inkscape:window-x="49"
     inkscape:window-y="18"
     inkscape:window-maximized="1"
     inkscape:current-layer="svg3575" /><defs
     id="defs3577" /><g
     id="g3609"
     transform="matrix(1.7460623,0,0,1.7460623,10.086244,0.71273)"><path
       id="path3581"
       d="M 51.767,2.856 C 70.198,13.738 59.236,47.964 44.572,58.959 30.938,69.18 16.43,64.471 13.28,55.045 c 2.742,4.078 8.2,5.566 13.045,3.94 C 39.785,53.588 46.722,29.199 47.621,20.726 48.224,13.435 47.266,8.535 44.735,5.442 41.834,2.371 37.386,0.892 30.891,2.933 35.364,-0.743 44.938,-1.179 51.767,2.856"
       inkscape:connector-curvature="0"
       style="fill:#034ea2" /><g
       id="g3603"><path
         d="M 64.643,36.079 C 64.598,35.943 64.545,35.808 64.496,35.672 59.872,40.954 48.511,44.367 38.292,43.614 32.268,43.167 21.123,40.051 15.498,36.609 21.439,42.3 28.4,46.625 36.27,48.964 c 9.358,2.781 19.336,2.588 24.962,-0.344 4.12,-2.78 5.056,-7.745 3.411,-12.541"
         id="path3579"
         inkscape:connector-curvature="0"
         style="fill:#f8981d" /><path
         d="m 62.077,48.146 c 0.074,-0.05 0.147,-0.099 0.219,-0.146 0.014,-0.01 0.029,-0.017 0.044,-0.027 0.377,-0.25 0.754,-0.534 1.094,-0.841 0.166,-0.147 0.329,-0.31 0.494,-0.472 7.16,-7.273 8.687,-27.5 -8.975,-37.093 C 48.664,6.159 34.055,1.382 19.481,8.753 14.66,11.189 9.684,16.254 7.01,23.125 8.981,19.86 12.4,17.654 19.142,16.696 c 6.719,-0.845 15.987,0.196 25.046,3.401 5.853,2.152 10.58,4.813 14.277,7.828 3.048,2.621 5.015,5.107 6.029,7.746 0.05,0.136 0.103,0.271 0.147,0.407 1.646,4.796 0.709,9.761 -3.411,12.542 -0.005,0.008 0.008,0 0,0 0.192,-0.095 0.382,-0.201 0.585,-0.319 0.028,-0.017 0.056,-0.036 0.084,-0.055 0.062,-0.035 0.122,-0.07 0.178,-0.1"
         id="path3583"
         inkscape:connector-curvature="0"
         style="fill:#ed1a3b" /><path
         d="m 9.289,34.766 c 0.334,0.539 1.1,1.445 1.606,2.021 3.532,-8.322 22.924,-13.736 28.642,-13.662 -12.845,-4.139 -25.438,-2.166 -30.5,2.224 -1.843,2.055 -2.416,5.124 0.252,9.417"
         id="path3585"
         inkscape:connector-curvature="0"
         style="fill:#f8981d" /><path
         d="M 47.105,53.646 C 36.776,53.068 21.741,49.081 11.087,37.012 11.026,36.947 10.961,36.866 10.895,36.787 10.388,36.211 9.623,35.305 9.289,34.766 6.621,30.473 7.194,27.405 9.037,25.349 9.035,25.352 9.035,25.352 9.035,25.352 8.7,25.652 8.291,26.031 7.832,26.627 5.095,30.162 4.77,35.888 6.637,41.943 c 4.055,13.177 21.81,21.1 36.223,18.921 9.212,-1.39 14.973,-6.572 17.376,-8.687 -5.214,1.485 -9.072,1.691 -13.131,1.469"
         id="path3587"
         inkscape:connector-curvature="0"
         style="fill:#4596d1" /></g></g><g
     id="g3617"
     transform="matrix(2.0160206,0,0,2.0160206,0.16104478,-12.505733)"><path
       style="fill:#ed1a3b"
       inkscape:connector-curvature="0"
       id="path3589"
       d="m 21.740714,68.451204 c -4.888,0 -7.693,2.095 -7.693,5.735 0,3.643 2.806,5.731 7.693,5.731 4.882,0 7.682,-2.089 7.682,-5.731 0,-3.641 -2.8,-5.735 -7.682,-5.735 m 0,8.82 c -2.677,0 -4.028,-1.041 -4.028,-3.085 0,-2.041 1.352,-3.083 4.028,-3.083 2.666,0 4.023,1.042 4.023,3.083 0.001,2.044 -1.357,3.085 -4.023,3.085 z" /><path
       style="fill:#ed1a3b"
       inkscape:connector-curvature="0"
       id="path3591"
       d="m 30.417714,68.712204 0,2.466 c 0,0 4.396,0 4.63,0 0,0.24 -0.004,7.6 -0.004,7.6 0,0.729 1.096,0.98 2.041,0.98 0.938,0 2.043,-0.252 2.043,-0.98 0,0 0,-6.6 0,-7.6 0.228,0 4.628,0 4.628,0 l 0,-2.466 -13.338,0" /><path
       style="fill:#ed1a3b"
       inkscape:connector-curvature="0"
       id="path3593"
       d="m 68.378714,77.106204 c -1.122,0 -1.902,-0.182 -2.324,-0.538 -0.546,-0.467 -0.622,-1.159 -0.634,-1.69 l 0.004,-5.367 c 0,-0.699 -1.049,-0.953 -1.948,-0.953 -0.91,0 -1.964,0.254 -1.964,0.953 l 0,5.19 c 0,1.987 0.636,3.378 1.904,4.131 1.566,0.909 4.405,0.876 7.149,0.851 l 3.411,-0.018 0.006,-0.5 0,-2.059 -5.604,0" /><path
       style="fill:#ed1a3b"
       inkscape:connector-curvature="0"
       id="path3595"
       d="m 5.143714,76.303204 c 0,1.937 1.633,3.247 4.388,3.479 l 0,-11.684 6.21,0 0,-2.692 -16.16300003,0 0,2.692 5.56500003,0 0,8.205" /><path
       style="fill:#ed1a3b"
       inkscape:connector-curvature="0"
       id="path3597"
       d="m 59.917714,79.682204 -0.091,-0.44 c -0.908,-4.496 -6.021,-9.629 -7.07,-10.383 -0.342,-0.243 -0.704,-0.294 -1.184,-0.302 -0.483,0.008 -0.85,0.059 -1.193,0.302 -1.047,0.754 -6.158,5.887 -7.065,10.383 l -0.095,0.44 3.615,0 0.063,-0.317 c 0.143,-0.647 0.384,-1.34 0.701,-2.039 l 7.943,0 c 0.314,0.699 0.554,1.392 0.698,2.039 l 0.066,0.317 3.612,0 m -11.046,-4.665 c 0.765,-1.152 1.678,-2.277 2.701,-3.285 1.016,1.008 1.941,2.133 2.691,3.285 l -5.392,0 z" /></g></svg>